<svg width="93" height="75" viewBox="0 0 93 75" fill="none" xmlns="http://www.w3.org/2000/svg">
<path d="M10.7614 64.0622C8.58622 64.0622 7.12253 65.7809 7.12253 67.9905C7.12253 70.2002 8.58622 71.9189 10.7614 71.9189C12.9366 71.9189 14.4003 70.2002 14.4003 67.9905C14.38 65.7809 12.9163 64.0622 10.7614 64.0622ZM10.2735 61.6275C12.0218 61.6275 13.4855 62.5277 14.1767 63.5098V61.873H16.8601V74.1285H14.7866C14.625 74.1281 14.4701 74.0632 14.3559 73.9482C14.2416 73.8332 14.1772 73.6774 14.1767 73.5147V72.4917C13.4855 73.4738 12.0422 74.3741 10.2735 74.3741C6.93957 74.3741 4.39844 71.5097 4.39844 68.011C4.39844 64.5124 6.91924 61.6275 10.2735 61.6275ZM19.9095 61.873H22.5929V63.5303C23.3248 62.3027 24.7071 61.6275 26.2928 61.6275C29.1185 61.6275 30.9482 63.6326 30.9482 66.7425V74.1285H28.8949C28.7333 74.1281 28.5785 74.0632 28.4642 73.9482C28.3499 73.8332 28.2855 73.6774 28.285 73.5147V67.1926C28.285 65.2489 27.3093 64.0827 25.7439 64.0827C23.9753 64.0827 22.5929 65.474 22.5929 68.0928V74.1285H20.5397C20.3781 74.1281 20.2232 74.0632 20.109 73.9482C19.9947 73.8332 19.9303 73.6774 19.9298 73.5147L19.9095 61.873ZM39.405 64.0622C37.2298 64.0622 35.7661 65.7809 35.7661 67.9905C35.7661 70.2002 37.2298 71.9189 39.405 71.9189C41.5802 71.9189 43.0439 70.2002 43.0439 67.9905C43.0439 65.7809 41.5802 64.0622 39.405 64.0622ZM38.9171 61.6275C40.6654 61.6275 42.1291 62.5277 42.8203 63.5098V55.735H45.5037V74.1285H43.4505C43.2889 74.1281 43.1341 74.0632 43.0198 73.9482C42.9055 73.8332 42.8411 73.6774 42.8406 73.5147V72.4917C42.1494 73.4738 40.7061 74.3741 38.9375 74.3741C35.6035 74.3741 33.0624 71.5097 33.0624 68.011C33.0624 64.5124 35.5832 61.6275 38.9171 61.6275ZM48.5531 61.873H51.2365V64.0622C51.4722 63.3922 51.9066 62.8111 52.4811 62.3976C53.0555 61.9841 53.7423 61.7582 54.4485 61.7503C54.7969 61.7437 55.1448 61.778 55.4853 61.8526V64.6147C55.0527 64.4688 54.5998 64.3928 54.1436 64.3896C52.6189 64.3896 51.2162 65.699 51.2162 68.1338V74.1081H49.163C49.0014 74.1076 48.8465 74.0428 48.7323 73.9278C48.618 73.8128 48.5536 73.6569 48.5531 73.4943V61.873ZM62.7021 71.8575C64.8366 71.8575 66.3613 70.1593 66.3613 67.9905C66.3613 65.8013 64.857 64.1236 62.7021 64.1236C60.5269 64.1236 59.0225 65.8218 59.0225 67.9905C59.0429 70.1798 60.5269 71.8575 62.7021 71.8575ZM62.7021 74.3741C61.4514 74.364 60.2316 73.9814 59.1967 73.2745C58.1617 72.5676 57.3579 71.5681 56.8867 70.4021C56.4154 69.236 56.2978 67.9556 56.5487 66.7224C56.7996 65.4892 57.4077 64.3583 58.2964 63.4725C59.185 62.5866 60.3144 61.9855 61.5421 61.7448C62.7698 61.5042 64.0409 61.6348 65.1949 62.1203C66.3489 62.6057 67.3342 63.4243 68.0266 64.4726C68.719 65.521 69.0874 66.7522 69.0854 68.011C69.0896 68.853 68.9269 69.6874 68.6068 70.4653C68.2868 71.2432 67.8158 71.9491 67.2214 72.5416C66.627 73.1341 65.9211 73.6014 65.1451 73.916C64.3692 74.2306 63.5386 74.3864 62.7021 74.3741ZM71.2606 61.873H73.9441V74.1285H71.8908C71.7292 74.1281 71.5744 74.0632 71.4601 73.9482C71.3458 73.8332 71.2814 73.6774 71.2809 73.5147L71.2606 61.873ZM72.6023 59.1928C72.1239 59.1882 71.6663 58.9949 71.328 58.6544C70.9896 58.3139 70.7976 57.8534 70.7931 57.3718C70.8026 56.8957 70.9976 56.4423 71.336 56.1094C71.6744 55.7765 72.1291 55.5906 72.6023 55.5918C73.0768 55.5918 73.5318 55.7815 73.8673 56.1192C74.2028 56.4568 74.3913 56.9148 74.3913 57.3923C74.3913 57.8698 74.2028 58.3278 73.8673 58.6654C73.5318 59.0031 73.0768 59.1928 72.6023 59.1928ZM82.5026 64.0622C80.3274 64.0622 78.8637 65.7809 78.8637 67.9905C78.8637 70.2002 80.3274 71.9189 82.5026 71.9189C84.6778 71.9189 86.1415 70.2002 86.1415 67.9905C86.1008 65.7809 84.6778 64.0622 82.5026 64.0622ZM82.0147 61.6275C83.763 61.6275 85.2267 62.5277 85.9178 63.5098V55.735H88.6013V74.1285H86.548C86.3865 74.1281 86.2316 74.0632 86.1173 73.9482C86.0031 73.8332 85.9387 73.6774 85.9382 73.5147V72.4917C85.247 73.4738 83.8036 74.3741 82.035 74.3741C78.701 74.3741 76.1599 71.5097 76.1599 68.011C76.1599 64.5124 78.6807 61.6275 82.0147 61.6275Z" fill="#181433"/>
<path d="M67.1338 14.6104L74.1473 2.39584C74.3354 2.05975 74.3844 1.66263 74.2837 1.29046C74.183 0.918295 73.9407 0.601026 73.6092 0.40734C73.2778 0.213655 72.8839 0.159139 72.5128 0.255597C72.1417 0.352056 71.8233 0.591725 71.6265 0.922717L64.5317 13.2805C58.8684 10.7181 52.7295 9.39315 46.5202 9.39315C40.3108 9.39315 34.172 10.7181 28.5087 13.2805L21.4138 0.922717C21.217 0.591725 20.8986 0.352056 20.5276 0.255597C20.1565 0.159139 19.7626 0.213655 19.4312 0.40734C19.0997 0.601026 18.8574 0.918295 18.7567 1.29046C18.656 1.66263 18.705 2.05975 18.893 2.39584L25.9065 14.6104C13.8108 21.1985 5.59785 33.4541 4.39844 47.9193H88.5606C87.3612 33.4541 79.128 21.1985 67.1338 14.6104ZM27.1263 35.8479C26.4347 35.8479 25.7587 35.6415 25.1837 35.2548C24.6087 34.8681 24.1605 34.3185 23.8959 33.6755C23.6312 33.0324 23.562 32.3249 23.6969 31.6422C23.8318 30.9596 24.1648 30.3325 24.6538 29.8404C25.1428 29.3482 25.7659 29.0131 26.4441 28.8773C27.1224 28.7415 27.8255 28.8112 28.4644 29.0775C29.1033 29.3439 29.6494 29.7949 30.0336 30.3737C30.4178 30.9524 30.6229 31.6328 30.6229 32.3288C30.6229 33.2621 30.2545 34.1572 29.5988 34.8172C28.943 35.4771 28.0536 35.8479 27.1263 35.8479ZM65.8734 35.8479C65.1819 35.8479 64.5058 35.6415 63.9308 35.2548C63.3558 34.8681 62.9076 34.3185 62.643 33.6755C62.3783 33.0324 62.3091 32.3249 62.444 31.6422C62.5789 30.9596 62.912 30.3325 63.401 29.8404C63.89 29.3482 64.513 29.0131 65.1913 28.8773C65.8695 28.7415 66.5726 28.8112 67.2115 29.0775C67.8504 29.3439 68.3965 29.7949 68.7807 30.3737C69.1649 30.9524 69.37 31.6328 69.37 32.3288C69.37 33.2621 69.0016 34.1572 68.3459 34.8172C67.6902 35.4771 66.8008 35.8479 65.8734 35.8479Z" fill="#181433"/>
</svg>
