<svg width="73" height="42" viewBox="0 0 73 42" fill="none" xmlns="http://www.w3.org/2000/svg">
<g clip-path="url(#clip0_567_793)">
<path d="M19.9806 17.3278C19.9806 18.1921 20.0745 18.8929 20.2387 19.4068C20.4265 19.9207 20.6611 20.4813 20.9897 21.0887C21.107 21.2756 21.1539 21.4624 21.1539 21.6259C21.1539 21.8595 21.0131 22.0931 20.7081 22.3267L19.2297 23.3078C19.0185 23.448 18.8073 23.518 18.6196 23.518C18.3849 23.518 18.1503 23.4013 17.9156 23.191C17.5871 22.8406 17.3055 22.4669 17.0708 22.0931C16.8362 21.696 16.6015 21.2522 16.3434 20.7149C14.513 22.864 12.2133 23.9385 9.44435 23.9385C7.4732 23.9385 5.90098 23.3779 4.75114 22.2566C3.6013 21.1354 3.01465 19.6404 3.01465 17.7717C3.01465 15.7861 3.71863 14.1743 5.15006 12.9596C6.58149 11.745 8.48224 11.1376 10.8992 11.1376C11.6971 11.1376 12.5184 11.2077 13.3867 11.3245C14.2549 11.4413 15.1466 11.6282 16.0853 11.8384V10.1332C16.0853 8.35787 15.7098 7.11983 14.9823 6.39569C14.2314 5.67155 12.9643 5.32116 11.1574 5.32116C10.3361 5.32116 9.49128 5.4146 8.62304 5.62483C7.7548 5.83506 6.91002 6.09202 6.0887 6.41905C5.71325 6.58256 5.43165 6.676 5.26739 6.72272C5.10313 6.76944 4.9858 6.7928 4.89193 6.7928C4.56341 6.7928 4.39915 6.5592 4.39915 6.06866V4.92405C4.39915 4.5503 4.44608 4.26999 4.56341 4.10648C4.68074 3.94296 4.89193 3.77945 5.22046 3.61593C6.04177 3.19546 7.02735 2.84508 8.17718 2.56476C9.32702 2.26109 10.5473 2.12094 11.8379 2.12094C14.6304 2.12094 16.6719 2.75164 17.986 4.01304C19.2766 5.27444 19.9337 7.1899 19.9337 9.75943V17.3278H19.9806ZM10.4534 20.8784C11.2278 20.8784 12.0256 20.7383 12.8704 20.458C13.7152 20.1777 14.4661 19.6638 15.0997 18.963C15.4751 18.5192 15.7567 18.0286 15.8975 17.468C16.0383 16.9074 16.1322 16.2299 16.1322 15.4357V14.4546C15.4517 14.2911 14.7242 14.151 13.9733 14.0575C13.2224 13.9641 12.4949 13.9174 11.7675 13.9174C10.1953 13.9174 9.04543 14.2211 8.27105 14.8518C7.49667 15.4825 7.12121 16.3701 7.12121 17.5381C7.12121 18.636 7.4028 19.4535 7.98946 20.0142C8.55264 20.5981 9.37395 20.8784 10.4534 20.8784ZM29.2967 23.4013C28.8743 23.4013 28.5927 23.3312 28.4049 23.1677C28.2172 23.0275 28.0529 22.7005 27.9122 22.2566L22.3976 4.19991C22.2568 3.73273 22.1864 3.42906 22.1864 3.26554C22.1864 2.89179 22.3742 2.68156 22.7496 2.68156H25.0493C25.4951 2.68156 25.8002 2.75164 25.9645 2.91515C26.1522 3.05531 26.293 3.38234 26.4338 3.82617L30.3761 19.29L34.0368 3.82617C34.1541 3.35898 34.2949 3.05531 34.4827 2.91515C34.6704 2.775 34.9989 2.68156 35.4213 2.68156H37.2986C37.7444 2.68156 38.0495 2.75164 38.2372 2.91515C38.425 3.05531 38.5892 3.38234 38.6831 3.82617L42.3907 19.4769L46.4504 3.82617C46.5911 3.35898 46.7554 3.05531 46.9197 2.91515C47.1074 2.775 47.4125 2.68156 47.8349 2.68156H50.0172C50.3927 2.68156 50.6038 2.86843 50.6038 3.26554C50.6038 3.38234 50.5804 3.49914 50.5569 3.63929C50.5334 3.77945 50.4865 3.96632 50.3927 4.22327L44.7373 22.28C44.5965 22.7472 44.4323 23.0509 44.2445 23.191C44.0568 23.3312 43.7518 23.4246 43.3528 23.4246H41.3347C40.8889 23.4246 40.5838 23.3545 40.3961 23.191C40.2084 23.0275 40.0441 22.7238 39.9502 22.2566L36.313 7.1899L32.6992 22.2333C32.5819 22.7005 32.4411 23.0041 32.2534 23.1677C32.0656 23.3312 31.7371 23.4013 31.3147 23.4013H29.2967ZM59.4506 24.032C58.2303 24.032 57.0101 23.8918 55.8368 23.6115C54.6635 23.3312 53.7483 23.0275 53.1382 22.6771C52.7627 22.4669 52.5046 22.2333 52.4107 22.0231C52.3169 21.8128 52.2699 21.5792 52.2699 21.369V20.1777C52.2699 19.6871 52.4577 19.4535 52.8097 19.4535C52.9505 19.4535 53.0913 19.4769 53.232 19.5236C53.3728 19.5703 53.584 19.6638 53.8187 19.7572C54.6165 20.1076 55.4848 20.3879 56.4 20.5748C57.3386 20.7617 58.2538 20.8551 59.1924 20.8551C60.6708 20.8551 61.8206 20.5981 62.6185 20.0842C63.4163 19.5703 63.8387 18.8228 63.8387 17.8651C63.8387 17.211 63.6275 16.6738 63.2051 16.2299C62.7827 15.7861 61.9849 15.389 60.8351 15.0153L57.4325 13.9641C55.7195 13.4268 54.4523 12.6326 53.6779 11.5815C52.9035 10.5536 52.5046 9.40904 52.5046 8.19435C52.5046 7.21326 52.7158 6.34897 53.1382 5.60147C53.5606 4.85397 54.1238 4.19991 54.8277 3.68601C55.5317 3.14875 56.3296 2.75164 57.2682 2.47133C58.2069 2.19102 59.1924 2.07422 60.2249 2.07422C60.7412 2.07422 61.2809 2.09758 61.7972 2.16766C62.3369 2.23773 62.8297 2.33117 63.3225 2.42461C63.7918 2.5414 64.2376 2.6582 64.66 2.79836C65.0824 2.93851 65.4109 3.07867 65.6456 3.21882C65.9741 3.4057 66.2088 3.59257 66.3496 3.80281C66.4904 3.98968 66.5608 4.24663 66.5608 4.57366V5.67155C66.5608 6.16209 66.3731 6.41905 66.0211 6.41905C65.8333 6.41905 65.5283 6.32561 65.1293 6.13874C63.7918 5.53139 62.29 5.22772 60.6239 5.22772C59.2863 5.22772 58.2303 5.43796 57.5029 5.88178C56.7754 6.32561 56.4 7.00303 56.4 7.96076C56.4 8.61482 56.6346 9.17544 57.104 9.61927C57.5733 10.0631 58.4415 10.5069 59.6852 10.904L63.0174 11.9552C64.707 12.4925 65.9272 13.24 66.6546 14.1977C67.3821 15.1554 67.7341 16.2533 67.7341 17.468C67.7341 18.4724 67.5229 19.3835 67.124 20.1777C66.7016 20.9719 66.1384 21.6727 65.4109 22.2333C64.6835 22.8173 63.8152 23.2377 62.8062 23.5414C61.7502 23.8684 60.6473 24.032 59.4506 24.032Z" fill="#181433"/>
<path fill-rule="evenodd" clip-rule="evenodd" d="M63.886 33.3106C56.1656 38.9869 44.9488 42.0002 35.3043 42.0002C21.7878 42.0002 9.60893 37.0247 0.410228 28.7555C-0.31722 28.1014 0.33983 27.2138 1.20807 27.7277C11.1577 33.4741 23.4304 36.9546 36.1256 36.9546C44.6907 36.9546 54.1006 35.1793 62.7596 31.5353C64.0502 30.9513 65.1531 32.3762 63.886 33.3106Z" fill="#0B569D"/>
<path fill-rule="evenodd" clip-rule="evenodd" d="M67.1009 29.6659C66.1153 28.4045 60.5773 29.0586 58.0664 29.3623C57.3155 29.4557 57.1982 28.8016 57.8787 28.3111C62.2903 25.2277 69.5413 26.1153 70.3861 27.1431C71.2309 28.1943 70.1514 35.4123 66.0214 38.8695C65.3878 39.4068 64.7777 39.1265 65.0593 38.4257C65.9979 36.1131 68.0864 30.904 67.1009 29.6659Z" fill="#0B569D"/>
</g>
<defs>
<clipPath id="clip0_567_793">
<rect width="72" height="42" fill="white" transform="translate(0.5)"/>
</clipPath>
</defs>
</svg>
