<svg width="90" height="89" viewBox="0 0 90 89" fill="none" xmlns="http://www.w3.org/2000/svg">
<path d="M0 7C0 3.13401 3.13401 0 7 0H83C86.866 0 90 3.13401 90 7V82C90 85.866 86.866 89 83 89H7C3.13401 89 0 85.866 0 82V7Z" fill="#181433"/>
<path fill-rule="evenodd" clip-rule="evenodd" d="M51.6934 15.6087C51.6934 13.6135 53.3134 11.9961 55.3114 11.9961C57.3095 11.9961 58.9295 13.6135 58.9295 15.6087C58.9295 17.6039 57.3095 19.2213 55.3114 19.2213C53.3134 19.2213 51.6934 17.6039 51.6934 15.6087Z" stroke="#ECECFF" stroke-width="4" stroke-miterlimit="8"/>
<path fill-rule="evenodd" clip-rule="evenodd" d="M58.4896 16.4512C74.4703 23.5012 81.6461 42.0275 74.5167 57.8304C67.3873 73.6336 48.6534 80.7296 32.6727 73.6794C25.6403 70.5774 19.9912 65.0487 16.7812 58.1271L18.8783 57.176C25.6417 71.7599 43.0801 78.1597 57.8279 71.4715C72.5756 64.7833 79.0474 47.5386 72.284 32.9548C69.3081 26.5373 64.0699 21.4112 57.5497 18.5348L58.4896 16.4512Z" fill="#ECECFF"/>
<path fill-rule="evenodd" clip-rule="evenodd" d="M12.9131 54.6873C12.9131 52.7114 14.5486 51.1094 16.5663 51.1094C18.584 51.1094 20.2195 52.7114 20.2195 54.6873C20.2195 56.6631 18.584 58.2651 16.5663 58.2651C14.5486 58.2651 12.9131 56.6631 12.9131 54.6873Z" stroke="#ECECFF" stroke-width="4" stroke-miterlimit="8"/>
<path d="M56.1464 18.4707V24.9187H54.6572V18.4707H56.1464ZM56.1464 29.2173V34.9489H54.6572V29.2173H56.1464ZM56.1464 39.2476V44.9791H54.6572V39.2476H56.1464ZM56.1464 49.2774V55.7155H54.6572V49.2774H56.1464Z" fill="#ECECFF"/>
<path d="M19.8845 54.1426L26.4048 54.1676L26.3992 55.6001L19.8789 55.5751L19.8845 54.1426ZM30.7514 54.1843L36.5474 54.2065L36.5418 55.6397L30.7458 55.6175L30.7514 54.1843ZM40.8947 54.2239L46.6907 54.2461L46.685 55.6786L40.8891 55.6564L40.8947 54.2239ZM51.0373 54.2628L56 54.2815L55.9937 55.7148L51.0316 55.6953L51.0373 54.2628Z" fill="#ECECFF"/>
<path fill-rule="evenodd" clip-rule="evenodd" d="M16.918 19.222C16.918 17.2268 18.5535 15.6094 20.5712 15.6094C22.5889 15.6094 24.2244 17.2268 24.2244 19.222C24.2244 21.2172 22.5889 22.8346 20.5712 22.8346C18.5535 22.8346 16.918 21.2172 16.918 19.222Z" stroke="#ECECFF" stroke-width="4" stroke-miterlimit="8"/>
<path d="M23.1699 21.791L55.2598 54.918" stroke="#ECECFF" stroke-width="3" stroke-miterlimit="8"/>
<path fill-rule="evenodd" clip-rule="evenodd" d="M56.1455 51.2637H54.674V52.7653V54.267H50.5954V55.71H56.1455V51.2637Z" fill="#ECECFF"/>
</svg>
