<svg width="47" height="44" viewBox="0 0 47 44" fill="none" xmlns="http://www.w3.org/2000/svg">
<g clip-path="url(#clip0_567_788)">
<path d="M15.8448 0.544107H29.4406L15.3268 41.9954C15.2546 42.2071 15.1496 42.4063 15.0155 42.586C14.8816 42.7658 14.7202 42.9234 14.537 43.0537C14.3538 43.184 14.1516 43.2853 13.9368 43.3535C13.722 43.4218 13.498 43.4571 13.2728 43.4571H2.69196C2.34849 43.4571 2.00961 43.3763 1.70405 43.2204C1.39817 43.0649 1.13412 42.8395 0.933835 42.5626C0.733415 42.2858 0.602301 41.9658 0.55131 41.6289C0.500192 41.2921 0.531207 40.9478 0.64091 40.6252L13.7903 2.00472C13.8621 1.79305 13.9672 1.5939 14.1017 1.4141C14.2355 1.2343 14.3974 1.07669 14.5801 0.946386C14.7633 0.816086 14.9655 0.714805 15.1803 0.646526C15.3951 0.578246 15.6191 0.542969 15.8443 0.542969V0.543538L15.8448 0.544107Z" fill="url(#paint0_linear_567_788)"/>
<path d="M40.9077 43.4573H28.6997C28.5635 43.4573 28.4274 43.4448 28.293 43.4192C28.1592 43.3941 28.0276 43.3566 27.9007 43.3071C27.7738 43.2576 27.652 43.1961 27.5366 43.1244C27.4213 43.0523 27.313 42.9696 27.2132 42.8775L13.3596 30.0603C13.2131 29.9248 13.111 29.7488 13.0667 29.5551C13.0224 29.3614 13.038 29.1589 13.1114 28.9741C13.1849 28.7893 13.3128 28.6307 13.4785 28.5189C13.6445 28.4074 13.8403 28.3477 14.0408 28.3477H35.6L40.9066 43.4579L40.9077 43.4573Z" fill="#181433"/>
<path d="M29.4894 0.542995L19.9723 28.3492L35.5225 28.3458L40.8566 43.456H28.6945C28.5687 43.4549 28.443 43.4435 28.3189 43.4213C28.1948 43.3991 28.0731 43.3667 27.9547 43.3234C27.7175 43.2378 27.4968 43.1125 27.3023 42.953L17.9505 34.3066L15.3326 41.955C15.2648 42.1462 15.1717 42.3277 15.0557 42.4944C14.8232 42.8298 14.5051 43.0982 14.1339 43.2722C13.949 43.3588 13.7534 43.4206 13.552 43.456H2.69834C2.35142 43.4571 2.0091 43.3752 1.70067 43.217C1.39219 43.059 1.12666 42.8297 0.926511 42.5485C0.726367 42.2673 0.597498 41.9426 0.550797 41.6016C0.504265 41.2606 0.5411 40.9134 0.658203 40.5894L13.7864 2.03262C13.8547 1.81697 13.9575 1.61384 14.0908 1.43063C14.2235 1.24741 14.3854 1.08582 14.5692 0.952672C14.753 0.819527 14.9575 0.71597 15.174 0.646552C15.3906 0.577135 15.6175 0.541857 15.8455 0.542995H29.49H29.4894Z" fill="url(#paint1_linear_567_788)"/>
<path d="M46.3594 40.6241C46.4691 40.9469 46.5 41.2909 46.4496 41.6278C46.3985 41.9646 46.2676 42.2845 46.0676 42.5615C45.8673 42.8382 45.6033 43.0636 45.2976 43.2191C44.9919 43.3746 44.6532 43.4558 44.3095 43.456H29.1567C29.5001 43.456 29.839 43.3746 30.1452 43.2193C30.4507 43.0639 30.7149 42.838 30.9154 42.5615C31.1158 42.285 31.2468 41.9646 31.2979 41.6278C31.349 41.2909 31.318 40.9467 31.2083 40.6241L18.0583 2.00244C17.9135 1.57699 17.6377 1.20724 17.2697 0.945248C17.087 0.814948 16.8849 0.714236 16.6706 0.645957C16.4564 0.577677 16.2324 0.542969 16.0078 0.542969H31.16C31.3852 0.542969 31.6086 0.577677 31.8234 0.645957C32.0377 0.714236 32.2398 0.815517 32.4231 0.945248C32.6057 1.07555 32.7671 1.23316 32.9009 1.41239C33.0348 1.59163 33.1393 1.79077 33.2117 2.00244L46.3617 40.6241H46.3594Z" fill="url(#paint2_linear_567_788)"/>
</g>
<defs>
<linearGradient id="paint0_linear_567_788" x1="20.8067" y1="3.72479" x2="6.91371" y2="45.1529" gradientUnits="userSpaceOnUse">
<stop stop-color="#181433"/>
<stop offset="1" stop-color="#0669BC"/>
</linearGradient>
<linearGradient id="paint1_linear_567_788" x1="25.2122" y1="22.9898" x2="21.9504" y2="24.1066" gradientUnits="userSpaceOnUse">
<stop stop-color="#ECECFF"/>
<stop offset="0.1" stop-opacity="0.2"/>
<stop offset="0.3" stop-opacity="0.1"/>
<stop offset="0.6" stop-opacity="0.1"/>
<stop offset="1" stop-opacity="0"/>
</linearGradient>
<linearGradient id="paint2_linear_567_788" x1="23.4085" y1="2.51738" x2="38.6628" y2="43.5394" gradientUnits="userSpaceOnUse">
<stop stop-color="#5C8DBC"/>
<stop offset="1" stop-color="#181433"/>
</linearGradient>
<clipPath id="clip0_567_788">
<rect width="46" height="43" fill="white" transform="translate(0.5 0.5)"/>
</clipPath>
</defs>
</svg>
