<svg width="61" height="70" viewBox="0 0 61 70" fill="none" xmlns="http://www.w3.org/2000/svg">
<g clip-path="url(#clip0_567_766)">
<path d="M60.8973 20.7958C60.8968 19.6387 60.6507 18.6163 60.1529 17.7388C59.664 16.8759 58.9317 16.1527 57.9495 15.5808C49.842 10.8809 41.7266 6.19539 33.6217 1.49068C31.4367 0.222452 29.3181 0.268687 27.1493 1.55512C23.9222 3.46848 7.76559 12.7746 2.95111 15.5782C0.968375 16.7322 0.00357422 18.4982 0.00309766 20.7937C0 30.2455 0.00309766 39.697 0 49.1491C0.000476563 50.2808 0.236137 51.2833 0.711984 52.1477C1.20118 53.0367 1.94366 53.7798 2.94849 54.3645C7.7632 57.1681 23.922 66.4736 27.1483 68.3874C29.3181 69.6745 31.4367 69.7206 33.6224 68.4518C41.7276 63.7469 49.8434 59.0616 57.9521 54.3617C58.957 53.7771 59.6995 53.0336 60.1887 52.1453C60.6638 51.2809 60.8999 50.2784 60.9004 49.1465C60.9004 49.1465 60.9004 30.2479 60.8973 20.7958Z" fill="#5C8DBC"/>
<path d="M30.5433 34.8789L0.711914 52.1473C1.20111 53.0363 1.94359 53.7794 2.94842 54.3642C7.76313 57.1677 23.9219 66.4732 27.1483 68.387C29.3181 69.6742 31.4366 69.7202 33.6224 68.4515C41.7275 63.7465 49.8434 59.0612 57.9521 54.3613C58.9569 53.7768 59.6994 53.0332 60.1886 52.1449L30.5433 34.8789Z" fill="#181433"/>
<path d="M21.708 39.994C23.4439 43.0407 26.7071 45.0956 30.4505 45.0956C34.2171 45.0956 37.4989 43.0146 39.226 39.9353L30.5437 34.8789L21.708 39.994Z" fill="#181433"/>
<path d="M60.8969 20.7953C60.8964 19.6382 60.6503 18.6158 60.1525 17.7383L30.543 34.8788L60.1883 52.1448C60.6634 51.2804 60.8995 50.2779 60.9 49.146C60.9 49.146 60.9 30.2474 60.8969 20.7953Z" fill="#181433" fill-opacity="0.45"/>
<path d="M59.2668 36.1128H56.9502V38.4423H54.6331V36.1128H52.3168V33.7841H54.6331V31.4551H56.9502V33.7841H59.2668V36.1128ZM50.8137 36.1128H48.4974V38.4423H46.1808V36.1128H43.8643V33.7841H46.1808V31.4551H48.4974V33.7841H50.8137V36.1128Z" fill="#ECECFF"/>
<path d="M39.2261 39.9354C37.499 43.0147 34.2172 45.0958 30.4507 45.0958C26.7073 45.0958 23.444 43.0408 21.7081 39.9941C20.8361 38.4653 20.3782 36.7334 20.38 34.971C20.38 29.3795 24.889 24.8465 30.4507 24.8465C34.17 24.8465 37.4161 26.8758 39.1606 29.8914L47.9629 24.7955C44.4642 18.7236 37.9322 14.6387 30.4507 14.6387C19.281 14.6387 10.2266 23.7419 10.2266 34.971C10.2266 38.655 11.2014 42.1097 12.9051 45.0895C16.3949 51.1935 22.9455 55.3036 30.4507 55.3036C37.9697 55.3036 44.5305 51.177 48.0154 45.055L39.2261 39.9354Z" fill="#ECECFF"/>
</g>
<defs>
<clipPath id="clip0_567_766">
<rect width="61" height="69" fill="white" transform="translate(0 0.5)"/>
</clipPath>
</defs>
</svg>
