<svg width="107" height="51" viewBox="0 0 107 51" fill="none" xmlns="http://www.w3.org/2000/svg">
<path d="M34.6471 37.5485L42.3913 38.1252V44.8137C42.3913 44.8137 27.9214 59.2243 6.83691 42.1623H14.0219L14.8181 35.5898C14.8181 35.5898 23.0179 44.0048 34.6471 37.5485Z" fill="#181433"/>
<path d="M8.42221 6.64844C8.42221 6.64844 -7.31432 21.4635 5.57045 40.4318L12.7628 41.1246L13.448 34.0915C13.448 34.0915 6.83708 23.1375 15.3775 14.4904L7.71853 13.8912L8.42221 6.64844Z" fill="#181433"/>
<path d="M10.1333 5.611C10.1333 5.611 29.7623 -7.18555 44.684 8.26244L38.0694 7.80181L37.3843 15.2917C37.3843 15.2917 29.8586 6.07163 17.3182 13.2208L9.67773 12.8762L10.1333 5.611Z" fill="#181433"/>
<path d="M39.0957 17.1419L39.5512 9.41602L46.5066 10.1088L67.4874 33.7433H60.3061L59.621 40.3157L39.0957 17.1419Z" fill="#181433"/>
<path d="M36.5879 36.2823L63.1537 6.64844L70.2239 7.34126L69.7683 14.6065L43.658 44.0045L43.7691 36.3947L36.5879 36.2823Z" fill="#213359"/>
<path d="M64.1797 5.58189L71.535 6.18858L71.0239 13.2815C71.0239 13.2815 81.8828 6.27471 89.8381 13.7122L97.6157 14.0568L98.3156 7.15103C98.3156 7.15103 86.1605 -6.70534 64.1797 5.58189Z" fill="#213359"/>
<path d="M90.9494 14.8359L98.7269 15.2965L99.3269 8.34961C99.3269 8.34961 116.345 27.5201 97.9566 44.0054L90.4346 43.4774L91.1197 35.613C91.1197 35.613 101.297 24.0897 90.9494 14.8359Z" fill="#213359"/>
<path d="M69.3126 35.5913L61.4573 34.8984L61.0166 41.9053C61.0166 41.9053 74.9569 58.1622 95.9933 45.1896L88.8083 44.6016L89.4935 37.078C89.4935 37.078 80.3419 44.4968 69.3126 35.5913Z" fill="#213359"/>
<path d="M79.2532 23.4797V26.1011C79.2307 26.2032 79.2195 26.3074 79.2199 26.412C79.2195 26.5177 79.2307 26.6232 79.2532 26.7265V30.9509H77.3125V23.4609L79.2532 23.4797Z" fill="#181433"/>
<path d="M80.9606 23.479C80.3214 23.5627 79.7243 23.8469 79.2532 24.2917C78.9284 24.5465 78.6595 24.8668 78.4638 25.2324C78.268 25.598 78.1497 26.0007 78.1162 26.4151C78.1449 26.8481 78.2604 27.2706 78.4559 27.6569C78.6514 28.0432 78.9227 28.3852 79.2532 28.662C79.6659 29.06 80.2 29.3042 80.768 29.3549C82.5716 29.3998 83.4605 27.8307 83.4605 26.4188C83.4605 25.007 82.3568 23.3966 80.9606 23.479ZM80.3717 27.7146C80.1034 27.7026 79.8471 27.5985 79.6451 27.4194C79.4431 27.2404 79.3075 26.9971 79.2606 26.7296C79.2382 26.6263 79.227 26.5208 79.2273 26.4151C79.227 26.3105 79.2382 26.2063 79.2606 26.1042C79.3075 25.8368 79.4431 25.5935 79.6451 25.4145C79.8471 25.2354 80.1034 25.1313 80.3717 25.1193C80.6914 25.1494 80.9886 25.2991 81.2048 25.5392C81.4211 25.7792 81.541 26.0922 81.541 26.4169C81.541 26.7417 81.4211 27.0547 81.2048 27.2947C80.9886 27.5347 80.6914 27.6845 80.3717 27.7146ZM87.3196 25.7148C87.0381 25.6249 85.9974 25.4601 85.9974 25.0631C85.9974 24.8384 86.316 24.8122 86.4715 24.8197C86.9159 24.8197 87.5826 25.3552 87.9529 25.2541C88.2826 25.168 88.5714 24.3066 88.6937 24.0145C87.7582 23.4747 86.6685 23.2739 85.6049 23.4453C85.3421 23.496 85.0932 23.6036 84.8755 23.7608C84.6578 23.918 84.4764 24.121 84.3437 24.3559C84.211 24.5908 84.1302 24.852 84.1069 25.1215C84.0836 25.391 84.1183 25.6624 84.2086 25.917C84.679 27.1491 86.1234 26.666 86.853 27.415C87.153 27.7295 86.5345 27.8719 86.3308 27.8644C85.7044 27.7704 85.1055 27.5404 84.5753 27.1903C84.3938 27.4524 83.8345 28.0778 83.9012 28.4036C83.9679 28.7295 84.7049 28.9729 85.0123 29.0702C86.0419 29.4073 87.6307 29.5346 88.4048 28.5871C89.3714 27.4487 88.527 26.1117 87.3196 25.7148ZM72.2497 21.4043C71.444 21.4043 70.6563 21.6459 69.9864 22.0986C69.3164 22.5512 68.7942 23.1946 68.4859 23.9473C68.1775 24.7 68.0969 25.5283 68.2541 26.3274C68.4113 27.1265 68.7993 27.8605 69.369 28.4367C69.9388 29.0128 70.6647 29.4051 71.4549 29.5641C72.2452 29.723 73.0643 29.6414 73.8088 29.3296C74.5532 29.0179 75.1894 28.4899 75.6371 27.8124C76.0847 27.135 76.3237 26.3385 76.3237 25.5238C76.3237 24.4312 75.8945 23.3834 75.1304 22.6109C74.3664 21.8383 73.3302 21.4043 72.2497 21.4043ZM72.2497 27.6247C71.8368 27.6239 71.4333 27.4994 71.0903 27.2669C70.7472 27.0344 70.4801 26.7042 70.3226 26.3182C70.165 25.9322 70.1242 25.5076 70.2052 25.0982C70.2862 24.6887 70.4854 24.3127 70.7777 24.0177C71.07 23.7227 71.4422 23.5219 71.8473 23.4407C72.2524 23.3595 72.6722 23.4015 73.0536 23.5615C73.4351 23.7215 73.7611 23.9922 73.9905 24.3395C74.2198 24.6867 74.3423 25.0949 74.3423 25.5125C74.3423 25.7905 74.288 26.0658 74.1825 26.3225C74.0771 26.5793 73.9226 26.8125 73.7278 27.0087C73.5331 27.2049 73.3019 27.3604 73.0477 27.4661C72.7934 27.5718 72.521 27.6257 72.246 27.6247H72.2497Z" fill="#181433"/>
<path d="M33.6657 23.386H31.3436L33.7991 29.8798H34.8583V27.1122L33.6657 23.386ZM36.0545 23.3972H38.3767L35.9175 29.891H34.8583V27.1235L36.0545 23.3972ZM22.392 22.4722C21.6122 21.9246 20.7072 21.5869 19.7625 21.491C18.5107 21.3712 17.17 21.5248 16.0107 21.5248V29.8723H16.0663C16.2885 29.8985 16.5107 29.921 16.7366 29.9359C17.6268 30.0105 18.5218 30.003 19.4106 29.9135C21.1106 29.7225 22.2031 29.1645 22.8735 28.438C23.4675 27.7618 23.8025 26.893 23.8179 25.9888V25.7903V25.6854C23.8031 24.4983 23.4661 23.3036 22.392 22.4722ZM20.5032 27.5729C19.8032 27.9698 18.9514 27.8725 18.181 27.8725V23.5246C18.9995 23.5246 19.9217 23.416 20.6402 23.9253C21.8328 24.7754 21.7883 26.8389 20.4921 27.5729H20.5032ZM30.3251 28.2245C30.1362 28.0635 29.8955 27.7901 29.6399 27.7451C29.2325 27.689 28.7251 28.2432 28.2733 28.2882C27.5696 28.3593 27.0622 27.8687 26.7919 27.277H31.0732C31.0732 26.0786 30.9732 24.8166 29.9621 23.9927C28.0844 22.4423 25.003 23.5882 24.6586 26.0337C24.2883 28.6102 26.2919 30.273 28.7326 29.9509C29.3378 29.8645 29.9058 29.6046 30.3695 29.2019C30.5362 29.0521 30.7806 28.8462 30.6584 28.6027C30.5711 28.4571 30.4581 28.3289 30.3251 28.2245ZM28.9585 26.1011H26.7734C26.8206 25.8429 26.9557 25.6097 27.1553 25.4417C27.3548 25.2738 27.6063 25.1819 27.8659 25.1819C28.1256 25.1819 28.377 25.2738 28.5766 25.4417C28.7761 25.6097 28.9113 25.8429 28.9585 26.1011Z" fill="#213359"/>
</svg>
