<svg width="201" height="47" viewBox="0 0 201 47" fill="none" xmlns="http://www.w3.org/2000/svg">
<path d="M13.534 37.8705C11.6864 37.8705 10.0068 36.3489 10.0068 34.4892C10.0068 32.6295 11.5185 31.1079 13.534 31.1079C15.5496 31.1079 17.0613 32.6295 17.0613 34.4892C17.0613 36.3489 15.3817 37.8705 13.534 37.8705ZM56.8689 19.4424C56.5329 16.7374 54.8533 14.5396 52.6698 12.8489L51.8299 12.1727L51.1581 13.018C49.8144 14.5396 49.3105 17.2446 49.4784 19.2734C49.6464 20.795 50.1503 22.3165 50.9901 23.5C50.3183 23.8381 49.4784 24.1763 48.8066 24.5144C47.2949 25.0216 45.7832 25.1906 44.2715 25.1906H0.768743L0.600779 26.205C0.26485 29.4173 0.768743 32.7986 2.11246 35.8417L2.78432 37.0252V37.1942C6.81546 43.9568 14.0379 47 21.9323 47C37.0491 47 49.4784 40.4065 55.3572 26.205C59.2204 26.3741 63.0836 25.3597 64.9312 21.6403L65.4351 20.795L64.5952 20.2878C62.4117 18.9353 59.3883 18.7662 56.8689 19.4424ZM35.2015 16.7374H28.6508V23.3309H35.2015V16.7374ZM35.2015 8.45324H28.6508V15.0468H35.2015V8.45324ZM35.2015 0H28.6508V6.59353H35.2015V0ZM43.2637 16.7374H36.7131V23.3309H43.2637V16.7374ZM18.9089 16.7374H12.3583V23.3309H18.9089V16.7374ZM27.1392 16.7374H20.5885V23.3309H27.1392V16.7374ZM10.8466 16.7374H4.296V23.3309H10.8466V16.7374ZM27.1392 8.45324H20.5885V15.0468H27.1392V8.45324ZM18.9089 8.45324H12.3583V15.0468H18.9089V8.45324Z" fill="#181433"/>
<path d="M167.423 33.2618C170.277 30.6955 173.132 28.3003 175.986 25.734C176.993 24.8786 178.001 24.0232 179.008 22.9966C178.169 21.9701 176.993 21.2858 175.818 20.7725C173.635 19.9171 171.453 20.2593 169.27 21.4569C166.583 22.9966 165.408 25.5629 165.576 28.6425C165.576 29.8401 165.912 31.0377 166.583 32.0642C167.087 32.5775 167.255 32.9196 167.423 33.2618ZM170.781 35.657C172.124 36.1703 173.803 36.1703 175.314 35.8281C175.986 35.4859 178.001 34.6305 178.672 34.8016H179.008C179.512 34.9727 179.848 35.3148 180.016 35.8281C180.519 36.8546 180.352 37.8811 179.344 38.3944L179.008 38.5655C175.314 40.7896 171.453 40.4474 167.759 38.3944C166.08 37.3679 164.736 35.9992 163.729 34.2883L163.561 33.9461C161.21 29.8401 161.546 25.3918 164.233 21.4569C165.072 20.0882 166.415 19.0617 167.759 18.2062L168.262 17.8641C171.788 15.811 175.482 15.9821 179.008 17.693C180.855 18.7195 182.534 20.0882 183.542 21.9701L183.71 22.3123C184.549 23.681 183.542 24.8786 182.366 25.734L178.84 28.8136C175.818 31.2088 173.299 33.4329 170.781 35.657ZM198.15 16.8375H198.485C199.661 16.8375 200.5 17.693 200.5 18.8906C200.5 20.6014 198.989 20.9436 197.646 20.9436C195.967 20.9436 194.288 21.9701 193.112 23.1677C191.601 24.7075 190.93 26.5894 190.93 28.6425V38.2233C190.93 39.2498 190.258 40.2763 189.083 40.2763H188.747C187.572 40.2763 186.9 39.4209 186.9 38.2233V28.1292C186.9 24.1942 188.747 21.1147 191.769 18.8906C193.952 17.5219 195.967 16.8375 198.15 16.8375ZM150.128 23.5099L154.662 18.8906C155.166 18.5484 156.677 16.6665 157.348 16.6665H158.02C158.86 16.8375 159.531 17.3508 159.531 18.3773V18.7195C159.531 19.4038 158.692 20.0882 158.356 20.6014C157.516 21.628 156.509 22.4834 155.669 23.5099L150.968 28.3003L157.013 34.4594L158.692 36.1703L159.363 36.8546C159.531 37.1968 159.699 37.3679 159.699 37.71V38.2233C159.531 39.0787 158.86 39.7631 158.02 39.7631H157.684C157.013 39.7631 156.341 39.0787 155.837 38.5655C154.998 37.71 153.99 36.8546 153.151 35.8281L150.128 32.9196V37.71C150.128 38.7366 149.457 39.7631 148.282 39.7631H147.946C146.77 39.7631 146.099 38.9076 146.099 37.71V11.3628C146.099 10.3363 146.77 9.48084 147.946 9.48084H148.282C149.457 9.48084 150.128 10.3363 150.128 11.3628V23.5099ZM137.703 20.9436C137.2 20.6014 136.024 20.6014 135.353 20.6014C132.163 20.4303 129.812 22.3123 128.469 25.2208C127.965 26.2473 127.797 27.2738 127.797 28.4714C127.797 31.8931 129.476 34.2883 132.498 35.657C133.506 36.1703 135.017 36.3414 136.192 36.3414C137.2 36.3414 138.711 35.657 139.55 35.3148H140.39C141.229 35.4859 141.901 35.9992 141.901 37.0257V37.3679C141.901 39.7631 137.536 40.2763 136.024 40.4474C130.316 40.7896 125.95 37.539 124.271 32.0642C123.935 31.0377 123.935 30.1823 123.935 29.1557V28.3003C123.935 24.0232 125.95 20.6014 129.644 18.5484C131.323 17.5219 133.17 17.0086 135.185 17.0086H136.024C138.039 17.0086 140.054 17.5219 141.733 18.7195L141.901 18.8906L142.069 19.0617C142.237 19.4038 142.405 19.746 142.405 20.0882V20.4304C142.405 21.4569 141.733 21.9701 140.726 22.1412H140.558C139.382 21.799 138.039 21.1147 137.703 20.9436ZM102.443 28.3003C102.443 31.2088 103.954 33.4329 106.305 34.9727C107.48 35.657 108.824 35.9992 110.167 35.9992C113.021 35.9992 115.204 34.4594 116.715 32.0642C117.387 30.8666 117.723 29.4979 117.723 28.1292C117.723 25.3918 116.379 23.1677 114.197 21.628C113.021 20.7725 111.51 20.4304 110.167 20.4304C106.977 20.4304 104.626 22.1412 103.283 25.0497C102.443 26.2473 102.443 27.2738 102.443 28.3003ZM109.495 16.6665H109.999C114.532 16.6665 117.891 18.8906 120.073 22.8256C120.913 24.3653 121.417 26.0762 121.417 27.9581V28.8136C121.417 33.0907 119.402 36.5124 115.708 38.5655C114.029 39.592 112.182 40.1052 110.167 40.1052H109.327C105.13 40.1052 101.772 38.0522 99.7567 34.2883C98.7492 32.5775 98.2455 30.6955 98.2455 28.6425V27.787C98.2455 23.5099 100.26 20.0882 103.954 18.0351C105.801 17.1797 107.48 16.6665 109.495 16.6665ZM76.9215 28.3003C76.9215 31.3799 78.4326 33.7751 81.1191 35.1438C82.1266 35.657 83.3019 35.9992 84.6451 35.9992C87.6675 35.9992 89.8502 34.6305 91.3614 32.0642C92.033 30.8666 92.3688 29.4979 92.3688 28.1292C92.3688 25.3918 91.1935 23.3388 89.0107 21.799C87.6675 20.9436 86.3242 20.4304 84.6451 20.4304C81.4549 20.4304 79.1042 22.1412 77.761 25.0497C77.2573 26.2473 76.9215 27.2738 76.9215 28.3003ZM92.3688 19.5749V11.1917C92.3688 10.1652 93.0404 9.13867 94.2158 9.13867H94.5516C95.7269 9.13867 96.3986 9.9941 96.3986 11.1917V28.8136C96.3986 33.0907 94.3837 36.5124 90.6898 38.5655C89.0107 39.592 87.1637 40.1052 85.1489 40.1052H84.3093C80.1117 40.1052 76.7536 38.0522 74.7387 34.2883C73.7313 32.5775 73.2275 30.6955 73.2275 28.6425V27.787C73.2275 23.5099 75.2424 20.0882 78.9363 18.0351C80.6154 17.0086 82.4624 16.4954 84.4772 16.4954H85.3168C87.8354 16.6665 90.354 17.693 92.3688 19.5749Z" fill="#181433"/>
</svg>
