<svg width="50" height="50" viewBox="0 0 50 50" fill="none" xmlns="http://www.w3.org/2000/svg">
<g clip-path="url(#clip0_567_777)">
<path d="M25 49.5C38.531 49.5 49.5 38.531 49.5 25C49.5 11.469 38.531 0.5 25 0.5C11.469 0.5 0.5 11.469 0.5 25C0.5 38.531 11.469 49.5 25 49.5Z" fill="#181433"/>
<path opacity="0.1" d="M8.01876 7.39062C5.52816 9.61003 3.51704 12.3147 2.10869 15.3388C0.700334 18.363 -0.0755854 21.6429 -0.171509 24.9775C-0.267434 28.3121 0.318658 31.6312 1.55084 34.7313C2.78302 37.8314 4.63534 40.6472 6.99424 43.0061C9.35315 45.365 12.1689 47.2173 15.269 48.4495C18.3691 49.6817 21.6882 50.2678 25.0228 50.1718C28.3575 50.0759 31.6374 49.3 34.6615 47.8916C37.6856 46.4833 40.3903 44.4722 42.6097 41.9816L8.01876 7.39062Z" fill="#ECECFF"/>
<path d="M6.16556 29.02C6.02265 29.0222 5.88082 28.9948 5.74904 28.9395C5.61725 28.8841 5.49838 28.8021 5.39994 28.6984C5.29879 28.5985 5.21885 28.4792 5.16491 28.3476C5.11098 28.2161 5.08414 28.075 5.08603 27.9328C5.08501 27.7908 5.11223 27.6499 5.16612 27.5185C5.22001 27.387 5.29949 27.2676 5.39994 27.1672C5.49742 27.0618 5.61593 26.978 5.74781 26.9213C5.8797 26.8646 6.02201 26.8362 6.16556 26.838C6.3089 26.8376 6.45079 26.8666 6.58247 26.9233C6.71416 26.9799 6.83284 27.0629 6.93119 27.1672C7.03336 27.2667 7.11449 27.3858 7.16973 27.5173C7.22497 27.6489 7.2532 27.7902 7.25275 27.9328C7.25409 28.0756 7.22625 28.2171 7.17096 28.3488C7.11567 28.4804 7.03408 28.5994 6.93119 28.6984C6.8319 28.801 6.71288 28.8823 6.58129 28.9376C6.4497 28.9929 6.30828 29.0209 6.16556 29.02Z" fill="#ECECFF"/>
<path d="M21.379 28.8284H19.3731L12.1992 17.6962C12.0205 17.422 11.8716 17.1294 11.7551 16.8234H11.6939C11.762 17.459 11.7876 18.0985 11.7704 18.7375V28.8284H10.1396V14.8711H12.2604L19.2429 25.8042C19.5339 26.2585 19.7227 26.5698 19.8095 26.7383H19.8478C19.767 26.0575 19.7337 25.3718 19.7482 24.6864V14.8711H21.379V28.8284Z" fill="#ECECFF"/>
<path d="M32.4189 28.8284H25V14.8711H32.0744V16.3488H26.6691V20.9884H31.7069V22.4584H26.6691V27.2972H32.4266L32.4189 28.8284Z" fill="#ECECFF"/>
<path d="M43.3753 16.3488H39.3175V28.8284H37.6867V16.3488H33.6748V14.8711H43.3753V16.3488Z" fill="#ECECFF"/>
<path d="M20.4983 38.322C19.9455 38.5897 19.3358 38.7184 18.722 38.6971C18.3142 38.7155 17.9071 38.6464 17.5281 38.4946C17.1491 38.3427 16.807 38.1116 16.5247 37.8167C15.9621 37.1869 15.6657 36.3636 15.6978 35.5198C15.6772 35.0629 15.7486 34.6066 15.9077 34.1778C16.0669 33.7491 16.3105 33.3566 16.6242 33.0238C16.9299 32.7107 17.2974 32.4645 17.7034 32.3011C18.1094 32.1377 18.5449 32.0605 18.9823 32.0745C19.5058 32.0566 20.0273 32.1478 20.5136 32.3424V33.1081C20.0454 32.8489 19.5174 32.7169 18.9823 32.7252C18.645 32.7157 18.3096 32.7792 17.999 32.9114C17.6885 33.0435 17.4102 33.2412 17.1831 33.4909C16.7056 34.0348 16.4585 34.7432 16.494 35.4662C16.4583 36.151 16.6887 36.8231 17.1372 37.342C17.3523 37.5733 17.6149 37.7553 17.9069 37.8755C18.199 37.9958 18.5136 38.0515 18.8292 38.0387C19.4171 38.0541 19.9976 37.9056 20.5059 37.6099L20.4983 38.322Z" fill="#ECECFF"/>
<path d="M23.6295 38.697C23.3247 38.7068 23.0214 38.6511 22.74 38.5335C22.4587 38.416 22.2058 38.2393 21.9987 38.0156C21.58 37.5484 21.3627 36.9348 21.3938 36.3082C21.3747 35.98 21.4211 35.6512 21.5302 35.341C21.6392 35.0308 21.8089 34.7454 22.0293 34.5014C22.2542 34.2818 22.5218 34.1108 22.8155 33.9989C23.1092 33.8869 23.4227 33.8365 23.7367 33.8506C24.0334 33.8348 24.3301 33.8834 24.6063 33.9931C24.8825 34.1028 25.1317 34.2709 25.3368 34.486C25.7437 34.9764 25.949 35.6032 25.911 36.2393C25.9432 36.8849 25.7205 37.5173 25.2909 38.0003C25.0798 38.2284 24.8223 38.4086 24.5357 38.5288C24.2491 38.649 23.9401 38.7063 23.6295 38.697ZM23.6831 34.509C23.4725 34.5001 23.2626 34.5389 23.069 34.6224C22.8755 34.7059 22.7033 34.832 22.5653 34.9914C22.2707 35.3707 22.1237 35.8441 22.1518 36.3235C22.1251 36.7888 22.2725 37.2473 22.5653 37.6098C22.7047 37.7668 22.8774 37.8909 23.0707 37.973C23.264 38.0551 23.4732 38.0932 23.6831 38.0845C23.8885 38.0966 24.094 38.0615 24.2838 37.9819C24.4736 37.9022 24.6426 37.7802 24.7779 37.6251C25.0563 37.2447 25.1918 36.7785 25.1607 36.3082C25.191 35.8356 25.0556 35.3673 24.7779 34.9837C24.6445 34.8254 24.4762 34.7001 24.2862 34.6177C24.0963 34.5354 23.8898 34.4982 23.6831 34.509Z" fill="#ECECFF"/>
<path d="M29.4861 34.7384C29.3207 34.6301 29.1244 34.579 28.9272 34.5929C28.773 34.5985 28.6225 34.642 28.489 34.7194C28.3554 34.7968 28.243 34.9059 28.1616 35.037C27.9337 35.3978 27.824 35.8206 27.8477 36.2467V38.5895H27.082V33.9957H27.8477V34.9528C27.9318 34.6567 28.0992 34.3909 28.33 34.1871C28.5297 34.0139 28.7853 33.9187 29.0497 33.9192C29.1977 33.9125 29.3456 33.9333 29.4861 33.9804V34.7384Z" fill="#ECECFF"/>
<path d="M33.9734 36.4847H30.7348C30.7131 36.9127 30.8524 37.3334 31.1253 37.6638C31.2672 37.8053 31.4374 37.9153 31.6247 37.9866C31.8121 38.0578 32.0123 38.0887 32.2124 38.0772C32.7315 38.0721 33.2334 37.8913 33.6365 37.5643V38.2533C33.1631 38.5653 32.6026 38.7182 32.0364 38.6897C31.7507 38.7042 31.4653 38.6554 31.2006 38.5469C30.9359 38.4383 30.6985 38.2728 30.5051 38.0619C30.1065 37.5648 29.9073 36.937 29.9462 36.301C29.9187 35.6634 30.1349 35.0392 30.551 34.5554C30.7404 34.3366 30.976 34.1627 31.2408 34.0462C31.5057 33.9297 31.7931 33.8734 32.0823 33.8816C32.3434 33.867 32.6045 33.9117 32.8458 34.0125C33.0872 34.1133 33.3025 34.2675 33.4757 34.4635C33.8283 34.9284 34.0021 35.5043 33.9657 36.0866L33.9734 36.4847ZM33.2078 35.8646C33.2233 35.5098 33.115 35.1607 32.9015 34.8769C32.7967 34.7586 32.6666 34.6654 32.5207 34.6044C32.3749 34.5434 32.2172 34.5162 32.0593 34.5247C31.8946 34.5227 31.7312 34.555 31.5796 34.6196C31.428 34.6842 31.2915 34.7797 31.1789 34.8999C30.9269 35.1665 30.7683 35.5077 30.7271 35.8722L33.2078 35.8646Z" fill="#ECECFF"/>
</g>
<defs>
<clipPath id="clip0_567_777">
<rect width="49" height="49" fill="white" transform="translate(0.5 0.5)"/>
</clipPath>
</defs>
</svg>
