<svg width="51" height="77" viewBox="0 0 51 77" fill="none" xmlns="http://www.w3.org/2000/svg">
<g clip-path="url(#clip0_567_887)">
<path d="M25.3749 63.8327C25.3749 70.7572 19.8304 76.3743 13.0024 76.3743C6.17438 76.3743 0.629883 70.7572 0.629883 63.8327C0.629883 56.9081 6.17438 51.291 13.0024 51.291H25.3749V63.8327Z" fill="#181433" stroke="#ECECFF" stroke-width="0.25"/>
<path d="M0.629883 38.5006C0.629883 31.5761 6.17438 25.959 13.0024 25.959H25.3749V51.0423H13.0024C6.17438 51.0423 0.629883 45.4252 0.629883 38.5006Z" fill="#181433" stroke="#ECECFF" stroke-width="0.25"/>
<path d="M0.629883 13.1667C0.629883 6.24211 6.17438 0.625 13.0024 0.625H25.3749V25.7083H13.0024C6.17438 25.7083 0.629883 20.0912 0.629883 13.1667Z" fill="#181433" stroke="#ECECFF" stroke-width="0.25"/>
<path d="M25.625 0.625H37.9975C44.8255 0.625 50.37 6.24211 50.37 13.1667C50.37 20.0912 44.8255 25.7083 37.9975 25.7083H25.625V0.625Z" fill="#181433" stroke="#ECECFF" stroke-width="0.25"/>
<path d="M50.37 38.5006C50.37 45.4252 44.8255 51.0423 37.9975 51.0423C31.1695 51.0423 25.625 45.4252 25.625 38.5006C25.625 31.5761 31.1695 25.959 37.9975 25.959C44.8255 25.959 50.37 31.5761 50.37 38.5006Z" fill="#181433" stroke="#ECECFF" stroke-width="0.25"/>
</g>
<defs>
<clipPath id="clip0_567_887">
<rect width="50" height="76" fill="white" transform="translate(0.5 0.5)"/>
</clipPath>
</defs>
</svg>
