<svg width="62" height="75" viewBox="0 0 62 75" fill="none" xmlns="http://www.w3.org/2000/svg">
<g clip-path="url(#clip0_567_880)">
<path d="M12.1263 49.0462L0.5 37.497L38.2504 0H61.5L12.1263 49.0462ZM61.5 34.6021H38.2504L29.5414 43.2534L41.1677 54.8026" fill="#0B569D" fill-opacity="0.91"/>
<path d="M29.541 66.3489L38.2501 75.0002H61.4996L41.1673 54.8027" fill="#181433"/>
<path d="M17.9424 54.8094L29.5504 43.2754L41.1584 54.8064L29.5504 66.3404L17.9424 54.8094Z" fill="#213359"/>
<path d="M29.5508 66.3396L41.1588 54.8086L42.7791 56.4182L31.1711 67.9492L29.5508 66.3396Z" fill="url(#paint0_linear_567_880)"/>
<path d="M29.541 66.348L46.7913 60.4279L41.1673 54.7988" fill="url(#paint1_linear_567_880)"/>
</g>
<defs>
<linearGradient id="paint0_linear_567_880" x1="35.357" y1="60.572" x2="36.9667" y2="62.1924" gradientUnits="userSpaceOnUse">
<stop offset="0.2" stop-opacity="0.15"/>
<stop offset="0.85" stop-color="#616161" stop-opacity="0.01"/>
</linearGradient>
<linearGradient id="paint1_linear_567_880" x1="29.5451" y1="60.5738" x2="46.7951" y2="60.5738" gradientUnits="userSpaceOnUse">
<stop offset="0.2" stop-opacity="0.55"/>
<stop offset="0.85" stop-color="#616161" stop-opacity="0.01"/>
</linearGradient>
<clipPath id="clip0_567_880">
<rect width="61" height="75" fill="white" transform="translate(0.5)"/>
</clipPath>
</defs>
</svg>
