<svg width="146" height="39" viewBox="0 0 146 39" fill="none" xmlns="http://www.w3.org/2000/svg">
<g clip-path="url(#clip0_567_728)">
<path d="M86.5539 16.7876H90.4069V30.354H86.5539V28.5904C85.1779 30.6254 83.389 30.761 82.2882 30.761C78.0224 30.761 75.2702 27.5051 75.2702 23.5708C75.2702 19.5009 78.0224 16.3807 82.0129 16.3807C83.1138 16.3807 85.1779 16.5163 86.4163 18.5513V16.7876H86.5539ZM79.3984 23.5708C79.3984 25.7415 80.9121 27.3694 83.2514 27.3694C85.4531 27.3694 87.1044 25.7415 87.1044 23.5708C87.1044 21.4002 85.5907 19.7722 83.2514 19.7722C81.0497 19.7722 79.3984 21.4002 79.3984 23.5708ZM97.9752 20.0436V30.354H94.1223V20.0436H92.6086V16.7876H94.1223V12.1751H97.9752V16.7876H100.59V20.0436H97.9752ZM109.672 20.0436C108.709 19.2296 107.883 19.0939 107.47 19.0939C106.507 19.0939 105.956 19.5009 105.956 20.1792C105.956 20.5862 106.094 20.9932 107.195 21.4002L108.158 21.6715C109.259 22.0785 110.91 22.4855 111.598 23.5708C112.011 24.1135 112.286 24.9275 112.286 25.8771C112.286 27.0981 111.873 28.3191 110.773 29.2687C109.672 30.2184 108.296 30.761 106.644 30.761C103.755 30.761 102.241 29.4044 101.278 28.4547L103.342 26.1485C104.168 26.9624 105.268 27.7764 106.369 27.7764C107.47 27.7764 108.296 27.2338 108.296 26.2841C108.296 25.4701 107.608 25.0631 107.057 24.9275L106.232 24.6561C105.268 24.2492 104.168 23.8422 103.342 23.0282C102.654 22.3499 102.241 21.5359 102.241 20.4506C102.241 19.0939 102.929 18.0086 103.617 17.3303C104.718 16.5163 106.094 16.3807 107.195 16.3807C108.158 16.3807 109.809 16.5163 111.598 17.873L109.672 20.0436ZM118.066 18.5513C119.442 16.652 121.368 16.3807 122.469 16.3807C126.46 16.3807 129.212 19.5009 129.212 23.5708C129.212 27.6408 126.46 30.761 122.332 30.761C121.506 30.761 119.442 30.6254 117.928 28.5904V30.354H114.213V7.5625H118.066V18.5513ZM117.653 23.5708C117.653 25.7415 119.167 27.3694 121.506 27.3694C123.708 27.3694 125.359 25.7415 125.359 23.5708C125.359 21.4002 123.845 19.7722 121.506 19.7722C119.167 19.7722 117.653 21.4002 117.653 23.5708ZM135.542 28.3191L128.937 16.7876H133.478L137.743 24.5205L141.596 16.7876H146L134.991 37.5442H130.588L135.542 28.3191ZM74.307 19.0939H64.6746V22.8925H69.766C68.9404 25.4701 67.0139 27.2338 63.4361 27.2338C59.4456 27.2338 56.5558 23.9778 56.5558 20.0436C56.5558 16.1093 59.3079 12.7177 63.2985 12.7177C65.5002 12.7177 67.7019 13.803 69.078 15.5667L72.2429 13.5317C70.1788 10.6828 66.8763 9.0548 63.2985 9.0548C57.2439 9.0548 52.29 13.9387 52.29 20.0436C52.29 26.1485 56.9686 31.0324 63.2985 31.0324C69.6284 31.0324 74.307 26.1485 74.307 20.0436C74.4446 19.6366 74.307 19.3653 74.307 19.0939Z" fill="#181433"/>
<path d="M34.4013 19.4992H24.7688V22.2125H31.3739C30.4107 26.2824 27.3834 29.674 23.3928 31.0306L7.56808 15.4293C9.21935 10.681 13.898 7.28945 19.2646 7.28945C23.3928 7.28945 27.1081 9.32441 29.4474 12.4447L31.5115 10.681C28.7594 7.01812 24.356 4.57617 19.2646 4.57617C12.1091 4.57617 6.05441 9.59574 4.54075 16.2433L22.7047 34.1509C29.3098 32.5229 34.4013 26.5537 34.4013 19.4992ZM4.12793 19.6349C4.12793 23.4335 5.6416 27.0964 8.53132 29.9453C11.421 32.7943 15.274 34.2866 18.9894 34.2866L4.12793 19.6349Z" fill="white"/>
<path d="M19.2648 0.507812C8.66918 0.507812 0 9.05464 0 19.5008C0 29.9469 8.66918 38.4937 19.2648 38.4937C29.8605 38.4937 38.5297 29.9469 38.5297 19.5008C38.5297 9.05464 29.8605 0.507812 19.2648 0.507812ZM8.53157 30.0825C5.64185 27.2336 4.12818 23.435 4.12818 19.7721L19.1272 34.4238C15.2743 34.2881 11.4213 32.9315 8.53157 30.0825ZM22.5674 34.0168L4.541 16.2448C6.05467 9.59729 12.1093 4.57773 19.2648 4.57773C24.3563 4.57773 28.7597 7.01968 31.5118 10.6826L29.4477 12.4462C27.1084 9.32597 23.393 7.29101 19.2648 7.29101C13.8982 7.29101 9.35721 10.6826 7.56833 15.4308L23.393 31.0322C27.3836 29.6755 30.4109 26.284 31.3742 22.214H24.7691V19.5008H34.4015C34.4015 26.5553 29.3101 32.5245 22.5674 34.0168Z" fill="#181433"/>
</g>
<defs>
<clipPath id="clip0_567_728">
<rect width="146" height="38" fill="white" transform="translate(0 0.5)"/>
</clipPath>
</defs>
</svg>
