<svg width="184" height="63" viewBox="0 0 184 63" fill="none" xmlns="http://www.w3.org/2000/svg">
<path d="M16.4887 60.2173L1.11639 33.7893C0.294536 32.3771 0.294536 30.6345 1.11639 29.2222L16.4887 2.78272C17.3089 1.37212 18.8245 0.503303 20.4815 0.5H51.2479C52.8832 0.508259 54.3922 1.37543 55.2074 2.78272L70.5964 29.2239C71.4182 30.6361 71.4182 32.3787 70.5964 33.791L55.1908 60.2173C54.3706 61.6279 52.855 62.4967 51.1979 62.5H20.4366C18.7996 62.495 17.289 61.6246 16.4688 60.2173H16.4887Z" fill="#181433"/>
<path opacity="0.1" d="M45.4454 22.9609C45.4454 22.9609 49.721 33.139 43.8931 38.9102C38.0653 44.6814 27.4561 40.9865 27.4561 40.9865L49.0389 62.4972H51.2299C52.8703 62.4939 54.3859 61.625 55.2228 60.2145L65.4011 42.7158L45.4454 22.9609Z" fill="#81DCF0"/>
<path d="M50.4944 43.8073L45.7696 39.1378C45.7189 39.0854 45.6605 39.0409 45.5965 39.0057C47.593 36.4376 48.5285 33.2106 48.2127 29.9817C47.8968 26.7529 46.3533 23.7649 43.8964 21.6263C41.4395 19.4876 38.254 18.3591 34.9885 18.4704C31.7229 18.5817 28.6229 19.9246 26.3196 22.2256C21.5398 27.0074 21.3285 34.6682 25.8404 39.6845C28.0158 42.1055 31.0378 43.6135 34.2926 43.9022C37.5473 44.1909 40.7908 43.2386 43.3639 41.2388C43.3982 41.2989 43.4401 41.3545 43.4887 41.404L48.2135 46.095C48.282 46.1631 48.3635 46.217 48.4532 46.2535C48.5428 46.2901 48.6389 46.3086 48.7359 46.308C48.9314 46.3074 49.1188 46.231 49.2583 46.095L50.511 44.8512C50.5796 44.7832 50.6339 44.7023 50.6707 44.6132C50.7076 44.5242 50.7262 44.4288 50.7256 44.3325C50.725 44.1385 50.648 43.9523 50.511 43.8139L50.4944 43.8073ZM35.4431 40.7747C33.532 40.7742 31.6639 40.2112 30.0749 39.157C28.486 38.1027 27.2474 36.6044 26.5159 34.8515C25.0186 31.2672 25.8471 27.1379 28.6121 24.3959C29.964 23.0553 31.6857 22.1425 33.5599 21.7728C35.4341 21.4032 37.3765 21.5934 39.1419 22.3193C40.9072 23.0453 42.4163 24.2744 43.4783 25.8514C44.5404 27.4284 45.1079 29.2826 45.1091 31.1797C45.1058 36.4768 40.7835 40.7697 35.4465 40.773L35.4431 40.7747ZM29.2676 30.6676V34.6318C29.8831 35.7104 30.7732 36.6073 31.8496 37.2366V30.6594L29.2676 30.6676ZM34.0922 27.3807V38.0955C34.9457 38.2508 35.8225 38.2508 36.6743 38.0955V27.3641L34.0922 27.3807ZM41.5655 34.6269V32.2814H38.9834V37.2267C40.0582 36.5991 40.9466 35.7071 41.5655 34.6302V34.6269Z" fill="#ECECFF"/>
<path d="M107.955 14.2422H96.2924V17.6812H104.581C104.168 22.5109 100.122 24.5689 96.309 24.5689C93.8884 24.5855 91.5592 23.644 89.8373 21.9542C88.1154 20.2645 87.1422 17.962 87.1355 15.5587V15.4034C87.0939 12.9687 88.0406 10.6199 89.7608 8.88725C91.4811 7.15457 93.8335 6.17839 96.2857 6.18665C98.6199 6.18995 100.861 7.0918 102.538 8.70556L104.967 6.22298C102.612 3.96498 99.4507 2.72798 96.1776 2.78405C93.9009 2.73653 91.653 3.29554 89.6677 4.40293C87.6824 5.51032 86.0322 7.12563 84.8889 9.08083C83.7455 11.036 83.1507 13.2597 83.1663 15.5205C83.1819 17.7813 83.8074 19.9966 84.9778 21.9361C86.1496 23.875 87.8234 25.4668 89.825 26.5457C91.8266 27.6245 94.0828 28.1511 96.3589 28.0706C103.153 28.0574 108.171 23.421 108.171 16.5613C108.186 15.7943 108.114 15.0281 107.958 14.2769L107.955 14.2422ZM117.549 11.7596C116.485 11.7377 115.426 11.9249 114.434 12.3102C113.443 12.6956 112.538 13.2716 111.771 14.0052C111.004 14.7388 110.391 15.6156 109.967 16.5851C109.542 17.5547 109.315 18.5979 109.297 19.655V19.8284C109.271 24.3377 112.932 28.0145 117.474 28.0409C122.016 28.0673 125.719 24.4319 125.746 19.9226C125.746 14.5379 121.487 11.7596 117.566 11.7596H117.549ZM117.594 14.964C119.951 14.964 122.169 16.8272 122.169 19.9292C122.169 23.0312 119.943 24.858 117.569 24.858C114.957 24.858 112.911 22.7933 112.911 19.8928C112.911 16.9924 114.922 14.9756 117.574 14.9756L117.594 14.964ZM135.415 11.7596C134.353 11.741 133.297 11.9306 132.308 12.3174C131.32 12.7043 130.417 13.2808 129.653 14.0141C128.889 14.7474 128.278 15.623 127.855 16.591C127.432 17.5589 127.206 18.6001 127.188 19.655V19.8284C127.162 24.3377 130.824 28.0145 135.365 28.0409C139.907 28.0673 143.611 24.4319 143.637 19.9226C143.637 14.5544 139.373 11.7679 135.424 11.7679L135.415 11.7596ZM135.465 14.964C137.823 14.964 140.04 16.8272 140.04 19.9292C140.04 23.0312 137.814 24.858 135.44 24.858C132.828 24.858 130.782 22.7933 130.782 19.8928C130.782 16.9924 132.793 14.9756 135.444 14.9756L135.465 14.964ZM152.967 11.7596C148.592 11.7596 145.11 15.5818 145.11 19.8862C145.043 24.2469 148.5 27.8642 152.892 28.0244C153.745 28.0688 154.597 27.9118 155.377 27.5665C156.157 27.2211 156.844 26.6971 157.381 26.0373V27.6445C157.381 30.4525 155.667 32.1373 153.08 32.1373C151.22 32.1141 149.562 30.9678 148.891 29.2467L145.763 30.5384C146.873 32.8789 149.102 35.3483 153.1 35.3483C157.476 35.3483 160.82 32.6113 160.82 26.8748V12.2568H157.382V13.6228C156.824 13.0172 156.14 12.5375 155.379 12.2161C154.618 11.8947 153.796 11.7391 152.969 11.7596H152.967ZM153.287 14.931C155.443 14.931 157.662 16.7611 157.662 19.8962C157.662 23.0312 155.449 24.7936 153.237 24.7936C150.879 24.7936 148.711 22.9304 148.711 19.9044C148.711 16.7991 150.981 14.9393 153.295 14.9393L153.287 14.931ZM176.079 11.7596C171.928 11.7596 168.453 15.0367 168.453 19.878C168.414 20.9434 168.594 22.0054 168.982 22.9995C169.37 23.9936 169.957 24.8991 170.709 25.6607C171.46 26.4224 172.359 27.0244 173.352 27.4302C174.345 27.836 175.411 28.037 176.485 28.0211C177.837 28.0273 179.17 27.7055 180.368 27.0837C181.567 26.462 182.594 25.559 183.361 24.4533L180.529 22.5902C179.697 23.9941 178.173 24.8448 176.536 24.825C175.694 24.8577 174.861 24.6386 174.146 24.1959C173.43 23.7533 172.865 23.1076 172.524 22.3424L183.5 17.8249L182.946 16.5035C181.865 13.6823 179.16 11.8026 176.12 11.7629L176.079 11.7596ZM176.224 14.8649C177.488 14.8121 178.669 15.4893 179.256 16.6026L171.908 19.6583C171.589 17.2996 173.838 14.8781 176.209 14.8781L176.224 14.8649ZM163.207 27.5404H166.812V3.58514H163.205L163.207 27.5404ZM83.8531 55.1246V39.4215H89.5795C90.7777 39.3967 91.9372 39.8432 92.8053 40.6636C93.6904 41.4316 94.1862 42.5499 94.1562 43.7193C94.1923 44.4194 94.0043 45.1129 93.6191 45.7004C93.2338 46.2879 92.6712 46.7392 92.0118 46.9898V47.0773C92.7887 47.3185 93.4708 47.7991 93.9549 48.4483C94.4399 49.091 94.6967 49.8751 94.6853 50.6781C94.7152 51.8955 94.2095 53.0649 93.2994 53.8825C92.3757 54.7154 91.1629 55.1606 89.9155 55.1246H83.8697H83.8531ZM85.8828 41.3573V46.1755H89.5712C89.9071 46.1847 90.2414 46.125 90.5531 46.0003C90.8648 45.8755 91.1473 45.6883 91.3829 45.4503C92.3179 44.5584 92.3545 43.0883 91.4661 42.1551L91.4029 42.0923C90.9503 41.6166 90.3165 41.3524 89.6593 41.3656H85.9111L85.8828 41.3573ZM85.8828 48.0551V53.2086H89.9754C91.4128 53.2218 92.5907 52.0788 92.6074 50.6484C92.6087 50.3117 92.5404 49.9784 92.4067 49.669C92.2731 49.3596 92.0769 49.0808 91.8304 48.8496C91.5764 48.5966 91.2731 48.3977 90.9389 48.2651C90.6048 48.1324 90.247 48.0689 89.8873 48.0783H85.8778L85.8828 48.0551ZM99.2637 40.6768C99.2627 41.0056 99.1469 41.3239 98.9359 41.5774C98.725 41.8309 98.4319 42.0039 98.1069 42.0668C97.7818 42.1298 97.4448 42.0788 97.1533 41.9226C96.8619 41.7664 96.634 41.5147 96.5087 41.2103C96.3817 40.9062 96.365 40.5678 96.4615 40.2529C96.558 39.938 96.7617 39.6661 97.0377 39.4837C97.3137 39.3014 97.6449 39.2198 97.9748 39.2531C98.3047 39.2863 98.6126 39.4322 98.8461 39.6659C99.1206 39.9302 99.272 40.2969 99.2654 40.6784L99.2637 40.6768ZM98.8445 44.3998V55.1362H96.8065V44.3998H98.8445ZM106.165 60.2269C105.589 60.2318 105 60.1542 104.464 59.9956C103.953 59.8589 103.465 59.6497 103.014 59.3746C102.588 59.0967 102.208 58.7552 101.887 58.362C101.581 57.9921 101.343 57.5692 101.182 57.1199L103.123 56.3271C103.332 56.9421 103.736 57.4735 104.275 57.8417C104.824 58.2216 105.481 58.4199 106.151 58.4133C107.116 58.4678 108.06 58.111 108.74 57.4255C109.394 56.674 109.728 55.6994 109.672 54.7067V53.6463H109.583C109.192 54.2228 108.655 54.6871 108.026 54.9925C107.364 55.3228 106.634 55.493 105.897 55.488C104.496 55.4946 103.163 54.8934 102.247 53.8429C101.247 52.7217 100.709 51.2682 100.739 49.7713C100.702 48.2773 101.238 46.825 102.24 45.7097C103.15 44.6459 104.486 44.0348 105.89 44.0414C106.63 44.0367 107.361 44.2071 108.021 44.5386C108.65 44.844 109.187 45.3082 109.578 45.8848H109.667V44.3767H111.61V54.6671C111.693 56.1652 111.161 57.632 110.129 58.7271C109.604 59.2222 108.985 59.6079 108.307 59.8615C107.63 60.1151 106.908 60.2315 106.185 60.2037L106.165 60.2269ZM106.235 53.6414C106.698 53.6537 107.158 53.5638 107.581 53.3782C108.005 53.1925 108.382 52.9157 108.685 52.5677C109.326 51.7758 109.675 50.7904 109.675 49.7746C109.675 48.7588 109.326 47.7734 108.685 46.9815C108.078 46.2663 107.176 45.8633 106.235 45.8831C105.295 45.8699 104.396 46.2729 103.784 46.9815C103.09 47.7529 102.747 48.7704 102.789 49.7796C102.746 50.801 103.103 51.7993 103.784 52.5661C104.399 53.2697 105.295 53.6694 106.235 53.6562V53.6414ZM132.709 55.1329L131.108 56.1619L130.022 54.5597C128.842 55.1463 127.541 55.4544 126.222 55.4599C124.059 55.5062 121.943 54.644 120.432 53.0814C117.305 49.8076 117.305 44.679 120.432 41.4069C121.191 40.649 122.094 40.0476 123.088 39.6372C124.082 39.2268 125.148 39.0156 126.224 39.0156C127.301 39.0156 128.367 39.2268 129.361 39.6372C130.355 40.0476 131.257 40.649 132.016 41.4069C132.784 42.1672 133.388 43.0748 133.791 44.0744C134.194 45.074 134.388 46.1446 134.361 47.221C134.368 48.4048 134.123 49.5767 133.642 50.66C133.174 51.727 132.484 52.6835 131.617 53.4663L132.709 55.1329ZM126.234 53.5307C127.158 53.5305 128.069 53.3179 128.897 52.9096L127.054 50.1578L128.654 49.0842L130.484 51.8261C131.09 51.2335 131.565 50.5214 131.877 49.7356C132.189 48.9498 132.332 48.1079 132.296 47.264C132.358 45.5924 131.742 43.9687 130.552 42.7712C129.999 42.1927 129.33 41.7359 128.588 41.4304C127.846 41.1248 127.048 40.9772 126.245 40.9972C125.439 40.9778 124.637 41.1256 123.891 41.431C123.145 41.7364 122.471 42.1929 121.913 42.7712C119.617 45.3314 119.617 49.213 121.913 51.7567C122.472 52.3397 123.148 52.7999 123.898 53.1078C124.647 53.4156 125.453 53.5641 126.263 53.5439L126.234 53.5307ZM145.923 55.1213H143.977V53.6182H143.888C143.544 54.1798 143.052 54.6374 142.463 54.9396C141.852 55.2827 141.163 55.4641 140.461 55.4665C139.899 55.5023 139.336 55.4201 138.809 55.2254C138.281 55.0308 137.8 54.728 137.398 54.3367C136.636 53.4448 136.254 52.2886 136.337 51.1224V44.3701H138.367V50.9771C138.413 52.7389 139.301 53.6199 141.029 53.6199C141.419 53.6205 141.804 53.5326 142.155 53.3629C142.506 53.1931 142.813 52.946 143.053 52.6404C143.602 51.9841 143.893 51.1528 143.873 50.2999V44.3767H145.903V55.1131L145.923 55.1213ZM153.15 55.4748C151.666 55.5177 150.234 54.9248 149.217 53.8495C148.177 52.7379 147.623 51.2628 147.673 49.7465C147.627 48.2434 148.169 46.7767 149.184 45.6585C149.681 45.1488 150.274 44.7419 150.931 44.4614C151.587 44.1809 152.293 44.0323 153.007 44.0241C153.721 44.016 154.43 44.1485 155.093 44.414C155.755 44.6795 156.358 45.0727 156.867 45.5709C157.892 46.78 158.404 48.3392 158.293 49.915V50.133H149.779C149.774 50.6062 149.865 51.0756 150.048 51.5128C150.23 51.95 150.5 52.346 150.841 52.6767C151.23 53.0538 151.705 53.3333 152.225 53.4923C152.744 53.6513 153.295 53.6852 153.831 53.5911C154.366 53.497 154.872 53.2776 155.305 52.9512C155.738 52.6248 156.087 52.2006 156.323 51.7138L158.136 52.5892C157.674 53.4696 156.975 54.2079 156.116 54.7199C155.225 55.2353 154.208 55.4963 153.178 55.4764L153.15 55.4748ZM149.899 48.4549H156.105C156.062 47.7364 155.73 47.0674 155.185 46.5917C154.564 46.0962 153.771 45.8187 152.965 45.86C152.243 45.8435 151.54 46.0945 150.989 46.5603C150.423 47.0509 150.041 47.7165 149.894 48.4483L149.899 48.4549ZM162.171 55.1213H160.141V44.385H162.084V46.1408H162.172C162.41 45.5296 162.866 45.0143 163.423 44.6823C163.977 44.3024 164.626 44.0876 165.3 44.0629C165.813 44.0508 166.324 44.1418 166.801 44.3305L166.177 46.2861C165.793 46.1565 165.388 46.1038 164.984 46.1309C164.212 46.1342 163.481 46.4711 162.982 47.0558C162.432 47.6366 162.127 48.4055 162.132 49.2031V55.1329L162.171 55.1213ZM178.064 44.385L171.292 59.9031H169.191L171.692 54.4854L167.255 44.3883H169.467L172.695 52.1151H172.74L175.868 44.3883H178.064V44.385Z" fill="#181433"/>
</svg>
