<svg width="113" height="47" viewBox="0 0 113 47" fill="none" xmlns="http://www.w3.org/2000/svg">
<g clip-path="url(#clip0_567_810)">
<path d="M67.4304 16.191C64.9817 16.191 63.1582 17.3865 63.1582 20.264C63.1582 22.4319 64.3601 23.9371 67.2983 23.9371C69.789 23.9371 71.4808 22.4775 71.4808 20.1739C71.4808 17.5636 69.9671 16.191 67.4304 16.191ZM62.5348 36.5085C61.9551 37.2155 61.3776 37.9673 61.3776 38.8535C61.3776 40.6229 63.6465 41.1554 66.7633 41.1554C69.3445 41.1554 72.8611 40.9753 72.8611 38.5885C72.8611 37.1698 71.1693 37.0824 69.0317 36.9492L62.5348 36.5085ZM75.7092 16.3245C76.509 17.3426 77.356 18.7595 77.356 20.7952C77.356 25.7078 73.4837 28.5844 67.8767 28.5844C66.4509 28.5844 65.1603 28.4078 64.3601 28.1868L62.8905 30.5317L67.2519 30.7971C74.9528 31.2853 79.491 31.5071 79.491 37.3913C79.491 42.4823 74.997 45.3576 67.2519 45.3576C59.1963 45.3576 56.125 43.3215 56.125 39.8254C56.125 37.8337 57.0153 36.7735 58.5733 35.3104C57.1041 34.693 56.615 33.5871 56.615 32.3912C56.615 31.4166 57.1041 30.5322 57.9065 29.6903C58.7071 28.8507 59.597 28.0088 60.6654 27.0352C58.4849 25.9728 56.8372 23.6713 56.8372 20.3954C56.8372 15.3065 60.2204 11.8113 67.0288 11.8113C68.9433 11.8113 70.1009 11.9862 71.1247 12.2537H79.8047V16.0143L75.7092 16.3245ZM87.6351 8.28165C85.0976 8.28165 83.6289 6.81986 83.6289 4.2961C83.6289 1.77582 85.0971 0.402344 87.6351 0.402344C90.2163 0.402344 91.6854 1.77582 91.6854 4.2961C91.6854 6.81986 90.2168 8.28165 87.6351 8.28165ZM81.8924 34.8797V31.3849L84.1631 31.076C84.7865 30.9868 84.8749 30.8545 84.8749 30.1893V17.1768C84.8749 16.6913 84.7419 16.3798 84.2952 16.2484L81.8924 15.4066L82.3816 11.8226H91.5957V30.1893C91.5957 30.8985 91.6386 30.9868 92.3084 31.0764L94.5782 31.3853V34.8797H81.8924ZM112.179 33.1638C110.265 34.0927 107.461 34.9336 104.923 34.9336C99.6265 34.9336 97.6245 32.8114 97.6245 27.8074V16.2127C97.6245 15.9473 97.6245 15.7703 97.2671 15.7703H94.1521V11.83C98.0699 11.3862 99.6265 9.4389 100.116 4.61456H104.345V10.9011C104.345 11.21 104.345 11.3436 104.702 11.3436H110.977V15.7694H104.345V26.3469C104.345 28.9581 104.969 29.9753 107.371 29.9753C108.619 29.9753 109.908 29.6664 110.976 29.2679L112.179 33.1634" fill="#181433"/>
<path d="M46.2311 21.5477L25.8804 1.31196C25.6017 1.03473 25.2708 0.81481 24.9066 0.664768C24.5424 0.514726 24.152 0.4375 23.7578 0.4375C23.3636 0.4375 22.9733 0.514726 22.6091 0.664768C22.2449 0.81481 21.914 1.03473 21.6353 1.31196L17.4095 5.5146L22.7702 10.8449C23.4003 10.6318 24.0778 10.5985 24.726 10.7486C25.3742 10.8988 25.9672 11.2265 26.4377 11.6946C26.9108 12.1656 27.2411 12.7595 27.3909 13.4083C27.5406 14.0572 27.5039 14.7348 27.2847 15.3638L32.4503 20.5014C33.7002 20.0733 35.1427 20.3505 36.1406 21.3446C36.4724 21.6743 36.7356 22.0658 36.9152 22.4967C37.0947 22.9276 37.1871 23.3895 37.1871 23.8559C37.1871 24.3224 37.0947 24.7842 36.9152 25.2151C36.7356 25.6461 36.4724 26.0376 36.1406 26.3673C35.5569 26.9483 34.7887 27.3102 33.9668 27.3914C33.145 27.4725 32.3202 27.268 31.633 26.8125C30.9457 26.357 30.4384 25.6788 30.1975 24.8932C29.9565 24.1077 29.9967 23.2634 30.3114 22.504L25.4936 17.7131L25.4932 30.3211C25.8424 30.4928 26.1614 30.7197 26.4377 30.9928C26.7695 31.3226 27.0327 31.7142 27.2122 32.1452C27.3918 32.5762 27.4842 33.0381 27.4842 33.5046C27.4842 33.9711 27.3918 34.433 27.2122 34.864C27.0327 35.295 26.7695 35.6866 26.4377 36.0164C25.0421 37.4042 22.7802 37.4042 21.3868 36.0164C20.9705 35.6027 20.6635 35.0932 20.4929 34.5331C20.3224 33.9729 20.2937 33.3796 20.4094 32.8058C20.5251 32.232 20.7816 31.6955 21.156 31.244C21.5305 30.7926 22.0113 30.4401 22.5558 30.218V17.4926C22.1178 17.3147 21.7202 17.0511 21.3868 16.7173C20.3298 15.6675 20.0756 14.1252 20.6172 12.8344L15.3331 7.57895L1.37949 21.4538C1.10066 21.731 0.879474 22.0602 0.728571 22.4224C0.577669 22.7847 0.5 23.173 0.5 23.5651C0.5 23.9572 0.577669 24.3455 0.728571 24.7077C0.879474 25.07 1.10066 25.3992 1.37949 25.6764L21.7302 45.9126C22.2932 46.4723 23.0567 46.7867 23.8528 46.7867C24.6488 46.7867 25.4123 46.4723 25.9753 45.9126L46.2311 25.7708C46.794 25.2107 47.1103 24.4512 47.1103 23.6593C47.1103 22.8674 46.794 22.1079 46.2311 21.5477Z" fill="#181433"/>
</g>
<defs>
<clipPath id="clip0_567_810">
<rect width="112" height="47" fill="white" transform="translate(0.5)"/>
</clipPath>
</defs>
</svg>
