<svg width="209" height="45" viewBox="0 0 209 45" fill="none" xmlns="http://www.w3.org/2000/svg">
<g clip-path="url(#clip0_567_800)">
<path d="M70.5057 18.2035C72.1187 14.4738 72.0784 10.7846 71.1106 7.86567C69.9008 4.2981 64.9407 -0.404603 63.368 1.46026C63.1664 1.7035 60.3033 1.37918 59.8597 1.98729C59.1741 2.87918 59.5774 3.16296 59.9 3.48729C60.9081 4.37918 63.4487 5.35215 64.6181 8.39269C65.102 9.68999 66.2311 12.69 64.2552 14.5143C62.0373 16.5413 59.5371 17.0278 49.2943 7.46026C38.4064 -2.71541 23.8084 1.41972 18.9694 3.04134C14.1303 4.66296 11.9123 6.28459 13.8077 10.0143C16.3885 15.1224 15.5417 13.5413 18.0822 17.7576C22.0744 24.4467 30.8655 14.6765 30.8655 14.6765C24.3327 24.5684 18.7274 22.1765 16.5901 18.7305C14.6545 15.6089 13.1624 12.0413 13.1624 12.0413C-3.37112 18.0413 1.10504 44.4738 1.10504 44.4738H9.33149C11.4284 34.744 18.929 35.1089 20.1791 44.4738H26.4296C31.9542 25.4603 43.81 44.4738 43.81 44.4738H50.8267C50.8267 34.3386 49.7782 30.5278 54.9399 29.7981C63.7309 28.6224 67.8442 24.4873 70.5057 18.2035Z" fill="#181433"/>
<path d="M100.145 15.6478V19.6613C100.992 18.2018 102.927 14.8775 109.218 15.0802L109.178 22.0126C107.726 22.0532 105.186 22.0937 103.129 23.6748C100.266 25.864 100.145 28.7423 100.145 33.4045V44.0667H93.6523V15.6072L100.145 15.6478ZM111.92 24.1613C112.041 22.7423 112.162 21.364 113.049 19.7423C115.751 14.8369 122.405 14.8775 124.219 14.8775C126.921 14.8775 130.147 15.2423 132.607 16.7018C135.914 18.7288 135.954 21.4045 135.954 24.4451L135.914 39.364C135.914 41.5126 135.914 42.364 137.124 44.0667H129.179C129.139 43.3775 129.018 42.0802 129.018 41.7153C127.566 42.9315 124.582 44.5532 120.711 44.5532C114.38 44.5126 110.589 40.5802 110.589 35.7153C110.589 34.2964 110.952 32.9991 111.517 31.9045C113.533 27.8505 117.848 26.9586 120.55 26.4721C129.704 24.9315 129.179 24.0396 129.018 22.6613C128.897 21.364 127.566 20.1478 124.461 20.1478C121.679 20.1478 120.146 21.0396 119.461 21.9315C118.735 22.8234 118.775 23.391 118.775 24.2018L111.92 24.1613ZM129.179 29.8775C127.849 30.5667 126.316 31.0532 123.292 31.5396C120.872 31.864 117.687 32.4315 117.687 35.391C117.687 37.5802 119.541 38.7153 122.203 38.7153C125.631 38.7153 128.05 37.1748 128.776 35.4721C129.179 34.6207 129.179 33.7694 129.179 32.9586V29.8775ZM166.037 4.25586L165.916 44.0667H159.262V41.3099C157.165 43.8234 154.383 44.8369 151.479 44.8369C144.826 44.7964 139.059 39.7694 139.099 30.4856C139.14 22.0937 143.858 14.9586 151.883 14.9991C154.625 14.9991 157.165 15.8099 159.303 18.1613V4.25586H166.037ZM157.73 23.8369C156.722 22.2964 155.068 21.2423 152.81 21.2423C148.253 21.2423 146.076 25.3369 146.076 29.7964C146.076 30.3234 146.116 38.7559 152.649 38.7559C156.117 38.7559 159.262 36.2018 159.222 30.1207C159.141 28.2964 158.94 25.7018 157.73 23.8369ZM177.732 4.25586L177.611 44.0667H170.836V4.25586H177.732ZM207.774 37.4586C204.669 42.9721 200.717 44.9991 194.991 44.9991C187.652 44.9586 180.595 40.2964 180.635 29.918C180.675 20.4721 186.724 15.1207 194.628 15.1613C202.008 15.2018 205.072 19.6613 205.637 20.4721C207.936 23.7559 208.419 28.6613 208.46 31.4586L187.732 31.3775C188.499 35.8369 191.241 38.391 195.677 38.391C200.274 38.391 201.483 35.6748 202.33 34.4991L207.774 37.4586ZM201.121 26.4721C200.516 22.0937 197.854 20.5532 194.87 20.5532C191.281 20.5532 188.821 22.6207 188.015 26.4315L201.121 26.4721Z" fill="#372E75"/>
<path d="M72.9649 23.2707V29.1086H82.885V35.9599C80.3445 37.5816 77.441 38.514 73.2875 38.514C66.5934 38.514 61.0688 32.8789 61.0688 24.0816C61.0688 15.4464 66.1498 9.68966 73.8924 9.68966C80.1025 9.68966 82.4414 14.8383 82.8044 16.7843H89.5791C89.5791 12.8113 84.9013 3.04102 73.2875 3.04102C60.9881 3.04102 53.7295 11.7978 53.7295 24.1221C53.7295 36.9329 62.4399 44.9599 72.8439 44.9599C88.2484 44.9599 89.5791 37.2167 89.5791 37.2167V23.2707H72.9649Z" fill="#372E75"/>
<path d="M71.7555 11.351C70.2634 11.4726 68.7714 11.7159 67.36 12.1213C67.3197 12.1618 67.2793 12.2429 67.239 12.2834C66.5938 13.0132 65.7873 13.7023 64.9001 14.1077C64.7791 14.1888 64.6582 14.2294 64.5372 14.2699L64.2952 14.5132C62.0773 16.5402 59.3755 17.0267 49.3344 7.4591C38.5674 -2.79766 23.8485 1.41856 19.0094 3.04018C14.1703 4.6618 11.9524 6.28342 13.8477 10.0132C16.4285 15.1213 15.5817 13.5402 18.1222 17.7564C22.1145 24.4456 30.9055 14.6753 30.9055 14.6753C24.3727 24.5672 18.7674 22.1753 16.6302 18.7294C14.6945 15.6077 13.2025 12.0402 13.2025 12.0402C-3.33108 18.0402 1.14508 44.4726 1.14508 44.4726H9.37153C11.4685 34.7429 18.9691 35.1077 20.2192 44.4726H26.4697C31.9943 25.4591 43.8501 44.4726 43.8501 44.4726H50.8668C50.8668 34.3375 49.8183 30.5267 54.98 29.7969C63.8113 28.5807 67.8842 24.4456 70.5457 18.2023C71.5135 15.851 71.8765 13.4996 71.7555 11.351Z" fill="#181433"/>
<path d="M41.9543 13.9863C41.9543 13.9863 45.7449 15.2431 50.826 16.9458C50.5437 18.3242 48.0032 20.9593 44.7368 19.8242C40.3816 18.4052 41.9543 13.9863 41.9543 13.9863Z" fill="#ECECFF"/>
<path d="M46.5045 18.9579C47.7668 18.823 48.6852 17.721 48.5558 16.4964C48.4263 15.2719 47.2981 14.3885 46.0357 14.5234C44.7733 14.6582 43.8549 15.7603 43.9844 16.9848C44.1138 18.2094 45.2421 19.0927 46.5045 18.9579Z" fill="#181433"/>
<path d="M59.8995 3.5267C60.1818 3.76995 60.5448 4.01319 60.9077 4.25643C62.6014 2.83751 64.8193 2.87805 66.7146 2.10778C65.0612 0.567243 62.3997 -0.608432 61.5932 0.364541C61.3916 0.607784 60.3431 1.41859 59.8995 2.0267C59.1737 2.9186 59.5366 3.20238 59.8995 3.5267Z" fill="#181433"/>
</g>
<defs>
<clipPath id="clip0_567_800">
<rect width="208" height="45" fill="white" transform="translate(0.5)"/>
</clipPath>
</defs>
</svg>
