<svg width="81" height="81" viewBox="0 0 81 81" fill="none" xmlns="http://www.w3.org/2000/svg">
<g clip-path="url(#clip0_567_867)">
<path d="M40.473 4.70853C40.16 4.71012 39.8503 4.77356 39.5619 4.89519C39.2735 5.01682 39.0119 5.19425 38.7923 5.41728L0.546752 44.2095C0.195727 44.5657 -0.000724966 45.0459 2.01047e-06 45.546C0.000894269 46.0524 0.202439 46.5377 0.560487 46.8958C0.918535 47.2538 1.4039 47.4554 1.91025 47.4563H9.01125V74.7094C9.01125 75.5869 9.72 76.2957 10.5975 76.2957H37.422V63.8655L27.1249 53.5549C26.1141 53.9847 25.0271 54.2063 23.9288 54.2063C21.7596 54.2045 19.68 53.3413 18.1471 51.8065C16.6142 50.2718 15.7536 48.1911 15.7545 46.0219C15.7555 44.8107 16.0256 43.6148 16.5453 42.5208C17.065 41.4267 17.8214 40.4619 18.7597 39.696C19.698 38.93 20.7948 38.3822 21.9708 38.0921C23.1467 37.802 24.3725 37.7768 25.5593 38.0184C26.7462 38.26 27.8645 38.7624 28.8335 39.4891C29.8024 40.2159 30.5978 41.1489 31.162 42.2207C31.7262 43.2925 32.0452 44.4762 32.0958 45.6864C32.1465 46.8965 31.9276 48.1028 31.455 49.218L37.422 55.185V37.0444C35.6631 36.3307 34.2068 35.0281 33.3022 33.3593C32.3976 31.6906 32.1009 29.7593 32.4629 27.896C32.8249 26.0326 33.823 24.3529 35.2866 23.1442C36.7502 21.9355 38.5883 21.2729 40.4865 21.2697C41.5608 21.2705 42.6245 21.483 43.6167 21.895C44.6089 22.3069 45.5103 22.9103 46.2694 23.6706C47.0284 24.4309 47.6303 25.3333 48.0406 26.3262C48.4509 27.3191 48.6616 28.3831 48.6608 29.4574C48.6612 31.087 48.1751 32.6797 47.2647 34.0314C46.3544 35.3831 45.0613 36.4322 43.551 37.0444V55.185L49.5113 49.218C49.0826 48.207 48.8622 47.12 48.8633 46.0219C48.8633 43.8531 49.7248 41.773 51.2584 40.2394C52.792 38.7058 54.872 37.8443 57.0409 37.8443C59.2097 37.8443 61.2897 38.7058 62.8233 40.2394C64.3569 41.773 65.2185 43.8531 65.2185 46.0219C65.2194 48.1911 64.3588 50.2718 62.8259 51.8065C61.293 53.3413 59.2134 54.2045 57.0443 54.2063C55.9459 54.2063 54.8589 53.9847 53.8481 53.5549L43.5544 63.8655V76.2957H70.3755C70.7962 76.2957 71.1997 76.1285 71.4971 75.831C71.7946 75.5336 71.9618 75.1301 71.9618 74.7094V47.4529H79.0898C79.5894 47.4515 80.0688 47.2553 80.4262 46.9062C80.7868 46.5511 80.9921 46.0677 80.9971 45.5617C81.0022 45.0557 80.8066 44.5683 80.4532 44.2062L71.9618 35.5223V21.84C71.9618 20.9625 71.253 20.2437 70.3755 20.2437H63.7436C63.5344 20.2441 63.3274 20.2857 63.1343 20.3662C62.9412 20.4467 62.7658 20.5644 62.6182 20.7126C62.4706 20.8609 62.3536 21.0367 62.274 21.2302C62.1943 21.4236 62.1536 21.6308 62.154 21.84V25.5627L42.1875 5.4139C41.9636 5.18712 41.6966 5.00755 41.4021 4.88581C41.1076 4.76407 40.7917 4.70264 40.473 4.70515V4.70853ZM40.4865 26.1735C39.6183 26.1735 38.7856 26.5184 38.1716 27.1324C37.5577 27.7463 37.2128 28.579 37.2128 29.4473C37.2128 30.3155 37.5577 31.1482 38.1716 31.7622C38.7856 32.3761 39.6183 32.721 40.4865 32.721C40.9158 32.7215 41.341 32.6373 41.7378 32.4733C42.1345 32.3093 42.4951 32.0688 42.7988 31.7653C43.1025 31.4619 43.3435 31.1016 43.5079 30.705C43.6723 30.3084 43.7569 29.8833 43.7569 29.454C43.7573 29.0241 43.6731 28.5983 43.509 28.201C43.3449 27.8036 43.1041 27.4425 42.8004 27.1381C42.4967 26.8338 42.1361 26.5923 41.7391 26.4274C41.342 26.2625 40.9164 26.1773 40.4865 26.1769V26.1735ZM23.9288 42.7515C23.4992 42.7511 23.0737 42.8354 22.6767 42.9996C22.2797 43.1638 21.919 43.4046 21.6153 43.7084C21.3115 44.0122 21.0706 44.3729 20.9064 44.7699C20.7422 45.1668 20.6579 45.5923 20.6584 46.0219C20.6383 46.4639 20.708 46.9053 20.8633 47.3196C21.0186 47.7339 21.2562 48.1124 21.5619 48.4323C21.8676 48.7521 22.2349 49.0067 22.6417 49.1806C23.0485 49.3546 23.4863 49.4443 23.9288 49.4443C24.3712 49.4443 24.809 49.3546 25.2158 49.1806C25.6226 49.0067 25.9899 48.7521 26.2956 48.4323C26.6013 48.1124 26.8389 47.7339 26.9942 47.3196C27.1495 46.9053 27.2192 46.4639 27.1991 46.0219C27.1996 45.592 27.1152 45.1663 26.9508 44.7691C26.7864 44.3719 26.5452 44.011 26.2411 43.7072C25.9369 43.4034 25.5758 43.1626 25.1785 42.9986C24.7811 42.8346 24.3553 42.7506 23.9254 42.7515H23.9288ZM57.0443 42.7515C56.3966 42.7515 55.7635 42.9436 55.2251 43.3035C54.6867 43.6634 54.2671 44.1749 54.0194 44.7732C53.7717 45.3716 53.7071 46.0301 53.8337 46.6652C53.9603 47.3003 54.2724 47.8837 54.7306 48.3414C55.1887 48.7991 55.7724 49.1106 56.4076 49.2365C57.0429 49.3625 57.7013 49.2972 58.2994 49.0489C58.8975 48.8006 59.4086 48.3804 59.7679 47.8416C60.1272 47.3028 60.3187 46.6695 60.318 46.0219C60.3184 45.592 60.234 45.1663 60.0696 44.7691C59.9052 44.3719 59.6641 44.011 59.3599 43.7072C59.0558 43.4034 58.6947 43.1626 58.2973 42.9986C57.9 42.8346 57.4741 42.7506 57.0443 42.7515Z" fill="#181433"/>
</g>
<defs>
<clipPath id="clip0_567_867">
<rect width="81" height="81" fill="white"/>
</clipPath>
</defs>
</svg>
