<svg width="79" height="77" viewBox="0 0 79 77" fill="none" xmlns="http://www.w3.org/2000/svg">
<g clip-path="url(#clip0_567_897)">
<rect width="78" height="76" transform="translate(0.5 0.5)" fill="#ECECFF"/>
<path d="M14.3125 0.507812H64.6875C72.325 0.507812 78.5 6.67749 78.5 14.3084V62.6916C78.5 70.3225 72.325 76.4922 64.6875 76.4922H14.3125C6.675 76.4922 0.5 70.3225 0.5 62.6916V14.3084C0.5 6.67749 6.675 0.507812 14.3125 0.507812Z" fill="#181433"/>
<path d="M38.2001 45.9691H26.1101L23.6401 53.6C23.5751 53.8923 23.3151 54.0871 23.0226 54.0547H16.9126C16.5551 54.0547 16.4576 53.8598 16.5551 53.4702L27.0201 23.3686C27.1176 23.0439 27.2151 22.6867 27.3451 22.2971C27.4751 21.6152 27.5401 20.9008 27.5401 20.1864C27.5076 20.024 27.6376 19.8617 27.8001 19.8292H36.2176C36.4776 19.8292 36.6076 19.9266 36.6401 20.089L48.5026 53.5351C48.6001 53.8923 48.5026 54.0547 48.1776 54.0547H41.3851C41.1576 54.0871 40.9301 53.9248 40.8651 53.6975L38.2001 45.9691ZM27.9951 39.3773H36.2501C36.0551 38.6954 35.7951 37.8836 35.5026 37.0393C35.2101 36.1626 34.9176 35.2209 34.6251 34.2468C34.3001 33.2401 34.0076 32.266 33.6826 31.2593C33.3576 30.2527 33.0651 29.311 32.8051 28.3693C32.5451 27.4601 32.3176 26.6158 32.0901 25.8365H32.0251C31.7326 27.2328 31.3751 28.6291 30.9201 30.0254C30.4326 31.5841 29.9451 33.2076 29.4251 34.8312C28.9701 36.4873 28.4826 38.0135 27.9951 39.3773ZM55.7501 25.5118C54.6776 25.5443 53.6376 25.1221 52.8576 24.3753C52.1101 23.5635 51.7201 22.4919 51.7526 21.3879C51.7201 20.2838 52.1426 19.2447 52.9226 18.4978C53.7026 17.751 54.7426 17.3613 55.8151 17.3613C57.0826 17.3613 58.0576 17.751 58.7726 18.4978C59.4876 19.2772 59.8776 20.3163 59.8451 21.3879C59.8776 22.4919 59.4876 23.5635 58.7076 24.3753C57.9601 25.1546 56.8551 25.5767 55.7501 25.5118ZM52.1101 53.6975V28.694C52.1101 28.3693 52.2401 28.2394 52.5326 28.2394H58.9676C59.2601 28.2394 59.3901 28.4018 59.3901 28.694V53.6975C59.3901 54.0547 59.2601 54.217 58.9676 54.217H52.5976C52.2726 54.217 52.1101 54.0222 52.1101 53.6975Z" fill="#ECECFF"/>
</g>
<defs>
<clipPath id="clip0_567_897">
<rect width="78" height="76" fill="white" transform="translate(0.5 0.5)"/>
</clipPath>
</defs>
</svg>
