<svg width="73" height="73" viewBox="0 0 73 73" fill="none" xmlns="http://www.w3.org/2000/svg">
<path d="M20.1364 0C9.31105 0 0.5 8.93343 0.5 19.9091V53.0909C0.5 64.0666 9.31105 73 20.1364 73H52.8636C63.6889 73 72.5 64.0666 72.5 53.0909V19.9091C72.5 8.93343 63.6889 0 52.8636 0H20.1364ZM20.1364 3.31818H52.8636C61.9201 3.31818 69.2273 10.7268 69.2273 19.9091V53.0909C69.2273 62.2732 61.9201 69.6818 52.8636 69.6818H20.1364C11.0799 69.6818 3.77273 62.2732 3.77273 53.0909V19.9091C3.77273 10.7268 11.0799 3.31818 20.1364 3.31818ZM14.5977 24.9965C13.4473 24.9965 12.6001 25.828 12.6001 26.9213C12.6001 27.9998 13.4473 28.8299 14.5977 28.8299C15.748 28.8299 16.5984 27.9998 16.5984 26.9213C16.5984 25.828 15.748 24.9965 14.5977 24.9965ZM31.6516 25.9427C25.6969 25.9427 21.9581 30.171 21.9581 36.9666C21.9581 43.7473 25.6249 48.0035 31.6516 48.0035C37.6636 48.0035 41.3164 43.7324 41.3164 36.9666C41.3164 30.1859 37.6342 25.9444 31.6516 25.9427ZM52.8093 25.9427C48.2799 25.9427 45.2571 28.4359 45.2571 32.1838C45.2571 35.2747 46.9685 37.1143 50.7223 38.0036L53.3974 38.6614C56.1448 39.3167 57.354 40.278 57.354 41.8823C57.354 43.7488 55.4556 45.1033 52.8668 45.1033C50.093 45.1033 48.1655 43.8359 47.8906 41.8402H44.6946C44.9253 45.603 48.0161 48.0067 52.6175 48.0067C57.5365 48.0067 60.614 45.486 60.614 41.4611C60.614 38.2972 58.8601 36.5462 54.6023 35.5408L52.3171 34.9705C49.6138 34.3285 48.5202 33.4681 48.5202 31.9667C48.5202 30.0703 50.2184 28.8332 52.7646 28.8332C55.1815 28.8332 56.8468 30.0401 57.1495 31.9796H60.2848C60.0983 28.4358 57.0229 25.9427 52.8093 25.9427ZM31.6516 28.9887C35.5936 28.9887 38.0245 32.0823 38.0245 36.9666C38.0245 41.8211 35.592 44.9575 31.6516 44.9575C27.6687 44.9575 25.2532 41.8228 25.2532 36.9666C25.2532 32.0823 27.7391 28.9904 31.6516 28.9887ZM13.0604 31.6167V47.4947H16.1381V31.6167H13.0604Z" fill="#181433"/>
</svg>
