<svg width="76" height="77" viewBox="0 0 76 77" fill="none" xmlns="http://www.w3.org/2000/svg">
<path d="M48.1332 44.5322C52.727 44.5322 56.451 40.7592 56.451 36.105C56.451 31.4507 52.727 27.6777 48.1332 27.6777C43.5394 27.6777 39.8154 31.4507 39.8154 36.105C39.8154 40.7592 43.5394 44.5322 48.1332 44.5322Z" fill="#ECECFF"/>
<path d="M62.0669 67.8021C65.6813 67.8021 68.6114 64.8335 68.6114 61.1716C68.6114 57.5096 65.6813 54.541 62.0669 54.541C58.4525 54.541 55.5225 57.5096 55.5225 61.1716C55.5225 64.8335 58.4525 67.8021 62.0669 67.8021Z" fill="#ECECFF"/>
<path d="M36.1849 62.3281C39.2863 62.3281 41.8004 59.7809 41.8004 56.6387C41.8004 53.4965 39.2863 50.9492 36.1849 50.9492C33.0835 50.9492 30.5693 53.4965 30.5693 56.6387C30.5693 59.7809 33.0835 62.3281 36.1849 62.3281Z" fill="#ECECFF"/>
<path d="M32.1307 20.3628C35.9783 20.3628 39.0974 17.2026 39.0974 13.3044C39.0974 9.40622 35.9783 6.24609 32.1307 6.24609C28.2831 6.24609 25.1641 9.40622 25.1641 13.3044C25.1641 17.2026 28.2831 20.3628 32.1307 20.3628Z" fill="#ECECFF"/>
<path d="M13.4691 45.0019C16.5705 45.0019 19.0846 42.4547 19.0846 39.3125C19.0846 36.1703 16.5705 33.623 13.4691 33.623C10.3677 33.623 7.85352 36.1703 7.85352 39.3125C7.85352 42.4547 10.3677 45.0019 13.4691 45.0019Z" fill="#ECECFF"/>
<path d="M63.5865 59.8467L49.5265 34.9072L48.1331 35.72L49.2731 34.8644L33.3554 11.9355L30.442 14.0744L44.5442 34.3939L13.2998 37.0033L13.5954 40.6822L44.5442 38.0728L34.2842 55.355L37.3665 57.2372L47.922 39.4417L60.462 61.6433L63.5865 59.8467Z" fill="#181433"/>
<path d="M74.0155 5.26145C74.0155 4.43324 73.6908 3.63895 73.1127 3.05331C72.5347 2.46768 71.7507 2.13867 70.9333 2.13867H54.8888C54.4857 2.13867 54.0991 2.30092 53.814 2.58973C53.529 2.87853 53.3688 3.27024 53.3688 3.67867V9.71034C53.3688 10.1188 53.529 10.5105 53.814 10.7993C54.0991 11.0881 54.4857 11.2503 54.8888 11.2503H64.811V21.0892C64.8217 21.5056 64.9897 21.9019 65.2804 22.1964C65.5711 22.491 65.9623 22.6612 66.3733 22.672H72.2844C72.6953 22.6612 73.0865 22.491 73.3772 22.1964C73.6679 21.9019 73.8359 21.5056 73.8466 21.0892V5.26145H74.0155ZM21.111 65.7492H11.0199V55.9103C11.0093 55.494 10.8412 55.0976 10.5505 54.8031C10.2599 54.5086 9.86867 54.3384 9.45771 54.3276H3.5466C3.13564 54.3384 2.74445 54.5086 2.45376 54.8031C2.16307 55.0976 1.99505 55.494 1.98438 55.9103V71.7381C1.99547 72.5589 2.3251 73.3422 2.90193 73.9186C3.47876 74.4951 4.2564 74.8182 5.0666 74.8181H21.111C21.5142 74.8181 21.9008 74.6559 22.1858 74.3671C22.4709 74.0782 22.631 73.6865 22.631 73.2781V67.2892C22.631 66.8808 22.4709 66.4891 22.1858 66.2003C21.9008 65.9115 21.5142 65.7492 21.111 65.7492Z" fill="#181433"/>
<path d="M48.1335 27.7634C49.8125 27.764 51.4533 28.2716 52.8462 29.2215C54.2391 30.1714 55.3209 31.5204 55.9533 33.0962C56.5858 34.6721 56.7402 36.4031 56.3969 38.0683C56.0536 39.7335 55.2281 41.2572 54.026 42.4448C52.8238 43.6323 51.2994 44.4298 49.6477 44.7354C47.996 45.0409 46.2919 44.8407 44.753 44.1602C43.2142 43.4798 41.9105 42.35 41.0085 40.9152C40.1065 39.4804 39.6471 37.8057 39.6891 36.1051C39.7442 33.8733 40.6581 31.7517 42.2358 30.1932C43.8135 28.6347 45.93 27.7627 48.1335 27.7634ZM25.3335 13.3045C25.3255 14.718 25.734 16.1017 26.5068 17.2786C27.2796 18.4554 28.3814 19.3718 29.6712 19.9105C30.9611 20.4492 32.3803 20.5856 33.7471 20.3023C35.1139 20.019 36.3662 19.3288 37.3436 18.3202C38.321 17.3116 38.9791 16.0304 39.2336 14.6406C39.4881 13.2509 39.3274 11.8158 38.7722 10.5191C38.2169 9.22235 37.2923 8.12302 36.1168 7.36182C34.9413 6.60061 33.5682 6.21216 32.1735 6.2462C30.3479 6.27984 28.6083 7.0383 27.329 8.35837C26.0498 9.67844 25.3332 11.4546 25.3335 13.3045ZM7.85352 39.2706C7.85352 40.3959 8.18286 41.4959 8.79991 42.4315C9.41695 43.3672 10.294 44.0964 11.3201 44.527C12.3462 44.9576 13.4753 45.0703 14.5646 44.8508C15.6539 44.6312 16.6545 44.0894 17.4399 43.2937C18.2252 42.498 18.76 41.4842 18.9767 40.3806C19.1934 39.277 19.0822 38.133 18.6572 37.0934C18.2321 36.0538 17.5124 35.1652 16.5889 34.54C15.6654 33.9149 14.5797 33.5812 13.4691 33.5812C11.9797 33.5812 10.5514 34.1806 9.49827 35.2476C8.44515 36.3146 7.85352 37.7617 7.85352 39.2706ZM30.5691 56.5956C30.5607 57.7312 30.8854 58.8436 31.502 59.7919C32.1186 60.7401 32.9992 61.4815 34.0323 61.9219C35.0654 62.3624 36.2043 62.482 37.3045 62.2657C38.4048 62.0494 39.4169 61.5068 40.2123 60.7069C41.0078 59.9069 41.5509 58.8857 41.7726 57.7726C41.9944 56.6595 41.8848 55.5047 41.4579 54.4548C41.0309 53.4049 40.3058 52.5071 39.3745 51.8753C38.4432 51.2435 37.3476 50.9062 36.2269 50.9062C35.4859 50.9006 34.7511 51.0436 34.0649 51.3269C33.3787 51.6103 32.7547 52.0285 32.2287 52.5574C31.7028 53.0863 31.2854 53.7154 31.0005 54.4085C30.7157 55.1015 30.5691 55.8449 30.5691 56.5956ZM55.5646 61.1729C55.5563 62.4861 55.933 63.7722 56.647 64.8682C57.361 65.9642 58.3801 66.8207 59.5752 67.3291C60.7703 67.8375 62.0875 67.975 63.3598 67.724C64.632 67.473 65.8021 66.8449 66.7216 65.9193C67.641 64.9937 68.2686 63.8124 68.5245 62.525C68.7805 61.2377 68.6534 59.9023 68.1593 58.6882C67.6652 57.4742 66.8265 56.4361 65.7493 55.7056C64.6722 54.9751 63.4052 54.5851 62.1091 54.5851C61.2501 54.5737 60.3975 54.736 59.6012 55.0625C58.8048 55.389 58.0808 55.8731 57.4714 56.4866C56.862 57.1 56.3795 57.8304 56.0521 58.6351C55.7247 59.4398 55.5589 60.3025 55.5646 61.1729Z" fill="url(#paint0_linear_567_846)"/>
<defs>
<linearGradient id="paint0_linear_567_846" x1="38.5491" y1="80.4656" x2="37.3355" y2="-34.649" gradientUnits="userSpaceOnUse">
<stop stop-color="#181433"/>
<stop offset="0.09" stop-color="#181433"/>
<stop offset="0.161458" stop-color="#181433"/>
<stop offset="0.354167" stop-color="#2EC9EB"/>
<stop offset="0.447917" stop-color="#181433"/>
<stop offset="0.62" stop-color="#181433"/>
</linearGradient>
</defs>
</svg>
