<svg width="100" height="62" viewBox="0 0 100 62" fill="none" xmlns="http://www.w3.org/2000/svg">
<path d="M93.5998 26.2109H93.2676V26.0234H94.1623V26.2109H93.832V27.1461H93.5998V26.2109ZM95.3842 26.2597H95.379L95.0496 27.1464H94.8989L94.5718 26.2597H94.5678V27.1464H94.3488V26.0238H94.6711L94.9744 26.8187L95.2768 26.0238H95.5979V27.1464H95.3841L95.3842 26.2597Z" fill="#181433"/>
<path d="M64.2907 36.7492C63.2628 37.6481 62.1772 38.1526 61.2029 38.1526C59.8123 38.1526 59.061 37.312 59.061 35.9636C59.061 34.5051 59.8661 33.4387 63.0955 33.4387H64.2906L64.2907 36.7492ZM67.1271 39.9755V29.9886C67.1271 27.4373 65.6838 25.754 62.2039 25.754C60.1724 25.754 58.3928 26.2597 56.9464 26.9047L57.3639 28.6725C58.5027 28.2511 59.9769 27.8588 61.4237 27.8588C63.4284 27.8588 64.2907 28.6725 64.2907 30.3548V31.6172H63.2902C58.4197 31.6172 56.2227 33.5232 56.2227 36.384C56.2227 38.8532 57.6705 40.2567 60.3966 40.2567C62.149 40.2567 63.4571 39.5272 64.6799 38.4598L64.9018 39.9758L67.1271 39.9755ZM76.593 39.9755H73.0555L68.798 26.0068H71.8875L74.5291 34.5891L75.1164 37.1703C76.4529 33.4384 77.3983 29.6522 77.871 26.0068H80.8762C80.0709 30.6065 78.622 35.6554 76.593 39.9755ZM90.1638 36.7492C89.1339 37.6481 88.0465 38.1526 87.0721 38.1526C85.6839 38.1526 84.9306 37.312 84.9306 35.9636C84.9306 34.5051 85.7374 33.4387 88.9666 33.4387H90.1638V36.7492ZM92.9998 39.9755V29.9886C92.9998 27.4373 91.5531 25.754 88.077 25.754C86.0441 25.754 84.2639 26.2597 82.8182 26.9047L83.2352 28.6725C84.3743 28.2511 85.8512 27.8588 87.2969 27.8588C89.3001 27.8588 90.1638 28.6725 90.1638 30.3548V31.6172H89.1615C84.2897 31.6172 82.0934 33.5232 82.0934 36.384C82.0934 38.8532 83.5401 40.2567 86.2658 40.2567C88.0192 40.2567 89.3268 39.5272 90.5516 38.4598L90.7744 39.9758L92.9998 39.9755ZM53.1127 42.3475C52.3041 43.5377 50.9981 44.4793 49.5684 45.012L48.168 43.3506C49.2562 42.7877 50.1896 41.8784 50.6232 41.0317C50.9983 40.2785 51.1535 39.3078 51.1535 36.9865V21.0391H54.167V36.7679C54.1668 39.8713 53.9207 41.1249 53.1127 42.3475Z" fill="#181433"/>
<path d="M13.8814 45.4163C13.8814 45.4163 11.6951 46.666 15.4373 47.0888C19.971 47.5972 22.2881 47.5243 27.2842 46.5949C27.2842 46.5949 28.5977 47.4044 30.4321 48.1055C19.2322 52.8234 5.08443 47.8322 13.8814 45.4163ZM12.5128 39.2598C12.5128 39.2598 10.0606 41.0438 13.8057 41.4246C18.6487 41.9156 22.4733 41.9558 29.0913 40.7033C29.0913 40.7033 30.0068 41.6154 31.4462 42.1142C17.9046 46.006 2.82193 42.4211 12.5128 39.2598Z" fill="#181433"/>
<path d="M23.8785 28.8052C26.5984 31.9674 23.164 34.8132 23.164 34.8132C23.164 34.8132 30.07 31.2129 26.8984 26.7046C23.9361 22.5002 21.6644 20.4114 33.9624 13.209C33.9626 13.2088 14.6586 18.0774 23.8785 28.8052Z" fill="#181433"/>
<path d="M38.5954 50.1885C38.5954 50.1885 40.188 51.5201 36.8415 52.5499C30.4781 54.5058 10.3563 55.0965 4.76661 52.628C2.75724 51.7409 6.52537 50.5101 7.71068 50.2518C8.94684 49.9798 9.65326 50.0305 9.65326 50.0305C7.41864 48.4332 -4.79041 53.1666 3.45167 54.5223C25.929 58.2209 44.4259 52.8569 38.5954 50.1885ZM15.0402 32.8235C15.0402 32.8235 4.80501 35.2901 11.4157 36.1859C14.2069 36.565 19.7711 36.4793 24.9539 36.0386C29.1897 35.6761 33.4431 34.9054 33.4431 34.9054C33.4431 34.9054 31.9495 35.5544 30.869 36.3029C20.4753 39.0766 0.396634 37.7862 6.17702 34.9492C11.0655 32.5515 15.0402 32.8235 15.0402 32.8235ZM33.4009 43.2368C43.9666 37.6661 39.0816 32.3125 35.6717 33.0339C34.8359 33.2104 34.4633 33.3633 34.4633 33.3633C34.4633 33.3633 34.7737 32.8702 35.366 32.6567C42.1116 30.2505 47.2994 39.7537 33.1884 43.5177C33.1884 43.5177 33.3522 43.3695 33.4009 43.2368Z" fill="#181433"/>
<path d="M26.8066 1.77148C26.8066 1.77148 32.6364 7.6703 21.2772 16.7414C12.1683 24.0177 19.2001 28.1665 21.2734 32.9069C15.9566 28.0542 12.0546 23.7827 14.6723 19.8071C18.5144 13.9711 29.1588 11.1416 26.8066 1.77148Z" fill="#181433"/>
<path d="M16.1181 58.1549C26.2348 58.7734 41.7703 57.8118 42.138 53.2402C42.138 53.2402 41.4309 54.9732 33.7771 56.3497C25.1424 57.9014 14.4923 57.7204 8.17578 56.7258C8.17608 56.7255 9.46901 57.7477 16.1181 58.1549Z" fill="#181433"/>
</svg>
