<svg width="58" height="58" viewBox="0 0 58 58" fill="none" xmlns="http://www.w3.org/2000/svg">
<g clip-path="url(#clip0_567_773)">
<path d="M0 0H58V58H0V0Z" fill="#181433"/>
<path d="M53.2529 44.1681C52.8284 41.5217 51.1027 39.2998 45.9919 37.2268C44.2166 36.4108 42.2373 35.8265 41.6474 34.4812C41.4379 33.6983 41.4103 33.2572 41.5426 32.7831C41.923 31.2449 43.759 30.7652 45.2145 31.2063C46.1517 31.5205 47.0394 32.2428 47.5742 33.3951C50.0772 31.7742 50.0717 31.7852 51.8194 30.6715C51.1799 29.6791 50.8381 29.2215 50.419 28.797C48.9139 27.1155 46.863 26.2499 43.5825 26.316C43.0147 26.3877 42.4413 26.4648 41.8734 26.5366C40.236 26.9501 38.6757 27.8101 37.7605 28.9624C35.0149 32.0774 35.7978 37.53 39.1388 39.774C42.4303 42.244 47.2654 42.8063 47.8829 45.1164C48.4839 47.9447 45.8045 48.8599 43.1415 48.5347C41.1787 48.1267 40.0872 47.1288 38.9073 45.3149C36.7351 46.5719 36.7351 46.5719 34.5022 47.8565C35.0315 49.0143 35.5882 49.5381 36.4759 50.5415C40.6771 54.8033 51.1909 54.5938 53.0765 48.1432C53.1536 47.9226 53.6609 46.4451 53.2529 44.1681ZM31.5305 26.6578H26.1054C26.1054 31.3441 26.0834 35.9973 26.0834 40.6837C26.0834 43.6664 26.2377 46.401 25.7526 47.239C24.9586 48.8874 22.9022 48.6835 21.9649 48.3636C21.0111 47.895 20.5259 47.2279 19.9636 46.2852C19.8092 46.015 19.6934 45.8055 19.6548 45.789C18.1828 46.6876 16.7162 47.5918 15.2441 48.4905C15.9775 49.9956 17.058 51.3023 18.4419 52.1513C20.5093 53.3918 23.2881 53.7722 26.1936 53.1051C28.0847 52.5538 29.7166 51.4126 30.5711 49.6759C31.8061 47.3989 31.5415 44.6422 31.5305 41.5934C31.558 36.6203 31.5305 31.6473 31.5305 26.6578Z" fill="#ECECFF"/>
</g>
<defs>
<clipPath id="clip0_567_773">
<rect width="58" height="58" fill="white"/>
</clipPath>
</defs>
</svg>
