<svg width="43" height="69" viewBox="0 0 43 69" fill="none" xmlns="http://www.w3.org/2000/svg">
<g clip-path="url(#clip0_567_837)">
<path d="M33.6104 38.1299C30.9549 38.1299 28.5742 39.3018 26.9439 41.1467L22.7664 38.201C23.2099 36.9849 23.4645 35.6791 23.4645 34.3123C23.4645 32.9692 23.2187 31.6853 22.7899 30.4871L26.958 27.5727C28.5882 29.4083 30.9626 30.5737 33.6104 30.5737C38.5118 30.5737 42.5 26.602 42.5 21.7194C42.5 16.8368 38.5118 12.8651 33.6104 12.8651C28.7091 12.8651 24.7209 16.8368 24.7209 21.7194C24.7209 22.5933 24.8534 23.436 25.0913 24.2342L20.9204 27.1501C19.178 24.9971 16.6693 23.4939 13.811 23.035V18.0281C17.8378 17.1857 20.8718 13.6221 20.8718 9.36411C20.8718 4.48151 16.8836 0.509766 11.9822 0.509766C7.08087 0.509766 3.09268 4.48151 3.09268 9.36411C3.09268 13.5651 6.0481 17.0847 9.9943 17.9872V23.0592C4.60878 24.0008 0.5 28.6822 0.5 34.3123C0.5 39.9698 4.64947 44.6684 10.0739 45.578V50.9336C6.08731 51.8064 3.09268 55.3476 3.09268 59.5772C3.09268 64.4598 7.08087 68.4315 11.9822 68.4315C16.8836 68.4315 20.8718 64.4598 20.8718 59.5772C20.8718 55.3476 17.8772 51.8064 13.8906 50.9336V45.5778C16.6362 45.1172 19.1201 43.6783 20.8797 41.5291L25.0851 44.4939C24.8516 45.2848 24.7209 46.1192 24.7209 46.9843C24.7209 51.8669 28.7091 55.8386 33.6104 55.8386C38.5118 55.8386 42.5 51.8669 42.5 46.9843C42.5 42.1017 38.5118 38.1299 33.6104 38.1299ZM33.6104 17.4264C35.9872 17.4264 37.9204 19.3527 37.9204 21.7194C37.9204 24.0861 35.9872 26.0122 33.6104 26.0122C31.2337 26.0122 29.3005 24.0861 29.3005 21.7194C29.3005 19.3527 31.2337 17.4264 33.6104 17.4264ZM7.67216 9.36411C7.67216 6.99741 9.60547 5.07126 11.9822 5.07126C14.359 5.07126 16.2922 6.99741 16.2922 9.36411C16.2922 11.7308 14.359 13.657 11.9822 13.657C9.60547 13.657 7.67216 11.7308 7.67216 9.36411ZM16.2922 59.5772C16.2922 61.9439 14.359 63.87 11.9822 63.87C9.60547 63.87 7.67216 61.9439 7.67216 59.5772C7.67216 57.2105 9.60547 55.2843 11.9822 55.2843C14.359 55.2843 16.2922 57.2105 16.2922 59.5772ZM11.9819 40.2994C8.66703 40.2994 5.97034 37.6139 5.97034 34.3123C5.97034 31.0105 8.66703 28.3245 11.9819 28.3245C15.2966 28.3245 17.9933 31.0105 17.9933 34.3123C17.9933 37.6139 15.2966 40.2994 11.9819 40.2994ZM33.6104 51.2773C31.2337 51.2773 29.3005 49.351 29.3005 46.9843C29.3005 44.6176 31.2337 42.6914 33.6104 42.6914C35.9872 42.6914 37.9204 44.6176 37.9204 46.9843C37.9204 49.351 35.9872 51.2773 33.6104 51.2773Z" fill="#181433"/>
</g>
<defs>
<clipPath id="clip0_567_837">
<rect width="42" height="68" fill="white" transform="translate(0.5 0.5)"/>
</clipPath>
</defs>
</svg>
