<svg width="218" height="69" viewBox="0 0 218 69" fill="none" xmlns="http://www.w3.org/2000/svg">
<path d="M71.5955 48V15.2727H76.5334V30.9013H76.9329L90.6598 15.2727H96.8761L83.6765 30.0064L96.924 48H90.9794L80.4006 33.3782L76.5334 37.8207V48H71.5955ZM109.872 48.4954C107.454 48.4954 105.371 47.9787 103.624 46.9453C101.887 45.9013 100.545 44.4364 99.5967 42.5508C98.6592 40.6545 98.1904 38.4332 98.1904 35.8871C98.1904 33.3729 98.6592 31.157 99.5967 29.2393C100.545 27.3217 101.866 25.8249 103.56 24.7489C105.264 23.6729 107.256 23.1349 109.536 23.1349C110.921 23.1349 112.264 23.364 113.563 23.8221C114.863 24.2802 116.03 24.9993 117.063 25.9794C118.096 26.9595 118.911 28.2326 119.508 29.7987C120.104 31.354 120.403 33.245 120.403 35.4716V37.1655H100.891V33.5859H115.721C115.721 32.3288 115.465 31.2156 114.954 30.2461C114.442 29.266 113.723 28.4936 112.796 27.929C111.88 27.3643 110.804 27.082 109.568 27.082C108.226 27.082 107.054 27.4123 106.053 28.0728C105.062 28.7227 104.295 29.5749 103.752 30.6296C103.219 31.6736 102.953 32.8082 102.953 34.0334V36.8299C102.953 38.4705 103.24 39.8661 103.815 41.0167C104.401 42.1673 105.216 43.0462 106.26 43.6534C107.304 44.25 108.524 44.5483 109.92 44.5483C110.825 44.5483 111.651 44.4205 112.397 44.1648C113.142 43.8984 113.787 43.5043 114.33 42.9822C114.874 42.4602 115.289 41.8157 115.577 41.0487L120.099 41.8636C119.737 43.1953 119.087 44.3619 118.15 45.3633C117.223 46.354 116.056 47.1264 114.65 47.6804C113.254 48.2237 111.662 48.4954 109.872 48.4954ZM125.704 48V23.4545H130.322V27.3537H130.578C131.026 26.0327 131.814 24.994 132.943 24.2376C134.083 23.4705 135.372 23.087 136.81 23.087C137.109 23.087 137.46 23.0977 137.865 23.119C138.281 23.1403 138.605 23.1669 138.84 23.1989V27.7692C138.648 27.7159 138.307 27.6573 137.817 27.5934C137.327 27.5188 136.837 27.4815 136.347 27.4815C135.218 27.4815 134.211 27.7212 133.327 28.2006C132.453 28.6694 131.761 29.3246 131.249 30.1662C130.738 30.9972 130.482 31.9453 130.482 33.0107V48H125.704ZM149.898 48.5433C148.343 48.5433 146.936 48.2557 145.679 47.6804C144.422 47.0945 143.426 46.2475 142.691 45.1396C141.967 44.0316 141.604 42.6733 141.604 41.0646C141.604 39.6797 141.871 38.5398 142.403 37.6449C142.936 36.75 143.655 36.0415 144.561 35.5195C145.466 34.9975 146.478 34.6033 147.597 34.337C148.716 34.0707 149.855 33.8683 151.017 33.7298C152.487 33.5593 153.68 33.4208 154.596 33.3143C155.512 33.1971 156.178 33.0107 156.594 32.755C157.009 32.4993 157.217 32.0838 157.217 31.5085V31.3967C157.217 30.0011 156.823 28.9197 156.034 28.1527C155.257 27.3857 154.096 27.0021 152.551 27.0021C150.942 27.0021 149.674 27.359 148.748 28.0728C147.831 28.7759 147.197 29.5589 146.846 30.4219L142.355 29.3991C142.888 27.9077 143.666 26.7038 144.689 25.7876C145.722 24.8608 146.91 24.1896 148.252 23.7741C149.594 23.348 151.006 23.1349 152.487 23.1349C153.467 23.1349 154.506 23.2521 155.603 23.4865C156.711 23.7102 157.744 24.1257 158.703 24.733C159.673 25.3402 160.466 26.2085 161.084 27.3377C161.702 28.4563 162.011 29.9105 162.011 31.7003V48H157.345V44.6442H157.153C156.844 45.2621 156.381 45.8693 155.763 46.4659C155.145 47.0625 154.351 47.5579 153.382 47.9521C152.412 48.3462 151.251 48.5433 149.898 48.5433ZM150.937 44.7081C152.258 44.7081 153.387 44.4471 154.325 43.9251C155.273 43.4031 155.992 42.7212 156.482 41.8796C156.983 41.0273 157.233 40.1165 157.233 39.147V35.983C157.063 36.1534 156.732 36.3132 156.242 36.4624C155.763 36.6009 155.214 36.7234 154.596 36.8299C153.978 36.9258 153.376 37.0163 152.79 37.1016C152.205 37.1761 151.714 37.2401 151.32 37.2933C150.393 37.4105 149.547 37.6076 148.779 37.8846C148.023 38.1616 147.416 38.5611 146.958 39.0831C146.51 39.5945 146.287 40.2763 146.287 41.1286C146.287 42.3111 146.723 43.206 147.597 43.8132C148.471 44.4098 149.584 44.7081 150.937 44.7081ZM186.768 29.4471L182.438 30.2141C182.256 29.6602 181.969 29.1328 181.575 28.6321C181.191 28.1314 180.669 27.7212 180.009 27.4016C179.348 27.082 178.522 26.9222 177.532 26.9222C176.179 26.9222 175.049 27.2259 174.144 27.8331C173.238 28.4297 172.786 29.2021 172.786 30.1502C172.786 30.9705 173.089 31.631 173.696 32.1317C174.304 32.6325 175.284 33.0426 176.637 33.3622L180.536 34.2571C182.794 34.7791 184.478 35.5835 185.586 36.6701C186.694 37.7567 187.248 39.1683 187.248 40.9048C187.248 42.375 186.821 43.6854 185.969 44.8359C185.128 45.9759 183.95 46.8707 182.438 47.5206C180.935 48.1705 179.194 48.4954 177.212 48.4954C174.464 48.4954 172.221 47.9094 170.484 46.7376C168.748 45.555 167.683 43.8771 167.288 41.7038L171.907 41.0007C172.194 42.2045 172.786 43.1154 173.68 43.7333C174.575 44.3406 175.742 44.6442 177.18 44.6442C178.746 44.6442 179.998 44.3192 180.935 43.6694C181.873 43.0089 182.342 42.2045 182.342 41.2564C182.342 40.4893 182.054 39.8448 181.479 39.3228C180.914 38.8008 180.046 38.4066 178.874 38.1403L174.719 37.2294C172.429 36.7074 170.735 35.8764 169.638 34.7365C168.551 33.5966 168.008 32.1531 168.008 30.4059C168.008 28.957 168.412 27.6893 169.222 26.6026C170.032 25.516 171.15 24.669 172.578 24.0618C174.005 23.4439 175.641 23.1349 177.484 23.1349C180.136 23.1349 182.225 23.7102 183.748 24.8608C185.271 26.0007 186.278 27.5295 186.768 29.4471Z" fill="#181433"/>
<rect width="63" height="63" fill="#181433"/>
<path d="M20.1541 49V16.2727H25.092V31.9013H25.4915L39.2184 16.2727H45.4347L32.2351 31.0064L45.4826 49H39.538L28.9592 34.3782L25.092 38.8207V49H20.1541Z" fill="#ECECFF"/>
</svg>
