<svg width="147" height="41" viewBox="0 0 147 41" fill="none" xmlns="http://www.w3.org/2000/svg">
<g clip-path="url(#clip0_567_743)">
<path d="M135.241 14.5938C134.884 14.5938 134.537 14.6664 134.229 14.8378L124.5 20.3714C123.87 20.7288 123.487 21.4034 123.487 22.1213V33.1684C123.487 33.8858 123.87 34.5596 124.5 34.9179L127.041 36.3625C128.275 36.9617 128.73 36.9523 129.292 36.9523C131.12 36.9523 132.163 35.86 132.163 33.9619V23.057C132.163 22.9029 132.028 22.7926 131.874 22.7926H130.655C130.499 22.7926 130.366 22.9029 130.366 23.057V33.9619C130.366 34.8031 129.476 35.6494 128.032 34.9382L125.388 33.4125C125.294 33.3624 125.223 33.2739 125.223 33.1684V22.1211C125.223 22.0164 125.293 21.9098 125.388 21.8567L135.097 16.3437C135.141 16.3185 135.19 16.3052 135.241 16.3052C135.292 16.3052 135.342 16.3185 135.386 16.3437L145.095 21.857C145.187 21.9118 145.26 22.0133 145.26 22.1216V33.1687C145.26 33.2742 145.206 33.3822 145.116 33.4331L135.386 38.9463C135.303 38.9952 135.188 38.9952 135.097 38.9463L132.597 37.4816C132.559 37.4613 132.517 37.4507 132.473 37.4507C132.43 37.4507 132.387 37.4613 132.349 37.4816C131.659 37.8668 131.53 37.9114 130.883 38.1326C130.723 38.1874 130.481 38.2725 130.965 38.5397L134.229 40.4314C134.537 40.6062 134.886 40.6976 135.241 40.696C135.597 40.6982 135.946 40.607 136.253 40.4317L145.983 34.9182C146.613 34.5576 146.995 33.8861 146.995 33.1687V22.1213C146.995 21.4037 146.613 20.7302 145.983 20.3719L136.253 14.8383C135.949 14.6667 135.599 14.594 135.241 14.594L135.241 14.5938Z" fill="#322C58"/>
<path d="M137.844 22.4883C135.073 22.4883 133.423 23.6496 133.423 25.5808C133.423 27.6755 135.061 28.2512 137.72 28.5102C140.901 28.817 141.149 29.277 141.149 29.8937C141.149 30.9634 140.283 31.4195 138.237 31.4195C135.665 31.4195 135.1 30.7872 134.911 29.5276C134.888 29.3924 134.782 29.2833 134.642 29.2833H133.382C133.227 29.2833 133.093 29.415 133.093 29.5683C133.093 31.1808 133.983 33.0878 138.237 33.0878C141.315 33.0878 143.091 31.8976 143.091 29.8123C143.091 27.7453 141.657 27.1903 138.67 26.8015C135.653 26.4082 135.365 26.2156 135.365 25.5197C135.365 24.9452 135.609 24.1766 137.844 24.1766C139.84 24.1766 140.578 24.6008 140.881 25.9266C140.907 26.051 141.018 26.1503 141.149 26.1503H142.409C142.487 26.1503 142.562 26.1034 142.616 26.0485C142.669 25.99 142.706 25.9241 142.698 25.8452C142.503 23.5622 140.957 22.4883 137.844 22.4883Z" fill="#322C58"/>
<path d="M78.0415 0.107553C77.9328 0.107624 77.8259 0.135593 77.7315 0.188705C77.6376 0.242788 77.5597 0.320018 77.5054 0.412786C77.451 0.505554 77.4222 0.610659 77.4217 0.717746V16.2813C77.4217 16.434 77.3496 16.5709 77.2152 16.6475C77.1494 16.6853 77.0746 16.7052 76.9983 16.7052C76.9221 16.7052 76.8473 16.6853 76.7814 16.6475L74.1992 15.1828C74.0108 15.0755 73.7971 15.019 73.5795 15.019C73.3619 15.019 73.1481 15.0755 72.9598 15.1828L62.6518 21.0419C62.2665 21.261 62.0322 21.682 62.0322 22.1203V33.8387C62.0322 34.2764 62.2668 34.6773 62.6518 34.8965L72.9598 40.7558C73.148 40.8634 73.3618 40.9201 73.5795 40.9201C73.7972 40.9201 74.0109 40.8634 74.1992 40.7558L84.5072 34.8965C84.6959 34.7895 84.8526 34.6353 84.9614 34.4496C85.0703 34.2639 85.1274 34.0531 85.127 33.8387V4.62406C85.1268 4.40458 85.0673 4.18911 84.9549 3.99964C84.8424 3.81018 84.6809 3.6535 84.4868 3.54562L78.3513 0.168346C78.2551 0.11547 78.1484 0.106139 78.0415 0.107553ZM11.7315 14.7352C11.5351 14.7429 11.3502 14.7768 11.1739 14.8774L0.865674 20.7368C0.676848 20.8436 0.520075 20.9977 0.411262 21.1835C0.302449 21.3693 0.245467 21.5801 0.246099 21.7946L0.266771 37.5213C0.266771 37.7399 0.381326 37.9432 0.576558 38.0501C0.670157 38.1055 0.777294 38.1347 0.886489 38.1347C0.995684 38.1347 1.10282 38.1055 1.19642 38.0501L7.31092 34.5917C7.69823 34.3649 7.95117 33.9707 7.95117 33.5336V26.1892C7.95117 25.7509 8.18516 25.3488 8.57103 25.1311L11.1736 23.6461C11.3618 23.5383 11.5758 23.4821 11.7935 23.4832C12.006 23.4832 12.2242 23.5355 12.4131 23.6461L15.016 25.1311C15.205 25.2379 15.3619 25.392 15.4708 25.5778C15.5797 25.7637 15.6366 25.9746 15.6359 26.1892V33.5333C15.6359 33.9704 15.8914 34.3674 16.2761 34.5914L22.3906 38.0501C22.4842 38.1055 22.5913 38.1347 22.7005 38.1347C22.8097 38.1347 22.9169 38.1055 23.0105 38.0501C23.1047 37.9964 23.1829 37.9192 23.2373 37.8264C23.2917 37.7336 23.3204 37.6283 23.3205 37.521L23.3406 21.7946C23.3419 21.58 23.2851 21.3689 23.1763 21.1831C23.0674 20.9972 22.9103 20.8432 22.7211 20.7368L12.4131 14.8774C12.2388 14.7768 12.0533 14.7431 11.8555 14.7352H11.7315ZM104.359 14.8774C104.144 14.8774 103.932 14.9312 103.739 15.0403L93.4313 20.8996C93.2425 21.0066 93.0858 21.1607 92.977 21.3465C92.8681 21.5322 92.811 21.743 92.8114 21.9574V33.6758C92.8114 34.1166 93.0635 34.5159 93.4517 34.7339L103.677 40.4711C104.055 40.6831 104.516 40.6992 104.896 40.4909L111.093 37.0935C111.29 36.9861 111.423 36.7853 111.424 36.5648C111.425 36.4574 111.397 36.3516 111.342 36.2586C111.288 36.1656 111.209 36.0886 111.114 36.0357L100.744 30.1764C100.55 30.0672 100.413 29.8464 100.413 29.627V25.9653C100.413 25.7461 100.551 25.5454 100.744 25.4362L103.966 23.6051C104.061 23.5514 104.167 23.5231 104.276 23.5231C104.385 23.5231 104.492 23.5514 104.586 23.6051L107.808 25.4362C107.903 25.4896 107.981 25.5667 108.036 25.6595C108.09 25.7524 108.119 25.8578 108.118 25.965V28.8539C108.118 28.9611 108.147 29.0665 108.201 29.1594C108.256 29.2522 108.334 29.3293 108.428 29.3827C108.622 29.4927 108.855 29.493 109.048 29.3827L115.225 25.8434C115.413 25.736 115.57 25.5817 115.678 25.396C115.787 25.2103 115.844 24.9997 115.845 24.7853V21.9577C115.845 21.5209 115.609 21.1191 115.225 20.8996L104.979 15.0403C104.79 14.933 104.576 14.8769 104.359 14.8777V14.8774ZM73.538 23.6257C73.592 23.6257 73.6551 23.6387 73.7034 23.6662L77.2359 25.6802C77.3318 25.7348 77.4013 25.8358 77.4013 25.9446V29.9728C77.4013 30.0822 77.3324 30.1829 77.2359 30.2375L73.7034 32.2516C73.6562 32.2781 73.6028 32.292 73.5485 32.292C73.4942 32.292 73.4408 32.2781 73.3936 32.2516L69.8613 30.2375C69.7651 30.1826 69.6959 30.0822 69.6959 29.9728V25.9446C69.6959 25.8355 69.7654 25.7354 69.8613 25.6802L73.3936 23.6664C73.437 23.6398 73.4872 23.6258 73.5383 23.626V23.6257H73.538Z" fill="#181433"/>
<path d="M42.6968 14.8164C42.4821 14.8164 42.2696 14.8701 42.0772 14.9793L31.7693 20.8182C31.3837 21.0368 31.1494 21.4587 31.1494 21.8964V33.6148C31.1494 34.053 31.384 34.4534 31.7693 34.6729L42.0772 40.5319C42.2655 40.6396 42.4793 40.6963 42.697 40.6963C42.9146 40.6963 43.1285 40.6396 43.3167 40.5319L53.6247 34.6729C53.8134 34.5658 53.97 34.4116 54.0788 34.2258C54.1876 34.04 54.2447 33.8292 54.2442 33.6148V21.8964C54.2442 21.4581 54.01 21.0368 53.6247 20.8182L43.3167 14.9793C43.1283 14.8721 42.9144 14.8159 42.6968 14.8164ZM104.338 25.2737C104.297 25.2737 104.252 25.2737 104.214 25.294L102.231 26.4333C102.194 26.4535 102.164 26.483 102.142 26.5187C102.12 26.5544 102.108 26.5952 102.107 26.6369V28.8746C102.107 28.9589 102.157 29.0361 102.231 29.0782L104.214 30.1971C104.289 30.2395 104.368 30.2395 104.442 30.1971L106.425 29.0779C106.461 29.0576 106.492 29.0281 106.514 28.9925C106.536 28.9568 106.548 28.9162 106.549 28.8746V26.6366C106.548 26.595 106.536 26.5544 106.514 26.5187C106.492 26.4831 106.461 26.4536 106.425 26.4333L104.442 25.2937C104.405 25.2725 104.38 25.2737 104.338 25.2737Z" fill="#322C58"/>
</g>
<defs>
<clipPath id="clip0_567_743">
<rect width="147" height="41" fill="white"/>
</clipPath>
</defs>
</svg>
