<svg width="79" height="77" viewBox="0 0 79 77" fill="none" xmlns="http://www.w3.org/2000/svg">
<g clip-path="url(#clip0_567_901)">
<path d="M14.3125 0.507812H64.6875C72.325 0.507812 78.5 6.67749 78.5 14.3084V62.6916C78.5 70.3226 72.325 76.4922 64.6875 76.4922H14.3125C6.675 76.4922 0.5 70.3226 0.5 62.6916V14.3084C0.5 6.67749 6.675 0.507812 14.3125 0.507812Z" fill="#181433"/>
<path d="M18.0498 53.7938V20.3801C18.0498 20.1528 18.1473 20.023 18.3748 20.023C18.9273 20.023 19.4473 20.023 20.1948 19.9905C20.9748 19.958 21.7873 19.958 22.6648 19.9255C23.5423 19.8931 24.4848 19.8931 25.4923 19.8606C26.4998 19.8281 27.4748 19.8281 28.4498 19.8281C31.1148 19.8281 33.3248 20.1528 35.1448 20.8348C36.7698 21.3868 38.2648 22.296 39.4998 23.4975C40.5398 24.5366 41.3523 25.803 41.8723 27.1993C42.3598 28.5631 42.6198 29.9594 42.6198 31.4206C42.6198 34.2132 41.9698 36.5187 40.6698 38.3371C39.3698 40.1556 37.5498 41.5194 35.4373 42.2987C33.2273 43.1105 30.7898 43.4028 28.1248 43.4028C27.3448 43.4028 26.8248 43.4028 26.4998 43.3703C26.1748 43.3378 25.7198 43.3378 25.1023 43.3378V53.7613C25.1348 53.9886 24.9723 54.1835 24.7448 54.2159H18.4398C18.1798 54.2159 18.0498 54.0861 18.0498 53.7938ZM25.1348 26.29V37.2006C25.5898 37.2331 26.0123 37.2656 26.4023 37.2656H28.1248C29.3923 37.2656 30.6598 37.0707 31.8623 36.6811C32.9023 36.3888 33.8123 35.7719 34.5273 34.9601C35.2098 34.1483 35.5348 33.0442 35.5348 31.6155C35.5673 30.6088 35.3073 29.6022 34.7873 28.7254C34.2348 27.8812 33.4548 27.2317 32.5123 26.8745C31.3098 26.3875 30.0098 26.1926 28.6773 26.2251C27.8323 26.2251 27.0848 26.2251 26.4673 26.2576C25.8173 26.2251 25.3623 26.2576 25.1348 26.29ZM62.8998 35.2198C61.9248 34.7003 60.8848 34.3431 59.7798 34.1158C58.5773 33.856 57.3748 33.6937 56.1398 33.6937C55.4898 33.6612 54.8073 33.7586 54.1898 33.921C53.7673 34.0184 53.4098 34.2457 53.1823 34.5704C53.0198 34.8302 52.9223 35.1549 52.9223 35.4471C52.9223 35.7394 53.0523 36.0316 53.2473 36.2914C53.5398 36.6486 53.9298 36.9409 54.3523 37.1682C55.0998 37.5578 55.8798 37.915 56.6598 38.2397C58.4148 38.8242 60.1048 39.636 61.6648 40.6102C62.7373 41.2921 63.6148 42.2013 64.2323 43.3054C64.7523 44.3445 65.0123 45.481 64.9798 46.65C65.0123 48.1762 64.5573 49.7023 63.7123 50.9687C62.8023 52.2676 61.5348 53.2743 60.0723 53.8587C58.4798 54.5407 56.5298 54.8979 54.1898 54.8979C52.6948 54.8979 51.2323 54.768 49.7698 54.4757C48.6323 54.2809 47.4948 53.9237 46.4548 53.4366C46.2273 53.3067 46.0648 53.0794 46.0973 52.8196V47.1695C46.0973 47.0721 46.1298 46.9422 46.2273 46.8773C46.3248 46.8123 46.4223 46.8448 46.5198 46.9097C47.7873 47.6566 49.1198 48.1762 50.5498 48.5009C51.7848 48.8256 53.0848 48.988 54.3848 48.988C55.6198 48.988 56.4973 48.8256 57.0823 48.5333C57.6023 48.306 57.9598 47.754 57.9598 47.1695C57.9598 46.7149 57.6998 46.2928 57.1798 45.8706C56.6598 45.4485 55.5873 44.9614 53.9948 44.3445C52.3373 43.76 50.8098 42.9806 49.3798 42.0065C48.3723 41.2921 47.5273 40.3504 46.9098 39.2464C46.3898 38.2073 46.1298 37.0707 46.1623 35.9342C46.1623 34.5379 46.5523 33.2066 47.2673 32.0051C48.0798 30.7062 49.2823 29.6671 50.6798 29.0177C52.2073 28.2384 54.1248 27.8812 56.4323 27.8812C57.7648 27.8812 59.1298 27.9786 60.4623 28.1734C61.4373 28.3033 62.3798 28.5631 63.2573 28.9203C63.3873 28.9527 63.5173 29.0826 63.5823 29.2125C63.6148 29.3424 63.6473 29.4723 63.6473 29.6022V34.8951C63.6473 35.025 63.5823 35.1549 63.4848 35.2198C63.1923 35.2848 63.0298 35.2848 62.8998 35.2198Z" fill="#ECECFF"/>
</g>
<defs>
<clipPath id="clip0_567_901">
<rect width="78" height="76" fill="white" transform="translate(0.5 0.5)"/>
</clipPath>
</defs>
</svg>
