<svg width="165" height="48" viewBox="0 0 165 48" fill="none" xmlns="http://www.w3.org/2000/svg">
<g clip-path="url(#clip0_567_752)">
<path d="M62.2132 27.3143C62.2132 22.3505 60.7703 19.8022 57.8842 19.6627C56.7357 19.6096 55.615 19.7889 54.5241 20.2044C53.6536 20.5098 53.0677 20.8125 52.7594 21.1183V32.9662C54.6054 34.1027 56.2447 34.6311 57.6743 34.5479C60.6987 34.3512 62.2132 31.9426 62.2132 27.3143ZM65.7731 27.5202C65.7731 30.0419 65.1702 32.1352 63.9574 33.7997C62.6059 35.6837 60.7328 36.6538 58.3381 36.707C56.5327 36.7632 54.6728 36.2086 52.7591 35.0456V45.814L49.6631 44.7307V20.8289C50.1712 20.2177 50.8252 19.6927 51.6175 19.2472C53.4604 18.1939 55.6991 17.6526 58.3346 17.626L58.3784 17.669C60.787 17.6393 62.6427 18.6095 63.947 20.5763C65.1633 22.3805 65.7731 24.693 65.7731 27.5202ZM84.6942 34.5874C84.6942 37.9699 84.3488 40.312 83.6579 41.6145C82.9636 42.9166 81.6424 43.9566 79.6914 44.7311C78.1095 45.3422 76.3987 45.6746 74.5632 45.7312L74.0513 43.8175C75.9178 43.5687 77.2321 43.3192 77.9942 43.07C79.4947 42.5716 80.5244 41.8077 81.0902 40.7841C81.544 39.9503 81.7675 38.3588 81.7675 36.0034V35.2126C79.6504 36.1564 77.4319 36.6248 75.1119 36.6248C73.5873 36.6248 72.2428 36.1564 71.0842 35.2126C69.7835 34.1859 69.1333 32.8838 69.1333 31.3055V18.666L72.2293 17.626V30.3477C72.2293 31.7064 72.6762 32.7532 73.5703 33.4874C74.4645 34.2217 75.6231 34.5741 77.0423 34.5472C78.4616 34.5172 79.9823 33.979 81.5979 32.9257V18.0842H84.6939V34.5874H84.6942ZM96.7797 36.541C96.4406 36.5691 96.1005 36.5834 95.7601 36.5839C94.009 36.5839 92.6436 36.1755 91.6685 35.3547C90.6961 34.5342 90.2086 33.4015 90.2086 31.9559V19.9947H88.0881V18.0845H90.2086V13.011L93.3011 11.9311V18.0845H96.7797V19.9947H93.3011V31.8727C93.3011 33.0126 93.6125 33.8198 94.2356 34.2919C94.7707 34.6805 95.6211 34.9031 96.7794 34.9597V36.541H96.7797ZM115.525 36.2918H112.429V24.5699C112.429 23.3772 112.145 22.3505 111.579 21.4936C110.925 20.5231 110.018 20.038 108.852 20.038C107.433 20.038 105.658 20.7723 103.527 22.2407V36.2918H100.432V8.27323L103.527 7.31641V20.0779C105.505 18.6657 107.667 17.958 110.014 17.958C111.654 17.958 112.981 18.4997 113.998 19.5796C115.017 20.6591 115.525 22.0049 115.525 23.6131V36.2918H115.525ZM131.98 26.836C131.98 24.9289 131.611 23.354 130.876 22.1081C130.002 20.5899 128.644 19.7889 126.808 19.706C123.414 19.8986 121.72 22.284 121.72 26.8561C121.72 28.9525 122.072 30.7035 122.784 32.109C123.691 33.8999 125.053 34.7838 126.869 34.7538C130.276 34.7268 131.98 32.0888 131.98 26.836ZM135.371 26.8558C135.371 29.5705 134.663 31.8298 133.25 33.6337C131.695 35.654 129.548 36.6671 126.808 36.6671C124.091 36.6671 121.974 35.6537 120.446 33.6337C119.061 31.8298 118.37 29.5705 118.37 26.8558C118.37 24.3044 119.118 22.1579 120.616 20.4103C122.198 18.5563 124.277 17.626 126.848 17.626C129.419 17.626 131.512 18.5563 133.125 20.4103C134.622 22.1579 135.371 24.3044 135.371 26.8558ZM153.12 36.2918H150.024V23.9056C150.024 22.5468 149.607 21.4867 148.774 20.7225C147.941 19.9617 146.829 19.5929 145.444 19.6225C143.975 19.6491 142.575 20.1209 141.248 21.0347V36.2918H138.152V20.6594C139.933 19.3873 141.573 18.5563 143.07 18.1677C144.482 17.8057 145.729 17.626 146.803 17.626C147.537 17.626 148.229 17.6956 148.879 17.8353C150.095 18.1111 151.084 18.6227 151.846 19.3737C152.696 20.2044 153.12 21.2007 153.12 22.3672V36.2918Z" fill="#181433"/>
<path d="M19.085 9.00424C17.492 9.0114 15.9709 9.14468 14.6326 9.37715C10.6897 10.0606 9.97386 11.4906 9.97386 14.1282V17.6116H19.2914V18.7726H6.47683C3.769 18.7726 1.39756 20.3692 0.655966 23.4064C-0.199613 26.8877 -0.237492 29.06 0.655966 32.6951C1.31833 35.4009 2.90021 37.3289 5.60804 37.3289H8.81177V33.1532C8.81177 30.1365 11.4727 27.4757 14.6326 27.4757H23.9394C26.5301 27.4757 28.5982 25.3834 28.5982 22.8313V14.1279C28.5982 11.6511 26.4679 9.79029 23.9394 9.37681C22.3384 9.1157 20.678 8.99674 19.085 9.00424ZM14.046 11.8055C15.0086 11.8055 15.7944 12.5892 15.7944 13.5525C15.7944 14.5124 15.0083 15.2889 14.046 15.2889C13.0803 15.2889 12.2977 14.5127 12.2977 13.5525C12.2977 12.5892 13.0803 11.8055 14.046 11.8055Z" fill="url(#paint0_linear_567_752)"/>
<path d="M29.761 18.7715V22.8299C29.761 25.9765 27.0414 28.6247 23.9402 28.6247H14.6334C12.084 28.6247 9.97461 30.7647 9.97461 33.2691V41.9718C9.97461 44.4489 12.1702 45.9058 14.6334 46.6162C17.5827 47.467 20.4111 47.6207 23.9402 46.6162C26.2859 45.9501 28.5989 44.6091 28.5989 41.9718V38.4888H19.2922V37.3278H33.2577C35.9659 37.3278 36.9747 35.4748 37.9165 32.694C38.8895 29.8314 38.8482 27.0778 37.9165 23.4053C37.2472 20.7611 35.969 18.7715 33.2577 18.7715H29.761ZM24.5264 40.8108C25.4922 40.8108 26.2748 41.587 26.2748 42.5472C26.2748 43.5105 25.4922 44.2942 24.5264 44.2942C23.5638 44.2942 22.7781 43.5105 22.7781 42.5472C22.7781 41.5873 23.5641 40.8108 24.5264 40.8108Z" fill="url(#paint1_linear_567_752)"/>
<path d="M159.148 15.376H159.691V12.0368H160.977V11.6387H157.862V12.0368H159.148V15.376H159.148ZM161.458 15.376H161.922V12.3262L162.928 15.3756H163.444L164.494 12.3364V15.376H165V11.639H164.33L163.184 14.8408L162.207 11.639H161.458V15.376Z" fill="#181433"/>
</g>
<defs>
<linearGradient id="paint0_linear_567_752" x1="-0.918968" y1="10.0919" x2="20.2173" y2="28.4517" gradientUnits="userSpaceOnUse">
<stop stop-color="#306998"/>
<stop offset="1" stop-color="#181433"/>
</linearGradient>
<linearGradient id="paint1_linear_567_752" x1="28.6302" y1="39.2424" x2="21.1173" y2="28.5105" gradientUnits="userSpaceOnUse">
<stop stop-color="#181433"/>
<stop offset="1" stop-color="#01041C"/>
</linearGradient>
<clipPath id="clip0_567_752">
<rect width="165" height="47" fill="white" transform="translate(0 0.5)"/>
</clipPath>
</defs>
</svg>
