<svg width="187" height="67" viewBox="0 0 187 67" fill="none" xmlns="http://www.w3.org/2000/svg">
<path d="M46.1281 19.8023L41.2678 24.7035C49.2483 32.7512 49.2483 45.7001 41.2678 53.6268C33.2872 61.6744 20.4464 61.6744 12.5858 53.6268C4.60531 45.5791 4.60531 32.6302 12.5858 24.7035L25.2467 11.9362L27.0468 10.1209V0.5L7.96553 19.7418C-2.65518 30.4519 -2.65518 47.7574 7.96553 58.4675C18.5862 69.1775 35.7474 69.1775 46.1881 58.4675C56.7488 47.7574 56.7488 30.5729 46.1281 19.8023Z" fill="#181433"/>
<path d="M36.5871 18.6517C38.5423 18.6517 40.1273 17.0534 40.1273 15.0818C40.1273 13.1101 38.5423 11.5117 36.5871 11.5117C34.6319 11.5117 33.0469 13.1101 33.0469 15.0818C33.0469 17.0534 34.6319 18.6517 36.5871 18.6517Z" fill="#181433"/>
<path d="M72.642 45V23.1818H80.0142C81.7259 23.1818 83.125 23.4908 84.2116 24.1087C85.3054 24.7195 86.1151 25.5469 86.6406 26.5909C87.1662 27.6349 87.429 28.7997 87.429 30.0852C87.429 31.3707 87.1662 32.5391 86.6406 33.5902C86.1222 34.6413 85.3196 35.4794 84.233 36.1044C83.1463 36.7223 81.7543 37.0312 80.0568 37.0312H74.7727V34.6875H79.9716C81.1435 34.6875 82.0845 34.4851 82.7947 34.0803C83.505 33.6754 84.0199 33.1286 84.3395 32.4396C84.6662 31.7436 84.8295 30.9588 84.8295 30.0852C84.8295 29.2116 84.6662 28.4304 84.3395 27.7415C84.0199 27.0526 83.5014 26.5128 82.7841 26.1222C82.0668 25.7244 81.1151 25.5256 79.929 25.5256H75.2841V45H72.642ZM92.9634 51.1364C92.5373 51.1364 92.1573 51.1009 91.8235 51.0298C91.4897 50.9659 91.2589 50.902 91.131 50.8381L91.7702 48.6222C92.381 48.7784 92.9208 48.8352 93.3896 48.7926C93.8583 48.75 94.2738 48.5405 94.636 48.1641C95.0053 47.7947 95.3427 47.1946 95.6481 46.3636L96.1168 45.0852L90.0657 28.6364H92.793L97.31 41.6761H97.4805L101.998 28.6364H104.725L97.7788 47.3864C97.4663 48.2315 97.0792 48.9311 96.6175 49.4851C96.1559 50.0462 95.6197 50.4616 95.0089 50.7315C94.4052 51.0014 93.7234 51.1364 92.9634 51.1364ZM106.166 25.5256V23.1818H122.529V25.5256H115.669V45H113.026V25.5256H106.166ZM130.541 45.3409C129.063 45.3409 127.767 44.9893 126.652 44.2862C125.544 43.5831 124.678 42.5994 124.053 41.3352C123.435 40.071 123.126 38.5937 123.126 36.9034C123.126 35.1989 123.435 33.7109 124.053 32.4396C124.678 31.1683 125.544 30.1811 126.652 29.478C127.767 28.7749 129.063 28.4233 130.541 28.4233C132.018 28.4233 133.311 28.7749 134.419 29.478C135.534 30.1811 136.4 31.1683 137.018 32.4396C137.643 33.7109 137.955 35.1989 137.955 36.9034C137.955 38.5937 137.643 40.071 137.018 41.3352C136.4 42.5994 135.534 43.5831 134.419 44.2862C133.311 44.9893 132.018 45.3409 130.541 45.3409ZM130.541 43.0824C131.663 43.0824 132.586 42.7947 133.311 42.2195C134.035 41.6442 134.571 40.8878 134.919 39.9503C135.267 39.0128 135.441 37.9972 135.441 36.9034C135.441 35.8097 135.267 34.7905 134.919 33.8459C134.571 32.9013 134.035 32.1378 133.311 31.5554C132.586 30.973 131.663 30.6818 130.541 30.6818C129.419 30.6818 128.495 30.973 127.771 31.5554C127.046 32.1378 126.51 32.9013 126.162 33.8459C125.814 34.7905 125.64 35.8097 125.64 36.9034C125.64 37.9972 125.814 39.0128 126.162 39.9503C126.51 40.8878 127.046 41.6442 127.771 42.2195C128.495 42.7947 129.419 43.0824 130.541 43.0824ZM141.793 45V28.6364H144.222V31.108H144.393C144.691 30.2983 145.231 29.6413 146.012 29.1371C146.793 28.6328 147.674 28.3807 148.654 28.3807C148.839 28.3807 149.07 28.3842 149.347 28.3913C149.624 28.3984 149.833 28.4091 149.975 28.4233V30.9801C149.89 30.9588 149.695 30.9268 149.389 30.8842C149.091 30.8345 148.775 30.8097 148.441 30.8097C147.646 30.8097 146.935 30.9766 146.31 31.3104C145.692 31.6371 145.202 32.0916 144.84 32.674C144.485 33.2493 144.308 33.9062 144.308 34.6449V45H141.793ZM159.105 45.3409C157.571 45.3409 156.25 44.9787 155.142 44.2543C154.034 43.5298 153.182 42.532 152.585 41.2607C151.989 39.9893 151.69 38.5369 151.69 36.9034C151.69 35.2415 151.996 33.7749 152.607 32.5036C153.224 31.2251 154.084 30.2273 155.185 29.5099C156.293 28.7855 157.585 28.4233 159.062 28.4233C160.213 28.4233 161.25 28.6364 162.173 29.0625C163.097 29.4886 163.853 30.0852 164.442 30.8523C165.032 31.6193 165.398 32.5142 165.54 33.5369H163.026C162.834 32.7912 162.408 32.1307 161.747 31.5554C161.094 30.973 160.213 30.6818 159.105 30.6818C158.125 30.6818 157.266 30.9375 156.527 31.4489C155.795 31.9531 155.224 32.6669 154.812 33.5902C154.407 34.5064 154.205 35.5824 154.205 36.8182C154.205 38.0824 154.403 39.1832 154.801 40.1207C155.206 41.0582 155.774 41.7862 156.506 42.3047C157.244 42.8232 158.111 43.0824 159.105 43.0824C159.759 43.0824 160.352 42.9688 160.884 42.7415C161.417 42.5142 161.868 42.1875 162.237 41.7614C162.607 41.3352 162.869 40.8239 163.026 40.2273H165.54C165.398 41.1932 165.046 42.0632 164.485 42.8374C163.931 43.6044 163.196 44.2152 162.28 44.6697C161.371 45.1172 160.313 45.3409 159.105 45.3409ZM171.729 35.1562V45H169.215V23.1818H171.729V31.1932H171.942C172.326 30.348 172.901 29.6768 173.668 29.1797C174.442 28.6754 175.472 28.4233 176.758 28.4233C177.873 28.4233 178.849 28.647 179.688 29.0945C180.526 29.5348 181.175 30.2131 181.637 31.1293C182.106 32.0384 182.34 33.196 182.34 34.6023V45H179.826V34.7727C179.826 33.473 179.489 32.468 178.814 31.7578C178.146 31.0405 177.219 30.6818 176.033 30.6818C175.21 30.6818 174.471 30.8558 173.817 31.2038C173.171 31.5518 172.66 32.0597 172.283 32.7273C171.914 33.3949 171.729 34.2045 171.729 35.1562Z" fill="black"/>
</svg>
