<svg width="149" height="51" viewBox="0 0 149 51" fill="none" xmlns="http://www.w3.org/2000/svg">
<path d="M23.8672 25.4536C23.8672 22.7082 26.1039 20.498 28.8823 20.498C31.6604 20.498 33.8975 22.7082 33.8975 25.4536C33.8975 28.1988 31.6604 30.4091 28.8823 30.4091C26.1039 30.4091 23.8672 28.1988 23.8672 25.4536Z" fill="#181433"/>
<path d="M28.8823 15.3789C35.6157 15.3789 41.8708 16.3336 46.5873 17.9379C52.2698 19.8711 55.7637 22.8012 55.7637 25.4546C55.7637 28.2192 52.0608 31.3322 45.9586 33.33C41.3451 34.8405 35.2739 35.6288 28.8823 35.6288C22.3291 35.6288 16.1233 34.8889 11.458 33.3135C5.55527 31.3199 2 28.1668 2 25.4546C2 22.8228 5.336 19.9153 10.9386 17.9852C15.6724 16.3543 22.0822 15.3789 28.8813 15.3789H28.8823Z" stroke="#181433" stroke-width="4"/>
<path d="M20.0055 20.4447C23.3692 14.6811 27.331 9.80374 31.0937 6.56807C35.6274 2.66972 39.9417 1.14275 42.2676 2.46808C44.6915 3.8494 45.5706 8.57418 44.2735 14.7957C43.2939 19.4994 40.9512 25.0896 37.7582 30.561C34.4841 36.1705 30.7353 41.1127 27.0238 44.3182C22.3274 48.375 17.7869 49.8432 15.4091 48.4881C13.102 47.1744 12.2195 42.8655 13.3264 37.1055C14.2616 32.2384 16.6086 26.2648 20.0043 20.4447H20.0055Z" stroke="#181433" stroke-width="4"/>
<path d="M20.0144 30.5766C16.641 24.8193 14.3442 18.9907 13.3855 14.1538C12.2314 8.32563 13.0474 3.86977 15.3714 2.54051C17.7929 1.1553 22.3746 2.76208 27.1813 6.97966C30.816 10.1684 34.5477 14.9648 37.7503 20.4311C41.0337 26.035 43.4942 31.7126 44.4517 36.4909C45.6631 42.5375 44.6825 47.1576 42.3072 48.5164C40.0022 49.8349 35.7843 48.439 31.2867 44.6146C27.4866 41.3836 23.4209 36.3909 20.0144 30.5764V30.5766Z" stroke="#181433" stroke-width="4"/>
<path d="M82.4123 38.1162L76.2655 28.9395C79.3721 28.6686 82.1713 26.4443 82.1713 22.3809C82.1713 18.2459 79.2019 15.5996 75.0361 15.5996H65.8877V38.0991H68.7216V29.1592H73.2626L79.0661 38.0991L82.4123 38.1162ZM74.6969 26.7139H68.7231V18.1119H74.6969C77.3953 18.1119 79.2379 19.8656 79.2379 22.3965C79.2379 24.9272 77.3938 26.7167 74.6969 26.7167V26.7139ZM92.9618 38.5196C95.6601 38.5196 97.8779 37.6428 99.517 36.0245L98.2877 34.3705C96.9889 35.6865 95.0785 36.4279 93.2013 36.4279C89.6516 36.4279 87.4657 33.8643 87.2606 30.796H100.608V30.1543C100.608 25.2637 97.6715 21.4169 92.6862 21.4169C87.9749 21.4169 84.5624 25.2296 84.5624 29.9518C84.5624 35.0463 88.0788 38.5067 92.9602 38.5067L92.9618 38.5196ZM98.0843 28.938H87.2621C87.3992 26.443 89.138 23.5058 92.6559 23.5058C96.4118 23.5058 98.0496 26.5085 98.0843 28.938ZM117.613 38.1147V26.9148C117.613 22.9683 114.713 21.4154 111.229 21.4154C108.531 21.4154 106.416 22.2923 104.641 24.1146L105.836 25.8683C107.303 24.317 108.909 23.6085 110.889 23.6085C113.279 23.6085 115.055 24.856 115.055 27.0488V29.9832C113.723 28.4648 111.846 27.7562 109.592 27.7562C106.792 27.7562 103.82 29.477 103.82 33.1199C103.82 36.6617 106.79 38.5181 109.592 38.5181C111.811 38.5181 113.69 37.7426 115.055 36.2582V38.1119L117.613 38.1147ZM110.514 36.6973C108.124 36.6973 106.45 35.2144 106.45 33.1556C106.45 31.064 108.124 29.5797 110.514 29.5797C112.323 29.5797 114.063 30.254 115.055 31.6045V34.6741C114.065 36.023 112.323 36.6989 110.514 36.6989V36.6973ZM129.994 38.5196C132.998 38.5196 134.773 37.3049 136.037 35.6865L134.33 34.1351C133.237 35.5853 131.838 36.2598 130.145 36.2598C126.629 36.2598 124.446 33.5606 124.446 29.9518C124.446 26.3431 126.63 23.6783 130.145 23.6783C131.852 23.6783 133.252 24.32 134.33 25.8027L136.037 24.2514C134.774 22.6316 132.998 21.4184 129.994 21.4184C125.077 21.4184 121.766 25.1296 121.766 29.9534C121.766 34.811 125.077 38.5082 129.994 38.5082V38.5196ZM143.788 38.5196C145.289 38.5196 146.212 38.0805 146.862 37.4743L146.111 35.5853C145.769 35.9559 145.101 36.2598 144.37 36.2598C143.244 36.2598 142.696 35.3829 142.696 34.168V24.0476H146.044V21.8218H142.696V17.369H140.135V21.8218H137.403V24.049H140.135V34.7098C140.135 37.1394 141.364 38.5225 143.788 38.5225V38.5196Z" fill="#181433"/>
</svg>
