<svg width="75" height="81" viewBox="0 0 75 81" fill="none" xmlns="http://www.w3.org/2000/svg">
<path d="M73.6924 32.6269C73.6924 27.774 67.6368 23.1749 58.3523 20.3228C60.4949 10.8259 59.5427 3.27018 55.3466 0.851145C54.3794 0.283715 53.2489 0.014925 52.0138 0.014925V3.34484C52.6982 3.34484 53.2489 3.47924 53.71 3.73307C55.7335 4.89778 56.6115 9.33268 55.9268 15.0368C55.7635 16.4404 55.4956 17.9187 55.1683 19.4269C52.2517 18.7101 49.0677 18.1577 45.72 17.7993C43.7115 15.0368 41.6284 12.5282 39.5303 10.3331C44.3809 5.80866 48.934 3.32989 52.0288 3.32989V0C47.9369 0 42.5806 2.92673 37.1648 8.00369C31.7486 2.95659 26.3923 0.0597348 22.3007 0.0597348V3.38962C25.3806 3.38962 29.9483 5.85347 34.7989 10.3481C32.7158 12.5431 30.6327 15.0368 28.6538 17.7993C25.2911 18.1577 22.1071 18.7101 19.1909 19.4418C18.8485 17.9486 18.5957 16.5001 18.417 15.1115C17.718 9.40733 18.5807 4.97244 20.5896 3.7928C21.0357 3.52401 21.616 3.40458 22.3007 3.40458V0.0746598C21.0507 0.0746598 19.9198 0.34345 18.938 0.910879C14.7569 3.32989 13.8196 10.8707 15.9769 20.3378C6.72227 23.2048 0.696289 27.789 0.696289 32.6269C0.696289 37.4801 6.75201 42.0793 16.0365 44.9311C13.8938 54.4282 14.846 61.9837 19.0421 64.4028C20.0093 64.9701 21.1399 65.2389 22.3899 65.2389C26.4815 65.2389 31.8381 62.3123 37.2539 57.2353C42.6697 62.2826 48.0263 65.1795 52.118 65.1795C53.3676 65.1795 54.4985 64.9107 55.4807 64.3431C59.6615 61.924 60.5991 54.3831 58.4414 44.9164C67.6664 42.0642 73.6924 37.4651 73.6924 32.6269ZM54.3202 22.6672C53.7696 24.5936 53.0852 26.5793 52.3113 28.5653C51.7014 27.371 51.0616 26.1763 50.3623 24.9816C49.6779 23.7871 48.9486 22.6224 48.2196 21.4875C50.3323 21.8011 52.3708 22.1894 54.3202 22.6672ZM47.5053 38.57C46.3448 40.5861 45.1547 42.4973 43.9197 44.2743C41.7026 44.4683 39.4561 44.5728 37.1944 44.5728C34.9476 44.5728 32.7008 44.4683 30.4989 44.289C29.2639 42.512 28.0585 40.6158 26.8981 38.6147C25.7672 36.6587 24.7408 34.6727 23.8032 32.672C24.7258 30.6709 25.7672 28.6698 26.8834 26.7138C28.0439 24.6981 29.234 22.7866 30.469 21.0097C32.6862 20.8156 34.9326 20.7111 37.1944 20.7111C39.4411 20.7111 41.6879 20.8156 43.8898 20.9948C45.1248 22.7717 46.3302 24.668 47.4907 26.6691C48.6216 28.6251 49.648 30.6111 50.5855 32.6122C49.648 34.6129 48.6216 36.614 47.5053 38.57ZM52.3113 36.629C53.0924 38.575 53.7777 40.5583 54.3648 42.5718C52.4154 43.0496 50.3623 43.4529 48.2346 43.7665C48.9636 42.6168 49.6925 41.4372 50.3773 40.2274C51.0616 39.0331 51.7014 37.8234 52.3113 36.629ZM37.224 52.5617C35.8402 51.128 34.4565 49.5302 33.0877 47.7833C34.4269 47.843 35.7957 47.8878 37.1794 47.8878C38.5781 47.8878 39.9618 47.8581 41.316 47.7833C40.0388 49.4489 38.6728 51.0441 37.224 52.5617ZM26.1541 43.7665C24.0414 43.4529 22.0029 43.0646 20.0539 42.5868C20.6042 40.6605 21.2889 38.6745 22.0625 36.6884C22.6727 37.8831 23.3125 39.0778 24.0115 40.2722C24.7108 41.4669 25.4252 42.6315 26.1541 43.7665ZM37.1498 12.6924C38.5335 14.1259 39.9173 15.7237 41.286 17.4708C39.9469 17.411 38.5781 17.3662 37.1944 17.3662C35.7957 17.3662 34.4119 17.3961 33.0581 17.4708C34.3352 15.8051 35.7011 14.21 37.1498 12.6924ZM26.1391 21.4875C25.4102 22.6373 24.6812 23.817 23.9968 25.0263C23.3125 26.221 22.6727 27.4157 22.0625 28.6101C21.2813 26.6641 20.5961 24.6807 20.0093 22.6672C21.9583 22.2043 24.0115 21.8011 26.1391 21.4875ZM12.6738 40.1827C7.40671 37.9279 3.99942 34.9715 3.99942 32.6269C3.99942 30.2826 7.40671 27.3112 12.6738 25.0714C13.9534 24.5188 15.3521 24.026 16.7954 23.5631C17.6434 26.4898 18.7593 29.536 20.1431 32.6569C18.7743 35.7629 17.6731 38.794 16.84 41.706C15.3671 41.2428 13.9683 40.7353 12.6738 40.1827ZM20.6787 61.5209C18.6552 60.3563 17.7772 55.9214 18.4619 50.2171C18.6256 48.8137 18.8931 47.3352 19.2205 45.827C22.137 46.5438 25.321 47.0964 28.6687 47.4547C30.6773 50.2171 32.7604 52.7257 34.8584 54.9207C30.0079 59.4454 25.4548 61.9239 22.3599 61.9239C21.6905 61.9093 21.1252 61.7747 20.6787 61.5209ZM55.9717 50.1426C56.6708 55.8466 55.8081 60.2815 53.7992 61.4612C53.353 61.73 52.7728 61.8495 52.088 61.8495C49.0082 61.8495 44.4404 59.3856 39.5899 54.891C41.673 52.6959 43.756 50.2024 45.735 47.4397C49.0977 47.0814 52.2817 46.5288 55.1979 45.7972C55.5402 47.3055 55.8081 48.7539 55.9717 50.1426ZM61.7 40.1827C60.4204 40.7353 59.0217 41.2281 57.5784 41.6909C56.7303 38.7643 55.6144 35.7181 54.2307 32.5972C55.5998 29.4912 56.7007 26.4601 57.5338 23.5482C59.007 24.0111 60.4054 24.5188 61.715 25.0714C66.9821 27.3259 70.3893 30.2826 70.3893 32.6269C70.3743 34.9715 66.9671 37.9429 61.7 40.1827Z" fill="#181433"/>
<path d="M37.1798 39.4509C40.9354 39.4509 43.9797 36.3957 43.9797 32.6267C43.9797 28.8579 40.9354 25.8027 37.1798 25.8027C33.4245 25.8027 30.3802 28.8579 30.3802 32.6267C30.3802 36.3957 33.4245 39.4509 37.1798 39.4509ZM4.0113 76.9883H1.76669V80.8679H0.5V71.2776H3.66345C4.7398 71.2776 5.56678 71.5237 6.14433 72.0155C6.72627 72.507 7.01725 73.2229 7.01725 74.1625C7.01725 74.7598 6.85536 75.2801 6.53156 75.7238C6.21216 76.1672 5.76587 76.4988 5.19268 76.7182L7.4373 80.7887V80.8679H6.08527L4.0113 76.9883ZM1.76669 75.9542H3.70285C4.32854 75.9542 4.82514 75.7916 5.19268 75.4667C5.56458 75.1418 5.75053 74.7071 5.75053 74.1625C5.75053 73.5698 5.57333 73.1154 5.21893 72.7992C4.86889 72.483 4.36134 72.3227 3.69626 72.3184H1.76669V75.9542ZM11.546 80.9998C10.5833 80.9998 9.80002 80.6836 9.19623 80.0512C8.59239 79.4144 8.29049 78.5646 8.29049 77.5022V77.2781C8.29049 76.5712 8.42394 75.9412 8.69084 75.3879C8.96213 74.83 9.33842 74.3952 9.81972 74.0837C10.3054 73.7675 10.8305 73.6092 11.3949 73.6092C12.3182 73.6092 13.0358 73.9144 13.5475 74.5248C14.0596 75.1351 14.3154 76.009 14.3154 77.1462V77.6534H9.50468C9.52218 78.3563 9.72566 78.9249 10.1151 79.3596C10.5089 79.7897 11.0077 80.0051 11.6115 80.0051C12.0404 80.0051 12.4034 79.9173 12.7008 79.7416C12.9986 79.566 13.2588 79.3333 13.482 79.0434L14.2236 79.6231C13.6284 80.5406 12.7361 80.9998 11.546 80.9998ZM11.3949 74.6106C10.9048 74.6106 10.4936 74.7906 10.161 75.1505C9.82847 75.5064 9.62282 76.007 9.54407 76.6524H13.1014V76.5602C13.0665 75.9412 12.9001 75.4624 12.6027 75.1241C12.3049 74.7819 11.9023 74.6106 11.3949 74.6106ZM20.1109 80.8679C20.0407 80.7273 19.9838 80.4772 19.9402 80.1169C19.3756 80.7053 18.7019 80.9998 17.9187 80.9998C17.2186 80.9998 16.6434 80.8021 16.1926 80.4068C15.7464 80.0071 15.5232 79.5022 15.5232 78.8919C15.5232 78.1499 15.8033 77.5746 16.3633 77.1663C16.9275 76.7532 17.7197 76.5469 18.7391 76.5469H19.9206V75.9873C19.9206 75.5612 19.7935 75.223 19.54 74.9729C19.2861 74.7181 18.9118 74.5909 18.4174 74.5909C17.9842 74.5909 17.6212 74.7004 17.3281 74.9201C17.035 75.1395 16.8883 75.4053 16.8883 75.7171H15.6676C15.6676 75.3615 15.7923 75.0189 16.0415 74.6894C16.2954 74.3558 16.6367 74.0924 17.0656 73.899C17.4988 73.7061 17.9732 73.6092 18.4896 73.6092C19.3081 73.6092 19.9488 73.8156 20.4126 74.2286C20.8764 74.637 21.117 75.2013 21.1346 75.9211V79.2014C21.1346 79.8558 21.2178 80.376 21.3842 80.7624V80.8679H20.1109ZM18.096 79.9393C18.4766 79.9393 18.8376 79.8405 19.179 79.6428C19.52 79.4451 19.7672 79.1884 19.9206 78.8722V77.41H18.9687C17.4812 77.41 16.7372 77.8467 16.7372 78.7206C16.7372 79.1025 16.8643 79.4014 17.1178 79.6164C17.3717 79.8314 17.6977 79.9393 18.096 79.9393ZM25.8864 80.0051C26.3195 80.0051 26.6982 79.8732 27.0219 79.6097C27.3456 79.3463 27.5249 79.0171 27.5599 78.6217H28.7087C28.6868 79.0301 28.5467 79.4187 28.2885 79.7877C28.0303 80.1567 27.6846 80.4508 27.2515 80.6702C26.8226 80.8899 26.3678 80.9998 25.8864 80.9998C24.9195 80.9998 24.1493 80.6769 23.576 80.0315C23.0074 79.3813 22.723 78.4945 22.723 77.3703V77.1663C22.723 76.4724 22.8497 75.8554 23.1036 75.3154C23.3574 74.7752 23.7204 74.3558 24.1932 74.0573C24.67 73.7585 25.2323 73.6092 25.8797 73.6092C26.6762 73.6092 27.337 73.8486 27.862 74.3274C28.3913 74.8059 28.6735 75.4273 28.7087 76.1913H27.5599C27.5249 75.7301 27.3499 75.3525 27.0349 75.0583C26.7245 74.7598 26.3392 74.6106 25.8797 74.6106C25.2629 74.6106 24.7838 74.8343 24.4424 75.2824C24.1057 75.7258 23.937 76.3692 23.937 77.2123V77.4427C23.937 78.2638 24.1057 78.8962 24.4424 79.3396C24.7794 79.7834 25.2609 80.0051 25.8864 80.0051ZM31.7211 72.0155V73.7411H33.0469V74.683H31.7211V79.1025C31.7211 79.388 31.7803 79.6031 31.8984 79.748C32.0165 79.8885 32.2178 79.959 32.5023 79.959C32.642 79.959 32.8346 79.9326 33.0795 79.8799V80.8679C32.7601 80.9557 32.4497 80.9998 32.1476 80.9998C31.6053 80.9998 31.196 80.8348 30.9202 80.5056C30.6448 80.1764 30.507 79.7086 30.507 79.1025V74.683H29.2138V73.7411H30.507V72.0155H31.7211ZM45.3398 80.8679H44.0728L39.2622 73.4777V80.8679H37.9956V71.2776H39.2622L44.0862 78.7009V71.2776H45.3398V80.8679ZM51.7717 80.8679C51.7015 80.7273 51.6446 80.4772 51.601 80.1169C51.0364 80.7053 50.3627 80.9998 49.5795 80.9998C48.8795 80.9998 48.3039 80.8021 47.8534 80.4068C47.4073 80.0071 47.184 79.5022 47.184 78.8919C47.184 78.1499 47.4638 77.5746 48.0241 77.1663C48.5884 76.7532 49.3805 76.5469 50.4 76.5469H51.5814V75.9873C51.5814 75.5612 51.4543 75.223 51.2005 74.9729C50.9469 74.7181 50.5726 74.5909 50.0782 74.5909C49.645 74.5909 49.2821 74.7004 48.9889 74.9201C48.6958 75.1395 48.5491 75.4053 48.5491 75.7171H47.3284C47.3284 75.3615 47.4532 75.0189 47.7024 74.6894C47.9562 74.3558 48.2976 74.0924 48.7264 73.899C49.1596 73.7061 49.6341 73.6092 50.1504 73.6092C50.9686 73.6092 51.6097 73.8156 52.0735 74.2286C52.5373 74.637 52.7778 75.2013 52.7955 75.9211V79.2014C52.7955 79.8558 52.8786 80.376 53.045 80.7624V80.8679H51.7717ZM49.7568 79.9393C50.1375 79.9393 50.4984 79.8405 50.8398 79.6428C51.1808 79.4451 51.428 79.1884 51.5814 78.8722V77.41H50.6295C49.142 77.41 48.3981 77.8467 48.3981 78.7206C48.3981 79.1025 48.5251 79.4014 48.7787 79.6164C49.0325 79.8314 49.3586 79.9393 49.7568 79.9393ZM56.3461 72.0155V73.7411H57.672V74.683H56.3461V79.1025C56.3461 79.388 56.4053 79.6031 56.5234 79.748C56.6416 79.8885 56.8429 79.959 57.1273 79.959C57.2671 79.959 57.4597 79.9326 57.7049 79.8799V80.8679C57.3852 80.9557 57.0747 80.9998 56.7726 80.9998C56.2303 80.9998 55.8211 80.8348 55.5453 80.5056C55.2698 80.1764 55.1321 79.7086 55.1321 79.1025V74.683H53.8392V73.7411H55.1321V72.0155H56.3461ZM60.4155 80.8679H59.2011V73.7411H60.4155V80.8679ZM59.1026 71.8506C59.1026 71.6532 59.1618 71.4863 59.2799 71.35C59.4024 71.2138 59.5817 71.146 59.8179 71.146C60.0545 71.146 60.2338 71.2138 60.3562 71.35C60.4787 71.4863 60.5399 71.6532 60.5399 71.8506C60.5399 72.0482 60.4787 72.2128 60.3562 72.3447C60.2338 72.4763 60.0545 72.5424 59.8179 72.5424C59.5817 72.5424 59.4024 72.4763 59.2799 72.3447C59.1618 72.2128 59.1026 72.0482 59.1026 71.8506ZM64.7077 79.2147L66.4664 73.7411H67.7071L65.1606 80.8679H64.235L61.6625 73.7411H62.9028L64.7077 79.2147ZM71.7302 80.9998C70.7677 80.9998 69.9845 80.6836 69.3806 80.0512C68.7767 79.4144 68.475 78.5646 68.475 77.5022V77.2781C68.475 76.5712 68.6084 75.9412 68.8752 75.3879C69.1464 74.83 69.5227 74.3952 70.0041 74.0837C70.4899 73.7675 71.0149 73.6092 71.5792 73.6092C72.5024 73.6092 73.2201 73.9144 73.7321 74.5248C74.2438 75.1351 74.5 76.009 74.5 77.1462V77.6534H69.689C69.7067 78.3563 69.91 78.9249 70.2996 79.3596C70.6932 79.7897 71.1922 80.0051 71.7958 80.0051C72.2246 80.0051 72.5879 79.9173 72.8854 79.7416C73.1828 79.566 73.4433 79.3333 73.6666 79.0434L74.4082 79.6231C73.813 80.5406 72.9203 80.9998 71.7302 80.9998ZM71.5792 74.6106C71.0894 74.6106 70.6778 74.7906 70.3455 75.1505C70.0128 75.5064 69.8072 76.007 69.7286 76.6524H73.2856V76.5602C73.2507 75.9412 73.0843 75.4624 72.7869 75.1241C72.4895 74.7819 72.0869 74.6106 71.5792 74.6106Z" fill="#181433"/>
</svg>
