<svg width="119" height="65" viewBox="0 0 119 65" fill="none" xmlns="http://www.w3.org/2000/svg">
<g clip-path="url(#clip0_567_908)">
<path d="M91.2761 54.8841C105.81 40.3915 108.225 19.3038 96.6708 7.78236C85.1184 -3.73782 63.9732 -1.32945 49.4406 13.1622C34.908 27.6544 39.112 55.342 44.0467 60.264C48.0344 64.2407 76.7443 69.3758 91.2761 54.8841Z" fill="#181433"/>
<path d="M31.643 33.9433C23.2119 25.5354 10.942 24.1356 4.23718 30.8215C-2.46592 37.5066 -1.06445 49.7444 7.36838 58.151C15.8012 66.5614 31.9112 64.1287 34.7725 61.2727C37.088 58.9675 40.0767 42.352 31.643 33.9433Z" fill="#3499CD"/>
<path d="M60.734 51.3312C59.2445 52.6984 57.9379 53.7074 56.8149 54.3557C55.6919 55.0062 54.6209 55.331 53.6018 55.331C52.4294 55.331 51.4837 54.8778 50.7666 53.971C50.0483 53.0634 49.6904 51.8464 49.6904 50.3153C49.6904 48.0212 50.1891 45.267 51.1863 42.0559C52.1818 38.8422 53.3941 35.8809 54.8178 33.1717L58.9926 31.6304C59.1235 31.5867 59.2231 31.5645 59.2892 31.5645C59.6058 31.5645 59.8676 31.7972 60.0684 32.2607C60.2714 32.7263 60.3735 33.3519 60.3735 34.1384C60.3735 36.3675 59.859 38.5255 58.8279 40.6125C57.7971 42.7003 56.1871 44.9286 53.9961 47.2997C53.9081 48.4363 53.8644 49.2168 53.8644 49.6434C53.8644 50.5947 54.0394 51.3474 54.39 51.905C54.741 52.4635 55.2062 52.7408 55.7872 52.7408C56.3798 52.7408 57.0093 52.5294 57.6778 52.1032C58.3451 51.6761 59.3642 50.792 60.7335 49.447V51.3312H60.734ZM54.4398 44.9239C55.831 43.3812 56.9608 41.6511 57.8259 39.737C58.691 37.822 59.1231 36.1749 59.1231 34.7949C59.1231 34.3926 59.0634 34.0657 58.9437 33.82C58.8231 33.574 58.6687 33.4503 58.4829 33.4503C58.0791 33.4503 57.489 34.4568 56.7162 36.4702C55.9434 38.4831 55.1847 41.3015 54.4398 44.9239Z" fill="#3499CD"/>
<path d="M73.0285 51.3309C71.6373 52.6981 70.3886 53.7072 69.2815 54.3555C68.1744 55.0059 66.9541 55.3307 65.6165 55.3307C64.1262 55.3307 62.9239 54.8553 62.0077 53.9057C61.0933 52.9536 60.6367 51.7036 60.6367 50.1515C60.6367 47.8356 61.4413 45.74 63.0539 43.8662C64.663 41.9914 66.4498 41.0547 68.4109 41.0547C69.43 41.0547 70.2453 41.3179 70.8598 41.8421C71.4734 42.3671 71.7802 43.0548 71.7802 43.9072C71.7802 46.1697 69.3699 48.0042 64.5489 49.4142C64.9866 51.544 66.1314 52.6104 67.9835 52.6104C68.707 52.6104 69.3965 52.4165 70.0535 52.0297C70.7122 51.6411 71.703 50.7793 73.0289 49.4472V51.3309H73.0285ZM64.4163 48.2995C67.2205 47.5121 68.6237 46.0597 68.6237 43.9398C68.6237 42.8909 68.2397 42.3667 67.4737 42.3667C66.7502 42.3667 66.0606 42.9149 65.4037 44.0142C64.7446 45.1119 64.4163 46.5394 64.4163 48.2995Z" fill="#3499CD"/>
<path d="M90.5821 51.3315C88.8288 52.9923 87.574 54.0753 86.8188 54.5786C86.0627 55.081 85.3397 55.3317 84.6488 55.3317C82.9174 55.3317 82.1016 53.8079 82.1999 50.7589C81.1044 52.3208 80.093 53.4737 79.167 54.2183C78.2418 54.9611 77.2862 55.3317 76.2988 55.3317C75.3359 55.3317 74.5171 54.882 73.8422 53.9803C73.1672 53.0787 72.832 51.9729 72.832 50.6605C72.832 49.0224 73.283 47.4596 74.1863 45.9726C75.0913 44.4864 76.2499 43.2856 77.6629 42.3677C79.076 41.4498 80.3264 40.9902 81.4099 40.9902C82.78 40.9902 83.7391 41.6189 84.2871 42.8748L87.6461 41.0236H88.5679L87.117 45.8254C86.3721 48.241 85.9984 49.8966 85.9984 50.7923C85.9984 51.7316 86.3318 52.2014 87.0008 52.2014C87.4264 52.2014 87.8976 51.9751 88.4129 51.521C88.9283 51.067 89.6501 50.3759 90.5812 49.4473V51.3315H90.5821ZM78.5512 52.234C79.6467 52.234 80.6791 51.3028 81.6506 49.4401C82.6204 47.5764 83.1049 45.857 83.1049 44.284C83.1049 43.6729 82.9667 43.194 82.6942 42.8504C82.4192 42.5051 82.0523 42.3339 81.5931 42.3339C80.4968 42.3339 79.4575 43.2625 78.4787 45.1206C77.4982 46.9786 77.0068 48.6886 77.0068 50.2497C77.0068 50.8406 77.1527 51.3186 77.4428 51.6849C77.7329 52.0512 78.1011 52.234 78.5512 52.234Z" fill="#3499CD"/>
<path d="M102.86 51.3317C100.109 54.0195 97.9887 55.3645 96.4988 55.3645C95.8298 55.3645 95.2651 55.0829 94.806 54.5219C94.3468 53.9588 94.1155 53.2617 94.1155 52.4306C94.1155 50.8901 94.9437 48.8258 96.5979 46.2356C95.7865 46.6511 94.8999 46.9395 93.9353 47.1038C93.223 48.415 92.1047 49.825 90.5823 51.3313H90.2051V49.858C91.059 48.973 91.8318 48.0217 92.5223 47.0054C91.5787 46.5899 91.1084 45.9724 91.1084 45.1542C91.1084 44.3116 91.395 43.4134 91.9717 42.4561C92.5467 41.501 93.338 41.0234 94.3468 41.0234C95.2016 41.0234 95.6281 41.4591 95.6281 42.3337C95.6281 43.0223 95.3818 44.0052 94.8879 45.2843C96.7065 45.087 98.2955 43.7005 99.6549 41.121L101.15 41.0551L99.6214 45.2509C98.9863 47.0212 98.5753 48.2271 98.3895 48.8656C98.2037 49.5041 98.1097 50.0706 98.1097 50.5615C98.1097 51.0211 98.217 51.3882 98.4298 51.6595C98.6435 51.9347 98.9319 52.0699 99.2932 52.0699C99.6871 52.0699 100.066 51.9355 100.427 51.6694C100.789 51.3993 101.6 50.6599 102.86 49.4471V51.3317H102.86Z" fill="#3499CD"/>
<path d="M119 51.3311C116.469 53.9987 114.298 55.3313 112.491 55.3313C111.757 55.3313 111.165 55.0745 110.716 54.5606C110.266 54.0475 110.042 53.3594 110.042 52.4963C110.042 51.3272 110.524 49.5402 111.489 47.1374C112.003 45.8476 112.262 45.0269 112.262 44.6785C112.262 44.3285 112.124 44.1535 111.851 44.1535C111.698 44.1535 111.494 44.2305 111.243 44.3824C111.011 44.5352 110.743 44.75 110.436 45.0226C110.163 45.2733 109.855 45.5793 109.516 45.9388C109.219 46.2473 108.901 46.5965 108.564 46.9885L107.642 48.0549C107.237 48.5461 106.985 49.0643 106.887 49.6112C106.722 50.5398 106.613 51.3931 106.557 52.1698C106.524 52.7475 106.508 53.528 106.508 54.5135L102.875 55.3642C102.756 53.8892 102.694 52.7907 102.694 52.0705C102.694 50.3113 102.9 48.6445 103.311 47.0715C103.722 45.4967 104.382 43.7277 105.292 41.7601L109.301 40.9902C108.458 43.2527 107.905 45.0328 107.642 46.3325C109.439 44.3332 110.864 42.9493 111.92 42.1777C112.974 41.407 113.913 41.0236 114.733 41.0236C115.291 41.0236 115.757 41.2333 116.128 41.6531C116.501 42.0733 116.686 42.6009 116.686 43.2317C116.686 44.2797 116.215 46.0064 115.274 48.4113C114.627 50.0605 114.303 51.1308 114.303 51.625C114.303 52.2828 114.572 52.6114 115.111 52.6114C115.912 52.6114 117.209 51.5566 119 49.4478V51.3311Z" fill="#3499CD"/>
<path d="M75.7906 34.6969L74.7366 34.9952C74.6703 34.8195 74.5725 34.6489 74.4433 34.4831C74.3173 34.3141 74.145 34.1749 73.9262 34.0655C73.7075 33.9561 73.4274 33.9015 73.086 33.9015C72.6187 33.9015 72.2293 34.0092 71.9177 34.2246C71.6095 34.4367 71.4553 34.7069 71.4553 35.035C71.4553 35.3266 71.5614 35.557 71.7735 35.726C71.9856 35.8951 72.3171 36.0359 72.7678 36.1486L73.9014 36.427C74.5841 36.5927 75.0929 36.8463 75.4276 37.1877C75.7624 37.5257 75.9298 37.9616 75.9298 38.4952C75.9298 38.9327 75.8038 39.3238 75.5519 39.6685C75.3034 40.0132 74.9553 40.285 74.5079 40.4838C74.0605 40.6827 73.5401 40.7821 72.9468 40.7821C72.1679 40.7821 71.5233 40.6131 71.0129 40.275C70.5025 39.937 70.1793 39.4431 70.0434 38.7935L71.157 38.5151C71.2631 38.9261 71.4636 39.2343 71.7586 39.4398C72.0569 39.6453 72.4463 39.748 72.9269 39.748C73.4738 39.748 73.908 39.632 74.2295 39.4C74.5543 39.1647 74.7167 38.883 74.7167 38.5549C74.7167 38.2897 74.6239 38.0676 74.4383 37.8887C74.2527 37.7064 73.9677 37.5705 73.5832 37.481L72.3105 37.1827C71.6111 37.017 71.0974 36.7601 70.7693 36.4121C70.4445 36.0608 70.282 35.6216 70.282 35.0946C70.282 34.6638 70.403 34.2826 70.645 33.9512C70.8902 33.6197 71.2233 33.3596 71.6443 33.1706C72.0685 32.9817 72.5491 32.8873 73.086 32.8873C73.8417 32.8873 74.435 33.053 74.8659 33.3844C75.3 33.7158 75.6083 34.1533 75.7906 34.6969ZM80.7982 40.7821C80.0823 40.7821 79.4658 40.6131 78.9488 40.275C78.4317 39.937 78.034 39.4713 77.7556 38.878C77.4772 38.2847 77.338 37.6069 77.338 36.8446C77.338 36.0691 77.4805 35.3846 77.7655 34.7914C78.0539 34.1948 78.4549 33.7291 78.9687 33.3944C79.4857 33.0563 80.0889 32.8873 80.7783 32.8873C81.3153 32.8873 81.7992 32.9867 82.23 33.1855C82.6609 33.3844 83.0139 33.6628 83.289 34.0208C83.5641 34.3787 83.7348 34.7963 83.801 35.2736H82.6278C82.5383 34.9256 82.3394 34.6174 82.0312 34.3489C81.7262 34.0771 81.3153 33.9412 80.7982 33.9412C80.3408 33.9412 79.9398 34.0605 79.5951 34.2992C79.2537 34.5345 78.9869 34.8676 78.7947 35.2985C78.6057 35.726 78.5113 36.2282 78.5113 36.8049C78.5113 37.3948 78.6041 37.9086 78.7897 38.3461C78.9786 38.7836 79.2438 39.1233 79.5851 39.3652C79.9298 39.6072 80.3342 39.7282 80.7982 39.7282C81.1031 39.7282 81.3799 39.6751 81.6285 39.5691C81.877 39.463 82.0875 39.3105 82.2599 39.1117C82.4322 38.9128 82.5548 38.6742 82.6278 38.3958H83.801C83.7348 38.8465 83.5707 39.2525 83.3089 39.6138C83.0503 39.9718 82.7073 40.2568 82.2797 40.4689C81.8555 40.6777 81.3617 40.7821 80.7982 40.7821ZM85.5162 40.623V32.9867H86.6895V40.623H85.5162ZM86.1128 31.714C85.8841 31.714 85.6869 31.6361 85.5212 31.4803C85.3588 31.3245 85.2776 31.1373 85.2776 30.9185C85.2776 30.6998 85.3588 30.5125 85.5212 30.3567C85.6869 30.2009 85.8841 30.123 86.1128 30.123C86.3415 30.123 86.5371 30.2009 86.6995 30.3567C86.8652 30.5125 86.9481 30.6998 86.9481 30.9185C86.9481 31.1373 86.8652 31.3245 86.6995 31.4803C86.5371 31.6361 86.3415 31.714 86.1128 31.714ZM71.4752 54.839L71.4553 53.3873H71.694L75.0349 49.9867H76.4866L72.9269 53.5861H72.8275L71.4752 54.839ZM70.3815 57.623V47.4412H71.5548V57.623H70.3815ZM75.2338 57.623L72.2508 53.8446L73.086 53.0293L76.7252 57.623H75.2338ZM77.9967 57.623V49.9867H79.17V57.623H77.9967ZM78.5933 48.714C78.3646 48.714 78.1674 48.6361 78.0017 48.4803C77.8393 48.3245 77.7581 48.1373 77.7581 47.9185C77.7581 47.6998 77.8393 47.5125 78.0017 47.3567C78.1674 47.2009 78.3646 47.123 78.5933 47.123C78.822 47.123 79.0175 47.2009 79.18 47.3567C79.3457 47.5125 79.4285 47.6998 79.4285 47.9185C79.4285 48.1373 79.3457 48.3245 79.18 48.4803C79.0175 48.6361 78.822 48.714 78.5933 48.714ZM84.64 49.9867V50.981H80.6826V49.9867H84.64ZM81.836 48.1571H83.0093V55.4355C83.0093 55.767 83.0574 56.0156 83.1535 56.1813C83.2529 56.3437 83.3789 56.4531 83.5313 56.5094C83.6871 56.5624 83.8512 56.589 84.0235 56.589C84.1528 56.589 84.2588 56.5823 84.3417 56.5691C84.4246 56.5525 84.4909 56.5392 84.5406 56.5293L84.7792 57.5833C84.6997 57.6131 84.5886 57.6429 84.4461 57.6728C84.3036 57.7059 84.123 57.7225 83.9042 57.7225C83.5728 57.7225 83.248 57.6512 82.9298 57.5087C82.6149 57.3662 82.3531 57.1491 82.1443 56.8574C81.9388 56.5658 81.836 56.1979 81.836 55.7537V48.1571Z" fill="#ECECFF"/>
</g>
<defs>
<clipPath id="clip0_567_908">
<rect width="119" height="64" fill="white" transform="translate(0 0.5)"/>
</clipPath>
</defs>
</svg>
