<svg width="144" height="75" viewBox="0 0 144 75" fill="none" xmlns="http://www.w3.org/2000/svg">
<g clip-path="url(#clip0_567_832)">
<path fill-rule="evenodd" clip-rule="evenodd" d="M130.897 38.0691C130.77 37.8084 130.718 37.6743 130.651 37.5477C128.863 34.1513 127.081 30.7623 125.278 27.3733C125.099 27.0306 125.121 26.8295 125.367 26.539C128.207 23.2245 131.031 19.8951 133.863 16.5657C133.96 16.4465 134.05 16.3274 134.087 16.1188L131.605 16.7668C128.169 17.6755 124.741 18.5842 121.313 19.5004C120.992 19.5823 120.851 19.4929 120.687 19.2248C118.734 15.9698 116.781 12.7223 114.821 9.47486C114.717 9.30355 114.612 9.13969 114.396 8.99817C114.24 9.86218 114.076 10.7336 113.927 11.5976L112.295 20.7815C112.235 21.1092 112.153 21.4444 112.123 21.7721C112.093 22.0849 111.937 22.2041 111.646 22.2935C107.599 23.5597 103.56 24.8408 99.5202 26.1219C99.3413 26.1815 99.1699 26.2486 98.9761 26.4199C102.285 27.7308 105.587 29.0491 108.948 30.3824C108.829 30.4792 108.747 30.5537 108.658 30.6133C106.593 31.9466 104.521 33.2798 102.457 34.628C102.211 34.7918 102.017 34.8142 101.734 34.6875C99.2668 33.5777 96.785 32.4903 94.3106 31.3805C93.2001 30.8889 92.2014 30.226 91.4263 29.28C89.6674 27.1275 90.0177 24.6844 92.3579 23.1947C93.1255 22.7031 93.9975 22.3382 94.8621 22.0551C98.8271 20.7666 102.799 19.5227 106.772 18.2714C107.107 18.1671 107.256 18.0181 107.323 17.6606C107.853 14.5993 108.404 11.5381 108.956 8.47678C109.254 6.83815 109.41 5.16227 110.208 3.66515C110.513 3.09162 110.879 2.52555 111.318 2.0414C112.898 0.291041 115.097 0.224006 116.766 1.89244C117.333 2.45851 117.817 3.12142 118.235 3.79922C120.075 6.79346 121.879 9.81004 123.683 12.8266C123.891 13.1841 124.085 13.2586 124.48 13.1469C128.915 11.9626 133.349 10.7932 137.784 9.61638C138.7 9.37803 139.625 9.28865 140.564 9.45997C142.606 9.83983 143.5 11.3965 142.814 13.3704C142.501 14.2716 141.957 15.0313 141.346 15.7464C138.253 19.3886 135.16 23.0309 132.052 26.6582C131.799 26.9562 131.792 27.1722 131.97 27.4999C133.826 30.9932 135.66 34.4864 137.5 37.9872C137.94 38.8214 138.276 39.6928 138.291 40.6537C138.313 42.836 136.71 44.6237 134.542 44.9439C133.327 45.1227 132.194 44.862 131.054 44.5119C128.274 43.6554 125.494 42.8063 122.706 41.972C122.446 41.8976 122.349 41.7933 122.304 41.5177C121.983 39.5588 121.633 37.6073 121.298 35.6484C121.29 35.5962 121.305 35.5367 121.313 35.4175C124.48 36.2964 127.625 37.1604 130.897 38.0691Z" fill="#0B569D"/>
<path fill-rule="evenodd" clip-rule="evenodd" d="M125.479 66.5969C122.975 66.5894 120.463 66.582 117.959 66.5894C117.631 66.5894 117.444 66.4926 117.258 66.2095C114.292 61.6958 111.311 57.1821 108.329 52.6759C108.233 52.5344 108.136 52.3928 107.964 52.1545C107.323 57.0257 106.697 61.7852 106.071 66.5596H99.5051C99.5797 65.9191 99.6468 65.3008 99.7287 64.6901C100.37 59.7965 101.011 54.9104 101.659 50.0168C102.27 45.3467 102.889 40.6691 103.507 35.999C103.522 35.8575 103.619 35.6862 103.731 35.6117C105.989 34.1369 108.255 32.6845 110.521 31.2172C110.55 31.1948 110.603 31.1948 110.714 31.1576C110.029 36.3789 109.351 41.5629 108.665 46.747C108.695 46.7619 108.717 46.7842 108.747 46.8066C112.302 42.8664 115.857 38.9262 119.494 34.9041L119.777 36.5427C120.031 38.025 120.277 39.5146 120.552 40.9969C120.604 41.2948 120.53 41.481 120.329 41.6896C118.033 44.0954 115.738 46.5086 113.45 48.9145C113.353 49.0187 113.256 49.1305 113.137 49.2496C113.211 49.3688 113.271 49.4805 113.345 49.5848L125.21 66.2244C125.285 66.3213 125.382 66.4032 125.471 66.4926C125.479 66.5373 125.479 66.5671 125.479 66.5969ZM47.6772 52.1768C47.5804 51.6629 47.5058 50.9181 47.2822 50.2179C46.1792 46.8289 42.7061 44.9668 39.0989 45.8085C35.1488 46.7246 32.3242 49.8306 31.9142 53.8602C31.6087 56.8395 33.2185 59.7146 36.2071 60.7871C38.6144 61.6586 40.9249 61.2936 43.0788 60.0051C45.9258 58.2994 47.476 55.7595 47.6772 52.1768ZM30.3268 64.7795C30.133 66.2393 29.9467 67.6098 29.7678 68.9878C29.5293 70.8126 29.2908 72.6449 29.0598 74.4698C29.0299 74.6858 28.9703 74.7751 28.7393 74.7751C26.9357 74.7677 25.132 74.7677 23.3284 74.7677C23.2912 74.7677 23.2464 74.7454 23.1496 74.7156C23.2613 73.8516 23.3657 72.9875 23.4775 72.1235C23.8725 69.0921 24.2749 66.0606 24.6774 63.0291C25.1395 59.5656 25.5047 56.0798 26.0935 52.6386C27.1369 46.5384 32.3167 41.2873 38.3909 39.9764C41.9087 39.2167 45.2849 39.5668 48.3555 41.548C51.4186 43.5218 53.1775 46.3895 53.58 49.9945C54.1464 55.0891 52.2683 59.3198 48.6461 62.8205C46.2686 65.1221 43.4216 66.582 40.1349 67.0735C36.7512 67.58 33.5688 67.0214 30.7218 65.0252C30.6174 64.9508 30.5056 64.8912 30.3268 64.7795ZM27.3903 35.7979C25.3705 37.3025 23.4179 38.7549 21.4652 40.2073C21.1522 39.7083 20.8689 39.2167 20.5336 38.7549C19.6839 37.5706 18.6256 36.6843 17.0977 36.5725C15.8233 36.4832 14.7277 36.9003 13.8632 37.8462C13.0881 38.6879 12.9837 39.8796 13.7066 40.833C14.5041 41.8758 15.3836 42.8664 16.2705 43.8347C17.7536 45.4361 19.2964 46.9779 20.7721 48.5942C22.1136 50.0615 23.1794 51.7076 23.5073 53.7112C23.9023 56.0947 23.4253 58.3664 22.2925 60.4669C20.2056 64.3475 16.9114 66.5969 12.5738 67.297C10.6584 67.6098 8.74298 67.5428 6.87228 66.9991C4.39045 66.2691 2.66136 64.6379 1.55087 62.3438C1.15586 61.532 0.857742 60.6754 0.5 59.804C2.67627 58.642 4.78545 57.5099 6.93191 56.3628C7.00644 56.5416 7.05861 56.6905 7.12568 56.8321C7.49088 57.562 7.789 58.3366 8.24363 59.0144C9.58516 61.0106 11.754 61.6139 13.9526 60.6307C14.519 60.3775 15.0631 60.02 15.5252 59.6103C16.9412 58.3515 17.2095 56.6012 16.1587 55.0221C15.555 54.1134 14.8022 53.3015 14.0644 52.4822C12.3129 50.5382 10.487 48.6538 8.77279 46.6725C7.59522 45.302 6.7903 43.7081 6.5369 41.8758C6.26114 39.8796 6.65615 37.9952 7.69956 36.3118C10.2857 32.1333 14.042 29.9584 19.0132 30.1372C21.8453 30.2414 24.1035 31.5672 25.855 33.7645C26.3767 34.4125 26.8611 35.0903 27.3903 35.7979ZM75.4023 58.2398C75.0743 60.7573 74.7613 63.1483 74.4408 65.5392C74.4259 65.6584 74.329 65.8222 74.2247 65.8744C69.3356 68.1387 62.8887 67.8258 58.8716 63.26C56.7102 60.8095 55.8084 57.9046 55.9426 54.672C56.2556 47.1864 62.4639 40.6468 69.8945 39.7381C74.2322 39.2018 78.0406 40.3786 80.9845 43.7453C82.9894 46.0394 83.9136 48.7804 83.7794 51.8044C83.69 53.8006 83.3769 55.7893 83.1235 57.778C82.7733 60.5935 82.3857 63.409 82.0131 66.2244C81.9981 66.3213 81.9832 66.4255 81.9534 66.5522H76.1029C76.1774 65.9042 76.2519 65.271 76.3339 64.6379C76.7587 61.383 77.2208 58.143 77.5934 54.8806C77.8245 52.8546 77.6829 50.8361 76.7513 48.9591C75.7675 46.963 74.1055 45.9053 71.9292 45.6744C67.4201 45.1977 63.1347 48.326 62.1733 52.7578C61.5398 55.685 62.5385 58.4856 64.8712 60.0423C67.1444 61.5543 69.5815 61.5543 72.0559 60.5786C73.3154 60.087 74.3812 59.2975 75.4023 58.2398ZM100.042 40.3042C99.7735 42.3301 99.5126 44.3263 99.2443 46.3671C98.0071 46.3671 96.7923 46.3597 95.5774 46.3671C94.5937 46.3746 93.6993 47.0077 93.4012 47.9238C93.2819 48.2813 93.2447 48.6687 93.1925 49.0411C92.5739 53.6963 91.9628 58.3515 91.3516 63.0142C91.1951 64.191 91.046 65.3604 90.8895 66.5522H84.8005C84.9123 65.6584 85.024 64.7869 85.1358 63.9229C85.5308 60.9063 85.9259 57.8897 86.3283 54.8731C86.6786 52.2662 86.9842 49.6444 87.3941 47.0449C87.9381 43.5591 91.4112 40.4606 94.9365 40.3116C96.6209 40.2446 98.3052 40.3042 100.042 40.3042Z" fill="#181433"/>
<path d="M132.664 66.5595V63.9899H132.649L131.643 66.5595H131.322L130.316 63.9899H130.301V66.5595H129.794V63.4834H130.577L131.493 65.8222L132.395 63.4834H133.17V66.5595H132.664ZM128.192 63.893V66.5595H127.685V63.893H126.724V63.4834H129.161V63.893H128.192ZM35.5515 31.4778H37.0644L36.7067 29.1911L35.5515 31.4778ZM37.2954 32.9526H34.7838L33.9863 34.5167H32.2051L36.1328 27.1875H37.847L39.1811 34.5167H37.5339L37.2954 32.9526ZM46.2912 28.6623H45.3968L45.0987 30.3531H45.9931C46.5297 30.3531 46.9619 29.9956 46.9619 29.3327C46.9619 28.8858 46.6862 28.6623 46.2912 28.6623ZM44.1224 27.1875H46.47C47.6998 27.1875 48.5643 27.9175 48.5643 29.1837C48.5643 30.7702 47.4464 31.8353 45.844 31.8353H44.8304L44.3534 34.5167H42.8255L44.1224 27.1875ZM53.7665 31.4778H55.2794L54.9217 29.1911L53.7665 31.4778ZM55.5179 32.9526H53.0063L52.2088 34.5167H50.4276L54.3553 27.1875H56.0695L57.4035 34.5167H55.7564L55.5179 32.9526ZM65.4453 34.256C64.931 34.4944 64.3572 34.6359 63.7833 34.6359C61.8455 34.6359 60.6232 33.1835 60.6232 31.3586C60.6232 29.0273 62.5834 27.0684 64.9161 27.0684C65.4975 27.0684 66.0266 27.2099 66.4589 27.4482L66.2428 29.206C65.9223 28.8485 65.4006 28.6027 64.7522 28.6027C63.4181 28.6027 62.2256 29.8094 62.2256 31.2096C62.2256 32.2748 62.8964 33.109 63.9547 33.109C64.6031 33.109 65.2292 32.8632 65.6465 32.5131L65.4453 34.256ZM74.8062 31.5597H71.6163L71.0946 34.5093H69.5668L70.8636 27.1801H72.3914L71.8772 30.0775H75.0671L75.5813 27.1801H77.1166L75.8198 34.5093H74.292L74.8062 31.5597ZM80.4257 34.5167L81.7151 27.1875H85.7844L85.5236 28.6623H82.9896L82.7287 30.0849H85.054L84.7932 31.5597H82.4604L82.1996 33.0345H84.7336L84.4727 34.5093L80.4257 34.5167Z" fill="#181433"/>
</g>
<defs>
<clipPath id="clip0_567_832">
<rect width="143" height="75" fill="white" transform="translate(0.5)"/>
</clipPath>
</defs>
</svg>
