<svg width="71" height="77" viewBox="0 0 71 77" fill="none" xmlns="http://www.w3.org/2000/svg">
<g clip-path="url(#clip0_567_925)">
<path d="M40.5719 12.1914V23.8832L60.8593 35.5751V23.8832L40.5719 12.1914ZM0 23.8832V35.5751L10.1437 41.421V29.7292L0 23.8832ZM30.4281 29.7292L20.2844 35.5751V70.6506L30.4281 76.4996V53.1159L40.5719 58.9618V47.27L30.4281 41.424V29.7292Z" fill="#181433"/>
<path d="M40.5717 12.1914L10.1436 29.7292V41.421L30.431 29.7292V41.421L40.5747 35.5751V12.1914H40.5717ZM70.9998 18.0373L60.8561 23.8832V35.5751L70.9998 29.7292V18.0373ZM50.7154 41.424L40.5717 47.27V58.9618L50.7154 53.1159V41.424ZM40.5717 58.9618L30.428 53.1159V76.4996L40.5717 70.6536V58.9618Z" fill="#2F1DA4"/>
<path d="M40.5719 0.5L0 23.8837L10.1437 29.7296L40.5719 12.1918L60.8593 23.8837L71.0031 18.0378L40.5719 0.5ZM40.5719 35.5755L30.4281 41.4214L40.5719 47.2674L50.7156 41.4214L40.5719 35.5755Z" fill="#3499CD"/>
</g>
<defs>
<clipPath id="clip0_567_925">
<rect width="71" height="76" fill="white" transform="translate(0 0.5)"/>
</clipPath>
</defs>
</svg>
