<svg width="79" height="77" viewBox="0 0 79 77" fill="none" xmlns="http://www.w3.org/2000/svg">
<g clip-path="url(#clip0_567_893)">
<path d="M14.3125 0.507812H64.6875C72.325 0.507812 78.5 6.67749 78.5 14.3084V62.6916C78.5 70.3226 72.325 76.4922 64.6875 76.4922H14.3125C6.675 76.4922 0.5 70.3226 0.5 62.6916V14.3084C0.5 6.67749 6.675 0.507812 14.3125 0.507812Z" fill="#181433"/>
<path d="M41.5151 20.4773L31.7651 36.551L42.1651 53.5988C42.2301 53.7286 42.2626 53.8585 42.2301 53.9884C42.1976 54.1183 42.0676 54.0209 41.8726 54.0534H34.4301C33.9101 54.0534 33.5526 54.0209 33.3251 53.6962C32.6426 52.3324 31.9276 51.001 31.2451 49.6372C30.5626 48.3058 29.8151 46.942 29.0351 45.5457C28.2551 44.1494 27.4751 42.7531 26.6951 41.3244H26.6301C25.9476 42.7206 25.2001 44.1169 24.4526 45.5132C23.7051 46.9095 22.9576 48.3058 22.2426 49.6696C21.4951 51.0335 20.7476 52.4298 20.0001 53.7611C19.8701 54.0858 19.6101 54.1183 19.2526 54.1183H12.1026C11.9726 54.1183 11.8751 54.1833 11.8751 54.0209C11.8426 53.891 11.8751 53.7611 11.9401 53.6637L22.0476 37.103L12.2001 20.4449C12.1026 20.315 12.0701 20.1851 12.1351 20.1202C12.2001 20.0227 12.3301 19.9903 12.4601 19.9903H19.8376C20.0001 19.9903 20.1626 20.0227 20.2926 20.0552C20.4226 20.1202 20.5201 20.2176 20.6176 20.3475C21.2351 21.7438 21.9501 23.14 22.6976 24.5363C23.4776 25.9326 24.2251 27.2965 25.0376 28.6603C25.8176 30.0241 26.5326 31.3879 27.2151 32.7842H27.2801C27.9626 31.3555 28.6776 29.9592 29.3926 28.5953C30.1076 27.2315 30.8551 25.8677 31.6026 24.5039C32.3501 23.14 33.0651 21.7438 33.7801 20.4124C33.8126 20.2825 33.8776 20.1526 33.9751 20.0877C34.1051 20.0227 34.2351 19.9903 34.3976 20.0227H41.2551C41.4176 19.9903 41.5801 20.0877 41.6126 20.25C41.6451 20.2825 41.5801 20.4124 41.5151 20.4773ZM56.5301 54.7353C54.1251 54.7677 51.7201 54.2807 49.5426 53.274C47.4951 52.3324 45.8051 50.7737 44.6351 48.8578C43.4326 46.8771 42.8476 44.4092 42.8476 41.4542C42.8151 39.0513 43.4326 36.6809 44.6351 34.6027C45.8701 32.492 47.6576 30.7385 49.8026 29.5695C52.0776 28.3031 54.8076 27.6861 58.0251 27.6861C58.1876 27.6861 58.4151 27.6861 58.7076 27.7186C59.0001 27.7511 59.3251 27.7511 59.7151 27.7835V17.5224C59.7151 17.2951 59.8126 17.1652 60.0401 17.1652H66.6376C66.8001 17.1327 66.9301 17.2626 66.9626 17.3925V48.3708C66.9626 48.9553 66.9951 49.6047 67.0276 50.3191C67.0926 51.001 67.1251 51.6504 67.1576 52.2025C67.1576 52.4298 67.0601 52.6246 66.8326 52.722C65.1426 53.4364 63.3551 53.956 61.5351 54.2807C59.8776 54.5729 58.2201 54.7353 56.5301 54.7353ZM59.7151 48.2409V33.9532C59.4226 33.8883 59.1301 33.8233 58.8376 33.7909C58.4801 33.7584 58.1226 33.7259 57.7651 33.7259C56.4976 33.7259 55.2301 33.9857 54.0926 34.5702C52.9876 35.1222 52.0451 35.934 51.3301 36.9731C50.6151 38.0122 50.2576 39.4085 50.2576 41.097C50.2251 42.2336 50.4201 43.3701 50.8101 44.4417C51.1351 45.3184 51.6226 46.0977 52.2726 46.7472C52.8901 47.3317 53.6376 47.7863 54.4826 48.046C55.3601 48.3383 56.2701 48.4682 57.1801 48.4682C57.6676 48.4682 58.1226 48.4357 58.5451 48.4032C58.9676 48.4357 59.3251 48.3708 59.7151 48.2409Z" fill="#ECECFF"/>
</g>
<defs>
<clipPath id="clip0_567_893">
<rect width="78" height="76" fill="white" transform="translate(0.5 0.5)"/>
</clipPath>
</defs>
</svg>
